G04 #@! TF.GenerationSoftware,KiCad,Pcbnew,7.0.8*
G04 #@! TF.CreationDate,2024-01-10T12:44:37+01:00*
G04 #@! TF.ProjectId,CAN_board,43414e5f-626f-4617-9264-2e6b69636164,rev?*
G04 #@! TF.SameCoordinates,Original*
G04 #@! TF.FileFunction,Legend,Top*
G04 #@! TF.FilePolarity,Positive*
%FSLAX46Y46*%
G04 Gerber Fmt 4.6, Leading zero omitted, Abs format (unit mm)*
G04 Created by KiCad (PCBNEW 7.0.8) date 2024-01-10 12:44:37*
%MOMM*%
%LPD*%
G01*
G04 APERTURE LIST*
G04 Aperture macros list*
%AMRoundRect*
0 Rectangle with rounded corners*
0 $1 Rounding radius*
0 $2 $3 $4 $5 $6 $7 $8 $9 X,Y pos of 4 corners*
0 Add a 4 corners polygon primitive as box body*
4,1,4,$2,$3,$4,$5,$6,$7,$8,$9,$2,$3,0*
0 Add four circle primitives for the rounded corners*
1,1,$1+$1,$2,$3*
1,1,$1+$1,$4,$5*
1,1,$1+$1,$6,$7*
1,1,$1+$1,$8,$9*
0 Add four rect primitives between the rounded corners*
20,1,$1+$1,$2,$3,$4,$5,0*
20,1,$1+$1,$4,$5,$6,$7,0*
20,1,$1+$1,$6,$7,$8,$9,0*
20,1,$1+$1,$8,$9,$2,$3,0*%
G04 Aperture macros list end*
%ADD10C,0.300000*%
%ADD11C,0.200000*%
%ADD12C,0.150000*%
%ADD13C,0.120000*%
%ADD14C,5.600000*%
%ADD15RoundRect,0.250000X-0.550000X1.500000X-0.550000X-1.500000X0.550000X-1.500000X0.550000X1.500000X0*%
%ADD16O,2.400000X1.600000*%
%ADD17R,2.400000X1.600000*%
%ADD18RoundRect,0.250000X-0.350000X-0.450000X0.350000X-0.450000X0.350000X0.450000X-0.350000X0.450000X0*%
%ADD19C,1.500000*%
%ADD20R,1.600000X1.600000*%
%ADD21O,1.600000X1.600000*%
%ADD22R,1.700000X1.700000*%
%ADD23O,1.700000X1.700000*%
%ADD24R,3.960000X1.980000*%
%ADD25O,3.960000X1.980000*%
%ADD26RoundRect,0.250000X0.325000X0.450000X-0.325000X0.450000X-0.325000X-0.450000X0.325000X-0.450000X0*%
%ADD27RoundRect,0.250000X-0.337500X-0.475000X0.337500X-0.475000X0.337500X0.475000X-0.337500X0.475000X0*%
%ADD28RoundRect,0.250000X0.337500X0.475000X-0.337500X0.475000X-0.337500X-0.475000X0.337500X-0.475000X0*%
G04 APERTURE END LIST*
D10*
X172377971Y-105903346D02*
X172449400Y-105974774D01*
X172449400Y-105974774D02*
X172520828Y-106189060D01*
X172520828Y-106189060D02*
X172520828Y-106331917D01*
X172520828Y-106331917D02*
X172449400Y-106546203D01*
X172449400Y-106546203D02*
X172306542Y-106689060D01*
X172306542Y-106689060D02*
X172163685Y-106760489D01*
X172163685Y-106760489D02*
X171877971Y-106831917D01*
X171877971Y-106831917D02*
X171663685Y-106831917D01*
X171663685Y-106831917D02*
X171377971Y-106760489D01*
X171377971Y-106760489D02*
X171235114Y-106689060D01*
X171235114Y-106689060D02*
X171092257Y-106546203D01*
X171092257Y-106546203D02*
X171020828Y-106331917D01*
X171020828Y-106331917D02*
X171020828Y-106189060D01*
X171020828Y-106189060D02*
X171092257Y-105974774D01*
X171092257Y-105974774D02*
X171163685Y-105903346D01*
X172092257Y-105331917D02*
X172092257Y-104617632D01*
X172520828Y-105474774D02*
X171020828Y-104974774D01*
X171020828Y-104974774D02*
X172520828Y-104474774D01*
X172520828Y-103974775D02*
X171020828Y-103974775D01*
X171020828Y-103974775D02*
X172520828Y-103117632D01*
X172520828Y-103117632D02*
X171020828Y-103117632D01*
X172520828Y-101689060D02*
X172520828Y-102403346D01*
X172520828Y-102403346D02*
X171020828Y-102403346D01*
X172377971Y-98046203D02*
X172449400Y-98117631D01*
X172449400Y-98117631D02*
X172520828Y-98331917D01*
X172520828Y-98331917D02*
X172520828Y-98474774D01*
X172520828Y-98474774D02*
X172449400Y-98689060D01*
X172449400Y-98689060D02*
X172306542Y-98831917D01*
X172306542Y-98831917D02*
X172163685Y-98903346D01*
X172163685Y-98903346D02*
X171877971Y-98974774D01*
X171877971Y-98974774D02*
X171663685Y-98974774D01*
X171663685Y-98974774D02*
X171377971Y-98903346D01*
X171377971Y-98903346D02*
X171235114Y-98831917D01*
X171235114Y-98831917D02*
X171092257Y-98689060D01*
X171092257Y-98689060D02*
X171020828Y-98474774D01*
X171020828Y-98474774D02*
X171020828Y-98331917D01*
X171020828Y-98331917D02*
X171092257Y-98117631D01*
X171092257Y-98117631D02*
X171163685Y-98046203D01*
X172092257Y-97474774D02*
X172092257Y-96760489D01*
X172520828Y-97617631D02*
X171020828Y-97117631D01*
X171020828Y-97117631D02*
X172520828Y-96617631D01*
X172520828Y-96117632D02*
X171020828Y-96117632D01*
X171020828Y-96117632D02*
X172520828Y-95260489D01*
X172520828Y-95260489D02*
X171020828Y-95260489D01*
X172520828Y-94546203D02*
X171020828Y-94546203D01*
X171735114Y-94546203D02*
X171735114Y-93689060D01*
X172520828Y-93689060D02*
X171020828Y-93689060D01*
X154859510Y-91875828D02*
X154859510Y-90375828D01*
X154859510Y-90375828D02*
X155359510Y-91447257D01*
X155359510Y-91447257D02*
X155859510Y-90375828D01*
X155859510Y-90375828D02*
X155859510Y-91875828D01*
X156859511Y-90375828D02*
X157145225Y-90375828D01*
X157145225Y-90375828D02*
X157288082Y-90447257D01*
X157288082Y-90447257D02*
X157430939Y-90590114D01*
X157430939Y-90590114D02*
X157502368Y-90875828D01*
X157502368Y-90875828D02*
X157502368Y-91375828D01*
X157502368Y-91375828D02*
X157430939Y-91661542D01*
X157430939Y-91661542D02*
X157288082Y-91804400D01*
X157288082Y-91804400D02*
X157145225Y-91875828D01*
X157145225Y-91875828D02*
X156859511Y-91875828D01*
X156859511Y-91875828D02*
X156716654Y-91804400D01*
X156716654Y-91804400D02*
X156573796Y-91661542D01*
X156573796Y-91661542D02*
X156502368Y-91375828D01*
X156502368Y-91375828D02*
X156502368Y-90875828D01*
X156502368Y-90875828D02*
X156573796Y-90590114D01*
X156573796Y-90590114D02*
X156716654Y-90447257D01*
X156716654Y-90447257D02*
X156859511Y-90375828D01*
X158573797Y-90375828D02*
X158573797Y-91447257D01*
X158573797Y-91447257D02*
X158502368Y-91661542D01*
X158502368Y-91661542D02*
X158359511Y-91804400D01*
X158359511Y-91804400D02*
X158145225Y-91875828D01*
X158145225Y-91875828D02*
X158002368Y-91875828D01*
X161216654Y-91875828D02*
X160359511Y-91875828D01*
X160788082Y-91875828D02*
X160788082Y-90375828D01*
X160788082Y-90375828D02*
X160645225Y-90590114D01*
X160645225Y-90590114D02*
X160502368Y-90732971D01*
X160502368Y-90732971D02*
X160359511Y-90804400D01*
X162145225Y-90375828D02*
X162288082Y-90375828D01*
X162288082Y-90375828D02*
X162430939Y-90447257D01*
X162430939Y-90447257D02*
X162502368Y-90518685D01*
X162502368Y-90518685D02*
X162573796Y-90661542D01*
X162573796Y-90661542D02*
X162645225Y-90947257D01*
X162645225Y-90947257D02*
X162645225Y-91304400D01*
X162645225Y-91304400D02*
X162573796Y-91590114D01*
X162573796Y-91590114D02*
X162502368Y-91732971D01*
X162502368Y-91732971D02*
X162430939Y-91804400D01*
X162430939Y-91804400D02*
X162288082Y-91875828D01*
X162288082Y-91875828D02*
X162145225Y-91875828D01*
X162145225Y-91875828D02*
X162002368Y-91804400D01*
X162002368Y-91804400D02*
X161930939Y-91732971D01*
X161930939Y-91732971D02*
X161859510Y-91590114D01*
X161859510Y-91590114D02*
X161788082Y-91304400D01*
X161788082Y-91304400D02*
X161788082Y-90947257D01*
X161788082Y-90947257D02*
X161859510Y-90661542D01*
X161859510Y-90661542D02*
X161930939Y-90518685D01*
X161930939Y-90518685D02*
X162002368Y-90447257D01*
X162002368Y-90447257D02*
X162145225Y-90375828D01*
X164359510Y-90304400D02*
X163073796Y-92232971D01*
X165145225Y-90375828D02*
X165288082Y-90375828D01*
X165288082Y-90375828D02*
X165430939Y-90447257D01*
X165430939Y-90447257D02*
X165502368Y-90518685D01*
X165502368Y-90518685D02*
X165573796Y-90661542D01*
X165573796Y-90661542D02*
X165645225Y-90947257D01*
X165645225Y-90947257D02*
X165645225Y-91304400D01*
X165645225Y-91304400D02*
X165573796Y-91590114D01*
X165573796Y-91590114D02*
X165502368Y-91732971D01*
X165502368Y-91732971D02*
X165430939Y-91804400D01*
X165430939Y-91804400D02*
X165288082Y-91875828D01*
X165288082Y-91875828D02*
X165145225Y-91875828D01*
X165145225Y-91875828D02*
X165002368Y-91804400D01*
X165002368Y-91804400D02*
X164930939Y-91732971D01*
X164930939Y-91732971D02*
X164859510Y-91590114D01*
X164859510Y-91590114D02*
X164788082Y-91304400D01*
X164788082Y-91304400D02*
X164788082Y-90947257D01*
X164788082Y-90947257D02*
X164859510Y-90661542D01*
X164859510Y-90661542D02*
X164930939Y-90518685D01*
X164930939Y-90518685D02*
X165002368Y-90447257D01*
X165002368Y-90447257D02*
X165145225Y-90375828D01*
X167073796Y-91875828D02*
X166216653Y-91875828D01*
X166645224Y-91875828D02*
X166645224Y-90375828D01*
X166645224Y-90375828D02*
X166502367Y-90590114D01*
X166502367Y-90590114D02*
X166359510Y-90732971D01*
X166359510Y-90732971D02*
X166216653Y-90804400D01*
X168788081Y-90304400D02*
X167502367Y-92232971D01*
X169216653Y-90518685D02*
X169288081Y-90447257D01*
X169288081Y-90447257D02*
X169430939Y-90375828D01*
X169430939Y-90375828D02*
X169788081Y-90375828D01*
X169788081Y-90375828D02*
X169930939Y-90447257D01*
X169930939Y-90447257D02*
X170002367Y-90518685D01*
X170002367Y-90518685D02*
X170073796Y-90661542D01*
X170073796Y-90661542D02*
X170073796Y-90804400D01*
X170073796Y-90804400D02*
X170002367Y-91018685D01*
X170002367Y-91018685D02*
X169145224Y-91875828D01*
X169145224Y-91875828D02*
X170073796Y-91875828D01*
X171359510Y-90875828D02*
X171359510Y-91875828D01*
X171002367Y-90304400D02*
X170645224Y-91375828D01*
X170645224Y-91375828D02*
X171573795Y-91375828D01*
D11*
X112780542Y-94718720D02*
X112780542Y-94313958D01*
X112780542Y-94313958D02*
X112351971Y-94273482D01*
X112351971Y-94273482D02*
X112394828Y-94313958D01*
X112394828Y-94313958D02*
X112437685Y-94394911D01*
X112437685Y-94394911D02*
X112437685Y-94597292D01*
X112437685Y-94597292D02*
X112394828Y-94678244D01*
X112394828Y-94678244D02*
X112351971Y-94718720D01*
X112351971Y-94718720D02*
X112266257Y-94759197D01*
X112266257Y-94759197D02*
X112051971Y-94759197D01*
X112051971Y-94759197D02*
X111966257Y-94718720D01*
X111966257Y-94718720D02*
X111923400Y-94678244D01*
X111923400Y-94678244D02*
X111880542Y-94597292D01*
X111880542Y-94597292D02*
X111880542Y-94394911D01*
X111880542Y-94394911D02*
X111923400Y-94313958D01*
X111923400Y-94313958D02*
X111966257Y-94273482D01*
X112480542Y-95042530D02*
X111880542Y-95244911D01*
X111880542Y-95244911D02*
X112480542Y-95447292D01*
X112780542Y-96985387D02*
X112780542Y-97511578D01*
X112780542Y-97511578D02*
X112437685Y-97228244D01*
X112437685Y-97228244D02*
X112437685Y-97349673D01*
X112437685Y-97349673D02*
X112394828Y-97430625D01*
X112394828Y-97430625D02*
X112351971Y-97471101D01*
X112351971Y-97471101D02*
X112266257Y-97511578D01*
X112266257Y-97511578D02*
X112051971Y-97511578D01*
X112051971Y-97511578D02*
X111966257Y-97471101D01*
X111966257Y-97471101D02*
X111923400Y-97430625D01*
X111923400Y-97430625D02*
X111880542Y-97349673D01*
X111880542Y-97349673D02*
X111880542Y-97106816D01*
X111880542Y-97106816D02*
X111923400Y-97025863D01*
X111923400Y-97025863D02*
X111966257Y-96985387D01*
X112480542Y-97794911D02*
X111880542Y-97997292D01*
X111880542Y-97997292D02*
X112480542Y-98199673D01*
X112780542Y-98442530D02*
X112780542Y-98968721D01*
X112780542Y-98968721D02*
X112437685Y-98685387D01*
X112437685Y-98685387D02*
X112437685Y-98806816D01*
X112437685Y-98806816D02*
X112394828Y-98887768D01*
X112394828Y-98887768D02*
X112351971Y-98928244D01*
X112351971Y-98928244D02*
X112266257Y-98968721D01*
X112266257Y-98968721D02*
X112051971Y-98968721D01*
X112051971Y-98968721D02*
X111966257Y-98928244D01*
X111966257Y-98928244D02*
X111923400Y-98887768D01*
X111923400Y-98887768D02*
X111880542Y-98806816D01*
X111880542Y-98806816D02*
X111880542Y-98563959D01*
X111880542Y-98563959D02*
X111923400Y-98483006D01*
X111923400Y-98483006D02*
X111966257Y-98442530D01*
X111923400Y-99940149D02*
X111880542Y-100061578D01*
X111880542Y-100061578D02*
X111880542Y-100263959D01*
X111880542Y-100263959D02*
X111923400Y-100344911D01*
X111923400Y-100344911D02*
X111966257Y-100385387D01*
X111966257Y-100385387D02*
X112051971Y-100425864D01*
X112051971Y-100425864D02*
X112137685Y-100425864D01*
X112137685Y-100425864D02*
X112223400Y-100385387D01*
X112223400Y-100385387D02*
X112266257Y-100344911D01*
X112266257Y-100344911D02*
X112309114Y-100263959D01*
X112309114Y-100263959D02*
X112351971Y-100102054D01*
X112351971Y-100102054D02*
X112394828Y-100021102D01*
X112394828Y-100021102D02*
X112437685Y-99980625D01*
X112437685Y-99980625D02*
X112523400Y-99940149D01*
X112523400Y-99940149D02*
X112609114Y-99940149D01*
X112609114Y-99940149D02*
X112694828Y-99980625D01*
X112694828Y-99980625D02*
X112737685Y-100021102D01*
X112737685Y-100021102D02*
X112780542Y-100102054D01*
X112780542Y-100102054D02*
X112780542Y-100304435D01*
X112780542Y-100304435D02*
X112737685Y-100425864D01*
X111880542Y-100790149D02*
X112780542Y-100790149D01*
X111923400Y-101802054D02*
X111880542Y-101923483D01*
X111880542Y-101923483D02*
X111880542Y-102125864D01*
X111880542Y-102125864D02*
X111923400Y-102206816D01*
X111923400Y-102206816D02*
X111966257Y-102247292D01*
X111966257Y-102247292D02*
X112051971Y-102287769D01*
X112051971Y-102287769D02*
X112137685Y-102287769D01*
X112137685Y-102287769D02*
X112223400Y-102247292D01*
X112223400Y-102247292D02*
X112266257Y-102206816D01*
X112266257Y-102206816D02*
X112309114Y-102125864D01*
X112309114Y-102125864D02*
X112351971Y-101963959D01*
X112351971Y-101963959D02*
X112394828Y-101883007D01*
X112394828Y-101883007D02*
X112437685Y-101842530D01*
X112437685Y-101842530D02*
X112523400Y-101802054D01*
X112523400Y-101802054D02*
X112609114Y-101802054D01*
X112609114Y-101802054D02*
X112694828Y-101842530D01*
X112694828Y-101842530D02*
X112737685Y-101883007D01*
X112737685Y-101883007D02*
X112780542Y-101963959D01*
X112780542Y-101963959D02*
X112780542Y-102166340D01*
X112780542Y-102166340D02*
X112737685Y-102287769D01*
X112780542Y-102813959D02*
X112780542Y-102975864D01*
X112780542Y-102975864D02*
X112737685Y-103056816D01*
X112737685Y-103056816D02*
X112651971Y-103137769D01*
X112651971Y-103137769D02*
X112480542Y-103178245D01*
X112480542Y-103178245D02*
X112180542Y-103178245D01*
X112180542Y-103178245D02*
X112009114Y-103137769D01*
X112009114Y-103137769D02*
X111923400Y-103056816D01*
X111923400Y-103056816D02*
X111880542Y-102975864D01*
X111880542Y-102975864D02*
X111880542Y-102813959D01*
X111880542Y-102813959D02*
X111923400Y-102733007D01*
X111923400Y-102733007D02*
X112009114Y-102652054D01*
X112009114Y-102652054D02*
X112180542Y-102611578D01*
X112180542Y-102611578D02*
X112480542Y-102611578D01*
X112480542Y-102611578D02*
X112651971Y-102652054D01*
X112651971Y-102652054D02*
X112737685Y-102733007D01*
X112737685Y-102733007D02*
X112780542Y-102813959D01*
X111966257Y-104675864D02*
X111923400Y-104635388D01*
X111923400Y-104635388D02*
X111880542Y-104513959D01*
X111880542Y-104513959D02*
X111880542Y-104433007D01*
X111880542Y-104433007D02*
X111923400Y-104311578D01*
X111923400Y-104311578D02*
X112009114Y-104230626D01*
X112009114Y-104230626D02*
X112094828Y-104190149D01*
X112094828Y-104190149D02*
X112266257Y-104149673D01*
X112266257Y-104149673D02*
X112394828Y-104149673D01*
X112394828Y-104149673D02*
X112566257Y-104190149D01*
X112566257Y-104190149D02*
X112651971Y-104230626D01*
X112651971Y-104230626D02*
X112737685Y-104311578D01*
X112737685Y-104311578D02*
X112780542Y-104433007D01*
X112780542Y-104433007D02*
X112780542Y-104513959D01*
X112780542Y-104513959D02*
X112737685Y-104635388D01*
X112737685Y-104635388D02*
X112694828Y-104675864D01*
X111923400Y-104999673D02*
X111880542Y-105121102D01*
X111880542Y-105121102D02*
X111880542Y-105323483D01*
X111880542Y-105323483D02*
X111923400Y-105404435D01*
X111923400Y-105404435D02*
X111966257Y-105444911D01*
X111966257Y-105444911D02*
X112051971Y-105485388D01*
X112051971Y-105485388D02*
X112137685Y-105485388D01*
X112137685Y-105485388D02*
X112223400Y-105444911D01*
X112223400Y-105444911D02*
X112266257Y-105404435D01*
X112266257Y-105404435D02*
X112309114Y-105323483D01*
X112309114Y-105323483D02*
X112351971Y-105161578D01*
X112351971Y-105161578D02*
X112394828Y-105080626D01*
X112394828Y-105080626D02*
X112437685Y-105040149D01*
X112437685Y-105040149D02*
X112523400Y-104999673D01*
X112523400Y-104999673D02*
X112609114Y-104999673D01*
X112609114Y-104999673D02*
X112694828Y-105040149D01*
X112694828Y-105040149D02*
X112737685Y-105080626D01*
X112737685Y-105080626D02*
X112780542Y-105161578D01*
X112780542Y-105161578D02*
X112780542Y-105363959D01*
X112780542Y-105363959D02*
X112737685Y-105485388D01*
X111923400Y-106456816D02*
X111880542Y-106578245D01*
X111880542Y-106578245D02*
X111880542Y-106780626D01*
X111880542Y-106780626D02*
X111923400Y-106861578D01*
X111923400Y-106861578D02*
X111966257Y-106902054D01*
X111966257Y-106902054D02*
X112051971Y-106942531D01*
X112051971Y-106942531D02*
X112137685Y-106942531D01*
X112137685Y-106942531D02*
X112223400Y-106902054D01*
X112223400Y-106902054D02*
X112266257Y-106861578D01*
X112266257Y-106861578D02*
X112309114Y-106780626D01*
X112309114Y-106780626D02*
X112351971Y-106618721D01*
X112351971Y-106618721D02*
X112394828Y-106537769D01*
X112394828Y-106537769D02*
X112437685Y-106497292D01*
X112437685Y-106497292D02*
X112523400Y-106456816D01*
X112523400Y-106456816D02*
X112609114Y-106456816D01*
X112609114Y-106456816D02*
X112694828Y-106497292D01*
X112694828Y-106497292D02*
X112737685Y-106537769D01*
X112737685Y-106537769D02*
X112780542Y-106618721D01*
X112780542Y-106618721D02*
X112780542Y-106821102D01*
X112780542Y-106821102D02*
X112737685Y-106942531D01*
X111966257Y-107792531D02*
X111923400Y-107752055D01*
X111923400Y-107752055D02*
X111880542Y-107630626D01*
X111880542Y-107630626D02*
X111880542Y-107549674D01*
X111880542Y-107549674D02*
X111923400Y-107428245D01*
X111923400Y-107428245D02*
X112009114Y-107347293D01*
X112009114Y-107347293D02*
X112094828Y-107306816D01*
X112094828Y-107306816D02*
X112266257Y-107266340D01*
X112266257Y-107266340D02*
X112394828Y-107266340D01*
X112394828Y-107266340D02*
X112566257Y-107306816D01*
X112566257Y-107306816D02*
X112651971Y-107347293D01*
X112651971Y-107347293D02*
X112737685Y-107428245D01*
X112737685Y-107428245D02*
X112780542Y-107549674D01*
X112780542Y-107549674D02*
X112780542Y-107630626D01*
X112780542Y-107630626D02*
X112737685Y-107752055D01*
X112737685Y-107752055D02*
X112694828Y-107792531D01*
X111880542Y-108156816D02*
X112780542Y-108156816D01*
X111880542Y-108642531D02*
X112394828Y-108278245D01*
X112780542Y-108642531D02*
X112266257Y-108156816D01*
X111880542Y-109654435D02*
X112780542Y-109654435D01*
X111880542Y-110059197D02*
X112780542Y-110059197D01*
X112780542Y-110059197D02*
X111880542Y-110544912D01*
X111880542Y-110544912D02*
X112780542Y-110544912D01*
X112780542Y-110828245D02*
X112780542Y-111313959D01*
X111880542Y-111071102D02*
X112780542Y-111071102D01*
X112737685Y-112690150D02*
X112780542Y-112609197D01*
X112780542Y-112609197D02*
X112780542Y-112487769D01*
X112780542Y-112487769D02*
X112737685Y-112366340D01*
X112737685Y-112366340D02*
X112651971Y-112285388D01*
X112651971Y-112285388D02*
X112566257Y-112244911D01*
X112566257Y-112244911D02*
X112394828Y-112204435D01*
X112394828Y-112204435D02*
X112266257Y-112204435D01*
X112266257Y-112204435D02*
X112094828Y-112244911D01*
X112094828Y-112244911D02*
X112009114Y-112285388D01*
X112009114Y-112285388D02*
X111923400Y-112366340D01*
X111923400Y-112366340D02*
X111880542Y-112487769D01*
X111880542Y-112487769D02*
X111880542Y-112568721D01*
X111880542Y-112568721D02*
X111923400Y-112690150D01*
X111923400Y-112690150D02*
X111966257Y-112730626D01*
X111966257Y-112730626D02*
X112266257Y-112730626D01*
X112266257Y-112730626D02*
X112266257Y-112568721D01*
X111880542Y-113094911D02*
X112780542Y-113094911D01*
X112780542Y-113094911D02*
X111880542Y-113580626D01*
X111880542Y-113580626D02*
X112780542Y-113580626D01*
X111880542Y-113985387D02*
X112780542Y-113985387D01*
X112780542Y-113985387D02*
X112780542Y-114187768D01*
X112780542Y-114187768D02*
X112737685Y-114309197D01*
X112737685Y-114309197D02*
X112651971Y-114390149D01*
X112651971Y-114390149D02*
X112566257Y-114430626D01*
X112566257Y-114430626D02*
X112394828Y-114471102D01*
X112394828Y-114471102D02*
X112266257Y-114471102D01*
X112266257Y-114471102D02*
X112094828Y-114430626D01*
X112094828Y-114430626D02*
X112009114Y-114390149D01*
X112009114Y-114390149D02*
X111923400Y-114309197D01*
X111923400Y-114309197D02*
X111880542Y-114187768D01*
X111880542Y-114187768D02*
X111880542Y-113985387D01*
D12*
X119739580Y-92241666D02*
X119787200Y-92289285D01*
X119787200Y-92289285D02*
X119834819Y-92432142D01*
X119834819Y-92432142D02*
X119834819Y-92527380D01*
X119834819Y-92527380D02*
X119787200Y-92670237D01*
X119787200Y-92670237D02*
X119691961Y-92765475D01*
X119691961Y-92765475D02*
X119596723Y-92813094D01*
X119596723Y-92813094D02*
X119406247Y-92860713D01*
X119406247Y-92860713D02*
X119263390Y-92860713D01*
X119263390Y-92860713D02*
X119072914Y-92813094D01*
X119072914Y-92813094D02*
X118977676Y-92765475D01*
X118977676Y-92765475D02*
X118882438Y-92670237D01*
X118882438Y-92670237D02*
X118834819Y-92527380D01*
X118834819Y-92527380D02*
X118834819Y-92432142D01*
X118834819Y-92432142D02*
X118882438Y-92289285D01*
X118882438Y-92289285D02*
X118930057Y-92241666D01*
X118834819Y-91384523D02*
X118834819Y-91574999D01*
X118834819Y-91574999D02*
X118882438Y-91670237D01*
X118882438Y-91670237D02*
X118930057Y-91717856D01*
X118930057Y-91717856D02*
X119072914Y-91813094D01*
X119072914Y-91813094D02*
X119263390Y-91860713D01*
X119263390Y-91860713D02*
X119644342Y-91860713D01*
X119644342Y-91860713D02*
X119739580Y-91813094D01*
X119739580Y-91813094D02*
X119787200Y-91765475D01*
X119787200Y-91765475D02*
X119834819Y-91670237D01*
X119834819Y-91670237D02*
X119834819Y-91479761D01*
X119834819Y-91479761D02*
X119787200Y-91384523D01*
X119787200Y-91384523D02*
X119739580Y-91336904D01*
X119739580Y-91336904D02*
X119644342Y-91289285D01*
X119644342Y-91289285D02*
X119406247Y-91289285D01*
X119406247Y-91289285D02*
X119311009Y-91336904D01*
X119311009Y-91336904D02*
X119263390Y-91384523D01*
X119263390Y-91384523D02*
X119215771Y-91479761D01*
X119215771Y-91479761D02*
X119215771Y-91670237D01*
X119215771Y-91670237D02*
X119263390Y-91765475D01*
X119263390Y-91765475D02*
X119311009Y-91813094D01*
X119311009Y-91813094D02*
X119406247Y-91860713D01*
X134249580Y-96821666D02*
X134297200Y-96869285D01*
X134297200Y-96869285D02*
X134344819Y-97012142D01*
X134344819Y-97012142D02*
X134344819Y-97107380D01*
X134344819Y-97107380D02*
X134297200Y-97250237D01*
X134297200Y-97250237D02*
X134201961Y-97345475D01*
X134201961Y-97345475D02*
X134106723Y-97393094D01*
X134106723Y-97393094D02*
X133916247Y-97440713D01*
X133916247Y-97440713D02*
X133773390Y-97440713D01*
X133773390Y-97440713D02*
X133582914Y-97393094D01*
X133582914Y-97393094D02*
X133487676Y-97345475D01*
X133487676Y-97345475D02*
X133392438Y-97250237D01*
X133392438Y-97250237D02*
X133344819Y-97107380D01*
X133344819Y-97107380D02*
X133344819Y-97012142D01*
X133344819Y-97012142D02*
X133392438Y-96869285D01*
X133392438Y-96869285D02*
X133440057Y-96821666D01*
X133344819Y-95916904D02*
X133344819Y-96393094D01*
X133344819Y-96393094D02*
X133821009Y-96440713D01*
X133821009Y-96440713D02*
X133773390Y-96393094D01*
X133773390Y-96393094D02*
X133725771Y-96297856D01*
X133725771Y-96297856D02*
X133725771Y-96059761D01*
X133725771Y-96059761D02*
X133773390Y-95964523D01*
X133773390Y-95964523D02*
X133821009Y-95916904D01*
X133821009Y-95916904D02*
X133916247Y-95869285D01*
X133916247Y-95869285D02*
X134154342Y-95869285D01*
X134154342Y-95869285D02*
X134249580Y-95916904D01*
X134249580Y-95916904D02*
X134297200Y-95964523D01*
X134297200Y-95964523D02*
X134344819Y-96059761D01*
X134344819Y-96059761D02*
X134344819Y-96297856D01*
X134344819Y-96297856D02*
X134297200Y-96393094D01*
X134297200Y-96393094D02*
X134249580Y-96440713D01*
X138953095Y-116084819D02*
X138953095Y-116894342D01*
X138953095Y-116894342D02*
X139000714Y-116989580D01*
X139000714Y-116989580D02*
X139048333Y-117037200D01*
X139048333Y-117037200D02*
X139143571Y-117084819D01*
X139143571Y-117084819D02*
X139334047Y-117084819D01*
X139334047Y-117084819D02*
X139429285Y-117037200D01*
X139429285Y-117037200D02*
X139476904Y-116989580D01*
X139476904Y-116989580D02*
X139524523Y-116894342D01*
X139524523Y-116894342D02*
X139524523Y-116084819D01*
X140524523Y-117084819D02*
X139953095Y-117084819D01*
X140238809Y-117084819D02*
X140238809Y-116084819D01*
X140238809Y-116084819D02*
X140143571Y-116227676D01*
X140143571Y-116227676D02*
X140048333Y-116322914D01*
X140048333Y-116322914D02*
X139953095Y-116370533D01*
X128103333Y-109674819D02*
X127770000Y-109198628D01*
X127531905Y-109674819D02*
X127531905Y-108674819D01*
X127531905Y-108674819D02*
X127912857Y-108674819D01*
X127912857Y-108674819D02*
X128008095Y-108722438D01*
X128008095Y-108722438D02*
X128055714Y-108770057D01*
X128055714Y-108770057D02*
X128103333Y-108865295D01*
X128103333Y-108865295D02*
X128103333Y-109008152D01*
X128103333Y-109008152D02*
X128055714Y-109103390D01*
X128055714Y-109103390D02*
X128008095Y-109151009D01*
X128008095Y-109151009D02*
X127912857Y-109198628D01*
X127912857Y-109198628D02*
X127531905Y-109198628D01*
X128960476Y-108674819D02*
X128770000Y-108674819D01*
X128770000Y-108674819D02*
X128674762Y-108722438D01*
X128674762Y-108722438D02*
X128627143Y-108770057D01*
X128627143Y-108770057D02*
X128531905Y-108912914D01*
X128531905Y-108912914D02*
X128484286Y-109103390D01*
X128484286Y-109103390D02*
X128484286Y-109484342D01*
X128484286Y-109484342D02*
X128531905Y-109579580D01*
X128531905Y-109579580D02*
X128579524Y-109627200D01*
X128579524Y-109627200D02*
X128674762Y-109674819D01*
X128674762Y-109674819D02*
X128865238Y-109674819D01*
X128865238Y-109674819D02*
X128960476Y-109627200D01*
X128960476Y-109627200D02*
X129008095Y-109579580D01*
X129008095Y-109579580D02*
X129055714Y-109484342D01*
X129055714Y-109484342D02*
X129055714Y-109246247D01*
X129055714Y-109246247D02*
X129008095Y-109151009D01*
X129008095Y-109151009D02*
X128960476Y-109103390D01*
X128960476Y-109103390D02*
X128865238Y-109055771D01*
X128865238Y-109055771D02*
X128674762Y-109055771D01*
X128674762Y-109055771D02*
X128579524Y-109103390D01*
X128579524Y-109103390D02*
X128531905Y-109151009D01*
X128531905Y-109151009D02*
X128484286Y-109246247D01*
X130008333Y-109674819D02*
X129675000Y-109198628D01*
X129436905Y-109674819D02*
X129436905Y-108674819D01*
X129436905Y-108674819D02*
X129817857Y-108674819D01*
X129817857Y-108674819D02*
X129913095Y-108722438D01*
X129913095Y-108722438D02*
X129960714Y-108770057D01*
X129960714Y-108770057D02*
X130008333Y-108865295D01*
X130008333Y-108865295D02*
X130008333Y-109008152D01*
X130008333Y-109008152D02*
X129960714Y-109103390D01*
X129960714Y-109103390D02*
X129913095Y-109151009D01*
X129913095Y-109151009D02*
X129817857Y-109198628D01*
X129817857Y-109198628D02*
X129436905Y-109198628D01*
X130913095Y-108674819D02*
X130436905Y-108674819D01*
X130436905Y-108674819D02*
X130389286Y-109151009D01*
X130389286Y-109151009D02*
X130436905Y-109103390D01*
X130436905Y-109103390D02*
X130532143Y-109055771D01*
X130532143Y-109055771D02*
X130770238Y-109055771D01*
X130770238Y-109055771D02*
X130865476Y-109103390D01*
X130865476Y-109103390D02*
X130913095Y-109151009D01*
X130913095Y-109151009D02*
X130960714Y-109246247D01*
X130960714Y-109246247D02*
X130960714Y-109484342D01*
X130960714Y-109484342D02*
X130913095Y-109579580D01*
X130913095Y-109579580D02*
X130865476Y-109627200D01*
X130865476Y-109627200D02*
X130770238Y-109674819D01*
X130770238Y-109674819D02*
X130532143Y-109674819D01*
X130532143Y-109674819D02*
X130436905Y-109627200D01*
X130436905Y-109627200D02*
X130389286Y-109579580D01*
X159218333Y-102689819D02*
X158885000Y-102213628D01*
X158646905Y-102689819D02*
X158646905Y-101689819D01*
X158646905Y-101689819D02*
X159027857Y-101689819D01*
X159027857Y-101689819D02*
X159123095Y-101737438D01*
X159123095Y-101737438D02*
X159170714Y-101785057D01*
X159170714Y-101785057D02*
X159218333Y-101880295D01*
X159218333Y-101880295D02*
X159218333Y-102023152D01*
X159218333Y-102023152D02*
X159170714Y-102118390D01*
X159170714Y-102118390D02*
X159123095Y-102166009D01*
X159123095Y-102166009D02*
X159027857Y-102213628D01*
X159027857Y-102213628D02*
X158646905Y-102213628D01*
X160075476Y-102023152D02*
X160075476Y-102689819D01*
X159837381Y-101642200D02*
X159599286Y-102356485D01*
X159599286Y-102356485D02*
X160218333Y-102356485D01*
X120118333Y-102944819D02*
X119785000Y-102468628D01*
X119546905Y-102944819D02*
X119546905Y-101944819D01*
X119546905Y-101944819D02*
X119927857Y-101944819D01*
X119927857Y-101944819D02*
X120023095Y-101992438D01*
X120023095Y-101992438D02*
X120070714Y-102040057D01*
X120070714Y-102040057D02*
X120118333Y-102135295D01*
X120118333Y-102135295D02*
X120118333Y-102278152D01*
X120118333Y-102278152D02*
X120070714Y-102373390D01*
X120070714Y-102373390D02*
X120023095Y-102421009D01*
X120023095Y-102421009D02*
X119927857Y-102468628D01*
X119927857Y-102468628D02*
X119546905Y-102468628D01*
X120451667Y-101944819D02*
X121070714Y-101944819D01*
X121070714Y-101944819D02*
X120737381Y-102325771D01*
X120737381Y-102325771D02*
X120880238Y-102325771D01*
X120880238Y-102325771D02*
X120975476Y-102373390D01*
X120975476Y-102373390D02*
X121023095Y-102421009D01*
X121023095Y-102421009D02*
X121070714Y-102516247D01*
X121070714Y-102516247D02*
X121070714Y-102754342D01*
X121070714Y-102754342D02*
X121023095Y-102849580D01*
X121023095Y-102849580D02*
X120975476Y-102897200D01*
X120975476Y-102897200D02*
X120880238Y-102944819D01*
X120880238Y-102944819D02*
X120594524Y-102944819D01*
X120594524Y-102944819D02*
X120499286Y-102897200D01*
X120499286Y-102897200D02*
X120451667Y-102849580D01*
X120118333Y-109039819D02*
X119785000Y-108563628D01*
X119546905Y-109039819D02*
X119546905Y-108039819D01*
X119546905Y-108039819D02*
X119927857Y-108039819D01*
X119927857Y-108039819D02*
X120023095Y-108087438D01*
X120023095Y-108087438D02*
X120070714Y-108135057D01*
X120070714Y-108135057D02*
X120118333Y-108230295D01*
X120118333Y-108230295D02*
X120118333Y-108373152D01*
X120118333Y-108373152D02*
X120070714Y-108468390D01*
X120070714Y-108468390D02*
X120023095Y-108516009D01*
X120023095Y-108516009D02*
X119927857Y-108563628D01*
X119927857Y-108563628D02*
X119546905Y-108563628D01*
X120499286Y-108135057D02*
X120546905Y-108087438D01*
X120546905Y-108087438D02*
X120642143Y-108039819D01*
X120642143Y-108039819D02*
X120880238Y-108039819D01*
X120880238Y-108039819D02*
X120975476Y-108087438D01*
X120975476Y-108087438D02*
X121023095Y-108135057D01*
X121023095Y-108135057D02*
X121070714Y-108230295D01*
X121070714Y-108230295D02*
X121070714Y-108325533D01*
X121070714Y-108325533D02*
X121023095Y-108468390D01*
X121023095Y-108468390D02*
X120451667Y-109039819D01*
X120451667Y-109039819D02*
X121070714Y-109039819D01*
X120288333Y-115389819D02*
X119955000Y-114913628D01*
X119716905Y-115389819D02*
X119716905Y-114389819D01*
X119716905Y-114389819D02*
X120097857Y-114389819D01*
X120097857Y-114389819D02*
X120193095Y-114437438D01*
X120193095Y-114437438D02*
X120240714Y-114485057D01*
X120240714Y-114485057D02*
X120288333Y-114580295D01*
X120288333Y-114580295D02*
X120288333Y-114723152D01*
X120288333Y-114723152D02*
X120240714Y-114818390D01*
X120240714Y-114818390D02*
X120193095Y-114866009D01*
X120193095Y-114866009D02*
X120097857Y-114913628D01*
X120097857Y-114913628D02*
X119716905Y-114913628D01*
X121240714Y-115389819D02*
X120669286Y-115389819D01*
X120955000Y-115389819D02*
X120955000Y-114389819D01*
X120955000Y-114389819D02*
X120859762Y-114532676D01*
X120859762Y-114532676D02*
X120764524Y-114627914D01*
X120764524Y-114627914D02*
X120669286Y-114675533D01*
X124928333Y-115389819D02*
X124595000Y-114913628D01*
X124356905Y-115389819D02*
X124356905Y-114389819D01*
X124356905Y-114389819D02*
X124737857Y-114389819D01*
X124737857Y-114389819D02*
X124833095Y-114437438D01*
X124833095Y-114437438D02*
X124880714Y-114485057D01*
X124880714Y-114485057D02*
X124928333Y-114580295D01*
X124928333Y-114580295D02*
X124928333Y-114723152D01*
X124928333Y-114723152D02*
X124880714Y-114818390D01*
X124880714Y-114818390D02*
X124833095Y-114866009D01*
X124833095Y-114866009D02*
X124737857Y-114913628D01*
X124737857Y-114913628D02*
X124356905Y-114913628D01*
X125880714Y-115389819D02*
X125309286Y-115389819D01*
X125595000Y-115389819D02*
X125595000Y-114389819D01*
X125595000Y-114389819D02*
X125499762Y-114532676D01*
X125499762Y-114532676D02*
X125404524Y-114627914D01*
X125404524Y-114627914D02*
X125309286Y-114675533D01*
X146948628Y-99001190D02*
X147424819Y-99001190D01*
X146424819Y-99334523D02*
X146948628Y-99001190D01*
X146948628Y-99001190D02*
X146424819Y-98667857D01*
X147424819Y-97810714D02*
X147424819Y-98382142D01*
X147424819Y-98096428D02*
X146424819Y-98096428D01*
X146424819Y-98096428D02*
X146567676Y-98191666D01*
X146567676Y-98191666D02*
X146662914Y-98286904D01*
X146662914Y-98286904D02*
X146710533Y-98382142D01*
X152908095Y-103629819D02*
X152908095Y-104439342D01*
X152908095Y-104439342D02*
X152955714Y-104534580D01*
X152955714Y-104534580D02*
X153003333Y-104582200D01*
X153003333Y-104582200D02*
X153098571Y-104629819D01*
X153098571Y-104629819D02*
X153289047Y-104629819D01*
X153289047Y-104629819D02*
X153384285Y-104582200D01*
X153384285Y-104582200D02*
X153431904Y-104534580D01*
X153431904Y-104534580D02*
X153479523Y-104439342D01*
X153479523Y-104439342D02*
X153479523Y-103629819D01*
X153908095Y-103725057D02*
X153955714Y-103677438D01*
X153955714Y-103677438D02*
X154050952Y-103629819D01*
X154050952Y-103629819D02*
X154289047Y-103629819D01*
X154289047Y-103629819D02*
X154384285Y-103677438D01*
X154384285Y-103677438D02*
X154431904Y-103725057D01*
X154431904Y-103725057D02*
X154479523Y-103820295D01*
X154479523Y-103820295D02*
X154479523Y-103915533D01*
X154479523Y-103915533D02*
X154431904Y-104058390D01*
X154431904Y-104058390D02*
X153860476Y-104629819D01*
X153860476Y-104629819D02*
X154479523Y-104629819D01*
X114481666Y-92234819D02*
X114481666Y-92949104D01*
X114481666Y-92949104D02*
X114434047Y-93091961D01*
X114434047Y-93091961D02*
X114338809Y-93187200D01*
X114338809Y-93187200D02*
X114195952Y-93234819D01*
X114195952Y-93234819D02*
X114100714Y-93234819D01*
X115386428Y-92568152D02*
X115386428Y-93234819D01*
X115148333Y-92187200D02*
X114910238Y-92901485D01*
X114910238Y-92901485D02*
X115529285Y-92901485D01*
X161591666Y-108884819D02*
X161591666Y-109599104D01*
X161591666Y-109599104D02*
X161544047Y-109741961D01*
X161544047Y-109741961D02*
X161448809Y-109837200D01*
X161448809Y-109837200D02*
X161305952Y-109884819D01*
X161305952Y-109884819D02*
X161210714Y-109884819D01*
X162020238Y-108980057D02*
X162067857Y-108932438D01*
X162067857Y-108932438D02*
X162163095Y-108884819D01*
X162163095Y-108884819D02*
X162401190Y-108884819D01*
X162401190Y-108884819D02*
X162496428Y-108932438D01*
X162496428Y-108932438D02*
X162544047Y-108980057D01*
X162544047Y-108980057D02*
X162591666Y-109075295D01*
X162591666Y-109075295D02*
X162591666Y-109170533D01*
X162591666Y-109170533D02*
X162544047Y-109313390D01*
X162544047Y-109313390D02*
X161972619Y-109884819D01*
X161972619Y-109884819D02*
X162591666Y-109884819D01*
X173559819Y-100663333D02*
X174274104Y-100663333D01*
X174274104Y-100663333D02*
X174416961Y-100710952D01*
X174416961Y-100710952D02*
X174512200Y-100806190D01*
X174512200Y-100806190D02*
X174559819Y-100949047D01*
X174559819Y-100949047D02*
X174559819Y-101044285D01*
X174559819Y-99663333D02*
X174559819Y-100234761D01*
X174559819Y-99949047D02*
X173559819Y-99949047D01*
X173559819Y-99949047D02*
X173702676Y-100044285D01*
X173702676Y-100044285D02*
X173797914Y-100139523D01*
X173797914Y-100139523D02*
X173845533Y-100234761D01*
X124236905Y-102689819D02*
X124236905Y-101689819D01*
X124236905Y-101689819D02*
X124475000Y-101689819D01*
X124475000Y-101689819D02*
X124617857Y-101737438D01*
X124617857Y-101737438D02*
X124713095Y-101832676D01*
X124713095Y-101832676D02*
X124760714Y-101927914D01*
X124760714Y-101927914D02*
X124808333Y-102118390D01*
X124808333Y-102118390D02*
X124808333Y-102261247D01*
X124808333Y-102261247D02*
X124760714Y-102451723D01*
X124760714Y-102451723D02*
X124713095Y-102546961D01*
X124713095Y-102546961D02*
X124617857Y-102642200D01*
X124617857Y-102642200D02*
X124475000Y-102689819D01*
X124475000Y-102689819D02*
X124236905Y-102689819D01*
X125189286Y-101785057D02*
X125236905Y-101737438D01*
X125236905Y-101737438D02*
X125332143Y-101689819D01*
X125332143Y-101689819D02*
X125570238Y-101689819D01*
X125570238Y-101689819D02*
X125665476Y-101737438D01*
X125665476Y-101737438D02*
X125713095Y-101785057D01*
X125713095Y-101785057D02*
X125760714Y-101880295D01*
X125760714Y-101880295D02*
X125760714Y-101975533D01*
X125760714Y-101975533D02*
X125713095Y-102118390D01*
X125713095Y-102118390D02*
X125141667Y-102689819D01*
X125141667Y-102689819D02*
X125760714Y-102689819D01*
X124236905Y-108919819D02*
X124236905Y-107919819D01*
X124236905Y-107919819D02*
X124475000Y-107919819D01*
X124475000Y-107919819D02*
X124617857Y-107967438D01*
X124617857Y-107967438D02*
X124713095Y-108062676D01*
X124713095Y-108062676D02*
X124760714Y-108157914D01*
X124760714Y-108157914D02*
X124808333Y-108348390D01*
X124808333Y-108348390D02*
X124808333Y-108491247D01*
X124808333Y-108491247D02*
X124760714Y-108681723D01*
X124760714Y-108681723D02*
X124713095Y-108776961D01*
X124713095Y-108776961D02*
X124617857Y-108872200D01*
X124617857Y-108872200D02*
X124475000Y-108919819D01*
X124475000Y-108919819D02*
X124236905Y-108919819D01*
X125760714Y-108919819D02*
X125189286Y-108919819D01*
X125475000Y-108919819D02*
X125475000Y-107919819D01*
X125475000Y-107919819D02*
X125379762Y-108062676D01*
X125379762Y-108062676D02*
X125284524Y-108157914D01*
X125284524Y-108157914D02*
X125189286Y-108205533D01*
X159218333Y-100054580D02*
X159170714Y-100102200D01*
X159170714Y-100102200D02*
X159027857Y-100149819D01*
X159027857Y-100149819D02*
X158932619Y-100149819D01*
X158932619Y-100149819D02*
X158789762Y-100102200D01*
X158789762Y-100102200D02*
X158694524Y-100006961D01*
X158694524Y-100006961D02*
X158646905Y-99911723D01*
X158646905Y-99911723D02*
X158599286Y-99721247D01*
X158599286Y-99721247D02*
X158599286Y-99578390D01*
X158599286Y-99578390D02*
X158646905Y-99387914D01*
X158646905Y-99387914D02*
X158694524Y-99292676D01*
X158694524Y-99292676D02*
X158789762Y-99197438D01*
X158789762Y-99197438D02*
X158932619Y-99149819D01*
X158932619Y-99149819D02*
X159027857Y-99149819D01*
X159027857Y-99149819D02*
X159170714Y-99197438D01*
X159170714Y-99197438D02*
X159218333Y-99245057D01*
X160075476Y-99483152D02*
X160075476Y-100149819D01*
X159837381Y-99102200D02*
X159599286Y-99816485D01*
X159599286Y-99816485D02*
X160218333Y-99816485D01*
X130008333Y-115069580D02*
X129960714Y-115117200D01*
X129960714Y-115117200D02*
X129817857Y-115164819D01*
X129817857Y-115164819D02*
X129722619Y-115164819D01*
X129722619Y-115164819D02*
X129579762Y-115117200D01*
X129579762Y-115117200D02*
X129484524Y-115021961D01*
X129484524Y-115021961D02*
X129436905Y-114926723D01*
X129436905Y-114926723D02*
X129389286Y-114736247D01*
X129389286Y-114736247D02*
X129389286Y-114593390D01*
X129389286Y-114593390D02*
X129436905Y-114402914D01*
X129436905Y-114402914D02*
X129484524Y-114307676D01*
X129484524Y-114307676D02*
X129579762Y-114212438D01*
X129579762Y-114212438D02*
X129722619Y-114164819D01*
X129722619Y-114164819D02*
X129817857Y-114164819D01*
X129817857Y-114164819D02*
X129960714Y-114212438D01*
X129960714Y-114212438D02*
X130008333Y-114260057D01*
X130341667Y-114164819D02*
X130960714Y-114164819D01*
X130960714Y-114164819D02*
X130627381Y-114545771D01*
X130627381Y-114545771D02*
X130770238Y-114545771D01*
X130770238Y-114545771D02*
X130865476Y-114593390D01*
X130865476Y-114593390D02*
X130913095Y-114641009D01*
X130913095Y-114641009D02*
X130960714Y-114736247D01*
X130960714Y-114736247D02*
X130960714Y-114974342D01*
X130960714Y-114974342D02*
X130913095Y-115069580D01*
X130913095Y-115069580D02*
X130865476Y-115117200D01*
X130865476Y-115117200D02*
X130770238Y-115164819D01*
X130770238Y-115164819D02*
X130484524Y-115164819D01*
X130484524Y-115164819D02*
X130389286Y-115117200D01*
X130389286Y-115117200D02*
X130341667Y-115069580D01*
X159218333Y-94974580D02*
X159170714Y-95022200D01*
X159170714Y-95022200D02*
X159027857Y-95069819D01*
X159027857Y-95069819D02*
X158932619Y-95069819D01*
X158932619Y-95069819D02*
X158789762Y-95022200D01*
X158789762Y-95022200D02*
X158694524Y-94926961D01*
X158694524Y-94926961D02*
X158646905Y-94831723D01*
X158646905Y-94831723D02*
X158599286Y-94641247D01*
X158599286Y-94641247D02*
X158599286Y-94498390D01*
X158599286Y-94498390D02*
X158646905Y-94307914D01*
X158646905Y-94307914D02*
X158694524Y-94212676D01*
X158694524Y-94212676D02*
X158789762Y-94117438D01*
X158789762Y-94117438D02*
X158932619Y-94069819D01*
X158932619Y-94069819D02*
X159027857Y-94069819D01*
X159027857Y-94069819D02*
X159170714Y-94117438D01*
X159170714Y-94117438D02*
X159218333Y-94165057D01*
X159599286Y-94165057D02*
X159646905Y-94117438D01*
X159646905Y-94117438D02*
X159742143Y-94069819D01*
X159742143Y-94069819D02*
X159980238Y-94069819D01*
X159980238Y-94069819D02*
X160075476Y-94117438D01*
X160075476Y-94117438D02*
X160123095Y-94165057D01*
X160123095Y-94165057D02*
X160170714Y-94260295D01*
X160170714Y-94260295D02*
X160170714Y-94355533D01*
X160170714Y-94355533D02*
X160123095Y-94498390D01*
X160123095Y-94498390D02*
X159551667Y-95069819D01*
X159551667Y-95069819D02*
X160170714Y-95069819D01*
X159218333Y-97514580D02*
X159170714Y-97562200D01*
X159170714Y-97562200D02*
X159027857Y-97609819D01*
X159027857Y-97609819D02*
X158932619Y-97609819D01*
X158932619Y-97609819D02*
X158789762Y-97562200D01*
X158789762Y-97562200D02*
X158694524Y-97466961D01*
X158694524Y-97466961D02*
X158646905Y-97371723D01*
X158646905Y-97371723D02*
X158599286Y-97181247D01*
X158599286Y-97181247D02*
X158599286Y-97038390D01*
X158599286Y-97038390D02*
X158646905Y-96847914D01*
X158646905Y-96847914D02*
X158694524Y-96752676D01*
X158694524Y-96752676D02*
X158789762Y-96657438D01*
X158789762Y-96657438D02*
X158932619Y-96609819D01*
X158932619Y-96609819D02*
X159027857Y-96609819D01*
X159027857Y-96609819D02*
X159170714Y-96657438D01*
X159170714Y-96657438D02*
X159218333Y-96705057D01*
X160170714Y-97609819D02*
X159599286Y-97609819D01*
X159885000Y-97609819D02*
X159885000Y-96609819D01*
X159885000Y-96609819D02*
X159789762Y-96752676D01*
X159789762Y-96752676D02*
X159694524Y-96847914D01*
X159694524Y-96847914D02*
X159599286Y-96895533D01*
D13*
X123767500Y-92217500D02*
X123767500Y-93005000D01*
X124161250Y-92611250D02*
X123373750Y-92611250D01*
X119574437Y-93245000D02*
X120860000Y-93245000D01*
X125330000Y-94309437D02*
X125330000Y-100065000D01*
X124265563Y-93245000D02*
X125330000Y-94309437D01*
X119574437Y-93245000D02*
X118510000Y-94309437D01*
X124265563Y-93245000D02*
X122980000Y-93245000D01*
X118510000Y-100065000D02*
X120860000Y-100065000D01*
X125330000Y-100065000D02*
X122980000Y-100065000D01*
X118510000Y-94309437D02*
X118510000Y-100065000D01*
X131387500Y-92217500D02*
X131387500Y-93005000D01*
X131781250Y-92611250D02*
X130993750Y-92611250D01*
X127194437Y-93245000D02*
X128480000Y-93245000D01*
X132950000Y-94309437D02*
X132950000Y-100065000D01*
X131885563Y-93245000D02*
X132950000Y-94309437D01*
X127194437Y-93245000D02*
X126130000Y-94309437D01*
X131885563Y-93245000D02*
X130600000Y-93245000D01*
X126130000Y-100065000D02*
X128480000Y-100065000D01*
X132950000Y-100065000D02*
X130600000Y-100065000D01*
X126130000Y-94309437D02*
X126130000Y-100065000D01*
X140715000Y-115630000D02*
G75*
G03*
X138715000Y-115630000I-1000000J0D01*
G01*
X137465000Y-92650000D02*
X137465000Y-115630000D01*
X140715000Y-115630000D02*
X141965000Y-115630000D01*
X141965000Y-115630000D02*
X141965000Y-92650000D01*
X137465000Y-115630000D02*
X138715000Y-115630000D01*
X141965000Y-92650000D02*
X137465000Y-92650000D01*
X120227936Y-111360000D02*
X120682064Y-111360000D01*
X120227936Y-109890000D02*
X120682064Y-109890000D01*
X124905436Y-111360000D02*
X125359564Y-111360000D01*
X124905436Y-109890000D02*
X125359564Y-109890000D01*
X155982936Y-102970000D02*
X156437064Y-102970000D01*
X155982936Y-101500000D02*
X156437064Y-101500000D01*
X120057936Y-103405000D02*
X120512064Y-103405000D01*
X120057936Y-104875000D02*
X120512064Y-104875000D01*
X120057936Y-107550000D02*
X120512064Y-107550000D01*
X120057936Y-106080000D02*
X120512064Y-106080000D01*
X120227936Y-112430000D02*
X120682064Y-112430000D01*
X120227936Y-113900000D02*
X120682064Y-113900000D01*
X124867936Y-112430000D02*
X125322064Y-112430000D01*
X124867936Y-113900000D02*
X125322064Y-113900000D01*
X147970000Y-101650000D02*
G75*
G03*
X153020000Y-101650000I2525000J0D01*
G01*
X153020000Y-95400000D02*
G75*
G03*
X147970000Y-95400000I-2525000J0D01*
G01*
X147970000Y-101650000D02*
X147970000Y-95400000D01*
X153020000Y-101650000D02*
X153020000Y-95400000D01*
X155060000Y-105360000D02*
X153410000Y-105360000D01*
X149760000Y-105360000D02*
X149760000Y-115640000D01*
X155060000Y-115640000D02*
X155060000Y-105360000D01*
X151410000Y-105360000D02*
X149760000Y-105360000D01*
X149760000Y-115640000D02*
X155060000Y-115640000D01*
X151410000Y-105360000D02*
G75*
G03*
X153410000Y-105360000I1000000J0D01*
G01*
X113485000Y-96380000D02*
X116145000Y-96380000D01*
X113485000Y-114220000D02*
X116145000Y-114220000D01*
X113485000Y-96380000D02*
X113485000Y-114220000D01*
X113485000Y-95110000D02*
X113485000Y-93780000D01*
X116145000Y-96380000D02*
X116145000Y-114220000D01*
X113485000Y-93780000D02*
X114815000Y-93780000D01*
X163255000Y-113030000D02*
X163255000Y-115630000D01*
X160595000Y-110430000D02*
X161925000Y-110430000D01*
X160595000Y-113030000D02*
X163255000Y-113030000D01*
X160595000Y-113030000D02*
X160595000Y-115630000D01*
X160595000Y-115630000D02*
X163255000Y-115630000D01*
X160595000Y-111760000D02*
X160595000Y-110430000D01*
X163355000Y-108580000D02*
X163105000Y-108080000D01*
X168255000Y-108580000D02*
X173305000Y-108580000D01*
X163105000Y-108080000D02*
X168505000Y-108080000D01*
X161655000Y-108080000D02*
X161355000Y-108580000D01*
X173305000Y-92680000D02*
X160705000Y-92680000D01*
X168505000Y-108080000D02*
X168255000Y-108580000D01*
X173305000Y-108580000D02*
X173305000Y-92680000D01*
X160705000Y-92680000D02*
X160705000Y-108080000D01*
X161355000Y-108580000D02*
X163355000Y-108580000D01*
X160705000Y-108080000D02*
X161655000Y-108080000D01*
X126835000Y-105100000D02*
X126835000Y-103180000D01*
X123975000Y-105100000D02*
X126835000Y-105100000D01*
X126835000Y-103180000D02*
X123975000Y-103180000D01*
X126835000Y-105855000D02*
X123975000Y-105855000D01*
X123975000Y-107775000D02*
X126835000Y-107775000D01*
X126835000Y-107775000D02*
X126835000Y-105855000D01*
X155948748Y-100430000D02*
X156471252Y-100430000D01*
X155948748Y-98960000D02*
X156471252Y-98960000D01*
X130436252Y-113765000D02*
X129913748Y-113765000D01*
X130436252Y-112295000D02*
X129913748Y-112295000D01*
X155948748Y-95350000D02*
X156471252Y-95350000D01*
X155948748Y-93880000D02*
X156471252Y-93880000D01*
X155948748Y-96420000D02*
X156471252Y-96420000D01*
X155948748Y-97890000D02*
X156471252Y-97890000D01*
%LPC*%
D14*
X168910000Y-113030000D03*
D15*
X121920000Y-93855000D03*
X121920000Y-99455000D03*
X129540000Y-93855000D03*
X129540000Y-99455000D03*
D16*
X135905000Y-114300000D03*
X135905000Y-111760000D03*
X135905000Y-109220000D03*
X135905000Y-106680000D03*
X135905000Y-104140000D03*
X135905000Y-101600000D03*
X135905000Y-99060000D03*
X135905000Y-96520000D03*
X135905000Y-93980000D03*
X143525000Y-93980000D03*
X143525000Y-96520000D03*
X143525000Y-99060000D03*
X143525000Y-101600000D03*
X143525000Y-104140000D03*
X143525000Y-106680000D03*
X143525000Y-109220000D03*
X143525000Y-111760000D03*
D17*
X143525000Y-114300000D03*
D18*
X121455000Y-110625000D03*
X119455000Y-110625000D03*
X126132500Y-110625000D03*
X124132500Y-110625000D03*
X157210000Y-102235000D03*
X155210000Y-102235000D03*
X119285000Y-104140000D03*
X121285000Y-104140000D03*
X121285000Y-106815000D03*
X119285000Y-106815000D03*
X119455000Y-113165000D03*
X121455000Y-113165000D03*
X124095000Y-113165000D03*
X126095000Y-113165000D03*
D19*
X150495000Y-96085000D03*
X150495000Y-100965000D03*
D20*
X148600000Y-106690000D03*
D21*
X148600000Y-109230000D03*
X148600000Y-111770000D03*
X148600000Y-114310000D03*
X156220000Y-114310000D03*
X156220000Y-111770000D03*
X156220000Y-109230000D03*
X156220000Y-106690000D03*
D22*
X114815000Y-95110000D03*
D23*
X114815000Y-97650000D03*
X114815000Y-100190000D03*
X114815000Y-102730000D03*
X114815000Y-105270000D03*
X114815000Y-107810000D03*
X114815000Y-110350000D03*
X114815000Y-112890000D03*
X161925000Y-114300000D03*
D22*
X161925000Y-111760000D03*
D24*
X167005000Y-95330000D03*
D25*
X167005000Y-100330000D03*
X167005000Y-105330000D03*
D26*
X123950000Y-104140000D03*
X126000000Y-104140000D03*
X126000000Y-106815000D03*
X123950000Y-106815000D03*
D27*
X157247500Y-99695000D03*
X155172500Y-99695000D03*
D28*
X131212500Y-113030000D03*
X129137500Y-113030000D03*
D27*
X157247500Y-94615000D03*
X155172500Y-94615000D03*
X155172500Y-97155000D03*
X157247500Y-97155000D03*
%LPD*%
M02*
