G04 #@! TF.GenerationSoftware,KiCad,Pcbnew,7.0.8*
G04 #@! TF.CreationDate,2024-01-10T12:44:36+01:00*
G04 #@! TF.ProjectId,CAN_board,43414e5f-626f-4617-9264-2e6b69636164,rev?*
G04 #@! TF.SameCoordinates,Original*
G04 #@! TF.FileFunction,Copper,L1,Top*
G04 #@! TF.FilePolarity,Positive*
%FSLAX46Y46*%
G04 Gerber Fmt 4.6, Leading zero omitted, Abs format (unit mm)*
G04 Created by KiCad (PCBNEW 7.0.8) date 2024-01-10 12:44:36*
%MOMM*%
%LPD*%
G01*
G04 APERTURE LIST*
G04 Aperture macros list*
%AMRoundRect*
0 Rectangle with rounded corners*
0 $1 Rounding radius*
0 $2 $3 $4 $5 $6 $7 $8 $9 X,Y pos of 4 corners*
0 Add a 4 corners polygon primitive as box body*
4,1,4,$2,$3,$4,$5,$6,$7,$8,$9,$2,$3,0*
0 Add four circle primitives for the rounded corners*
1,1,$1+$1,$2,$3*
1,1,$1+$1,$4,$5*
1,1,$1+$1,$6,$7*
1,1,$1+$1,$8,$9*
0 Add four rect primitives between the rounded corners*
20,1,$1+$1,$2,$3,$4,$5,0*
20,1,$1+$1,$4,$5,$6,$7,0*
20,1,$1+$1,$6,$7,$8,$9,0*
20,1,$1+$1,$8,$9,$2,$3,0*%
G04 Aperture macros list end*
G04 #@! TA.AperFunction,ComponentPad*
%ADD10C,5.600000*%
G04 #@! TD*
G04 #@! TA.AperFunction,SMDPad,CuDef*
%ADD11RoundRect,0.250000X-0.550000X1.500000X-0.550000X-1.500000X0.550000X-1.500000X0.550000X1.500000X0*%
G04 #@! TD*
G04 #@! TA.AperFunction,ComponentPad*
%ADD12O,2.400000X1.600000*%
G04 #@! TD*
G04 #@! TA.AperFunction,ComponentPad*
%ADD13R,2.400000X1.600000*%
G04 #@! TD*
G04 #@! TA.AperFunction,SMDPad,CuDef*
%ADD14RoundRect,0.250000X-0.350000X-0.450000X0.350000X-0.450000X0.350000X0.450000X-0.350000X0.450000X0*%
G04 #@! TD*
G04 #@! TA.AperFunction,ComponentPad*
%ADD15C,1.500000*%
G04 #@! TD*
G04 #@! TA.AperFunction,ComponentPad*
%ADD16R,1.600000X1.600000*%
G04 #@! TD*
G04 #@! TA.AperFunction,ComponentPad*
%ADD17O,1.600000X1.600000*%
G04 #@! TD*
G04 #@! TA.AperFunction,ComponentPad*
%ADD18R,1.700000X1.700000*%
G04 #@! TD*
G04 #@! TA.AperFunction,ComponentPad*
%ADD19O,1.700000X1.700000*%
G04 #@! TD*
G04 #@! TA.AperFunction,ComponentPad*
%ADD20R,3.960000X1.980000*%
G04 #@! TD*
G04 #@! TA.AperFunction,ComponentPad*
%ADD21O,3.960000X1.980000*%
G04 #@! TD*
G04 #@! TA.AperFunction,SMDPad,CuDef*
%ADD22RoundRect,0.250000X0.325000X0.450000X-0.325000X0.450000X-0.325000X-0.450000X0.325000X-0.450000X0*%
G04 #@! TD*
G04 #@! TA.AperFunction,SMDPad,CuDef*
%ADD23RoundRect,0.250000X-0.337500X-0.475000X0.337500X-0.475000X0.337500X0.475000X-0.337500X0.475000X0*%
G04 #@! TD*
G04 #@! TA.AperFunction,SMDPad,CuDef*
%ADD24RoundRect,0.250000X0.337500X0.475000X-0.337500X0.475000X-0.337500X-0.475000X0.337500X-0.475000X0*%
G04 #@! TD*
G04 #@! TA.AperFunction,ViaPad*
%ADD25C,0.800000*%
G04 #@! TD*
G04 #@! TA.AperFunction,Conductor*
%ADD26C,0.250000*%
G04 #@! TD*
G04 #@! TA.AperFunction,Conductor*
%ADD27C,0.500000*%
G04 #@! TD*
G04 APERTURE END LIST*
D10*
X168910000Y-113030000D03*
D11*
X121920000Y-93855000D03*
X121920000Y-99455000D03*
X129540000Y-93855000D03*
X129540000Y-99455000D03*
D12*
X135905000Y-114300000D03*
X135905000Y-111760000D03*
X135905000Y-109220000D03*
X135905000Y-106680000D03*
X135905000Y-104140000D03*
X135905000Y-101600000D03*
X135905000Y-99060000D03*
X135905000Y-96520000D03*
X135905000Y-93980000D03*
X143525000Y-93980000D03*
X143525000Y-96520000D03*
X143525000Y-99060000D03*
X143525000Y-101600000D03*
X143525000Y-104140000D03*
X143525000Y-106680000D03*
X143525000Y-109220000D03*
X143525000Y-111760000D03*
D13*
X143525000Y-114300000D03*
D14*
X121455000Y-110625000D03*
X119455000Y-110625000D03*
X126132500Y-110625000D03*
X124132500Y-110625000D03*
X157210000Y-102235000D03*
X155210000Y-102235000D03*
X119285000Y-104140000D03*
X121285000Y-104140000D03*
X121285000Y-106815000D03*
X119285000Y-106815000D03*
X119455000Y-113165000D03*
X121455000Y-113165000D03*
X124095000Y-113165000D03*
X126095000Y-113165000D03*
D15*
X150495000Y-96085000D03*
X150495000Y-100965000D03*
D16*
X148600000Y-106690000D03*
D17*
X148600000Y-109230000D03*
X148600000Y-111770000D03*
X148600000Y-114310000D03*
X156220000Y-114310000D03*
X156220000Y-111770000D03*
X156220000Y-109230000D03*
X156220000Y-106690000D03*
D18*
X114815000Y-95110000D03*
D19*
X114815000Y-97650000D03*
X114815000Y-100190000D03*
X114815000Y-102730000D03*
X114815000Y-105270000D03*
X114815000Y-107810000D03*
X114815000Y-110350000D03*
X114815000Y-112890000D03*
X161925000Y-114300000D03*
D18*
X161925000Y-111760000D03*
D20*
X167005000Y-95330000D03*
D21*
X167005000Y-100330000D03*
X167005000Y-105330000D03*
D22*
X123950000Y-104140000D03*
X126000000Y-104140000D03*
X126000000Y-106815000D03*
X123950000Y-106815000D03*
D23*
X157247500Y-99695000D03*
X155172500Y-99695000D03*
D24*
X131212500Y-113030000D03*
X129137500Y-113030000D03*
D23*
X157247500Y-94615000D03*
X155172500Y-94615000D03*
X155172500Y-97155000D03*
X157247500Y-97155000D03*
D25*
X161925000Y-102870000D03*
X161925000Y-97790000D03*
X170815000Y-107315000D03*
X162560000Y-107950000D03*
X122555000Y-114935000D03*
X119380000Y-114935000D03*
X132715000Y-113030000D03*
X146050000Y-97790000D03*
X146050000Y-104775000D03*
X165100000Y-115570000D03*
X158750000Y-115570000D03*
X152400000Y-107950000D03*
X152400000Y-111760000D03*
X152400000Y-115570000D03*
X140970000Y-114935000D03*
X139700000Y-109855000D03*
X138430000Y-104775000D03*
X139065000Y-98425000D03*
X139065000Y-95250000D03*
X118745000Y-102235000D03*
X113665000Y-116205000D03*
X128270000Y-105410000D03*
X122555000Y-107950000D03*
X122555000Y-102235000D03*
X122555000Y-105410000D03*
X132080000Y-95250000D03*
X127000000Y-95250000D03*
X123825000Y-95250000D03*
X120015000Y-95250000D03*
X117475000Y-93980000D03*
X113665000Y-91440000D03*
X167640000Y-91440000D03*
X161925000Y-91440000D03*
X154940000Y-91440000D03*
X147320000Y-91440000D03*
X118110000Y-111760000D03*
X140970000Y-91440000D03*
X127000000Y-114389500D03*
X123190000Y-112395000D03*
X158750000Y-104775000D03*
D26*
X155210000Y-102235000D02*
X155210000Y-102600000D01*
X155210000Y-102600000D02*
X154305000Y-103505000D01*
X154305000Y-103505000D02*
X154305000Y-111125000D01*
X154305000Y-111125000D02*
X154950000Y-111770000D01*
X154950000Y-111770000D02*
X156220000Y-111770000D01*
X119285000Y-104140000D02*
X120015000Y-103410000D01*
X120015000Y-103410000D02*
X120015000Y-97790000D01*
X120015000Y-97790000D02*
X121285000Y-96520000D01*
X121285000Y-96520000D02*
X125095000Y-96520000D01*
X125730000Y-95885000D02*
X125730000Y-91655000D01*
X125095000Y-96520000D02*
X125730000Y-95885000D01*
X153670000Y-101197500D02*
X153670000Y-108585000D01*
X155172500Y-99695000D02*
X153670000Y-101197500D01*
X153670000Y-108585000D02*
X150485000Y-111770000D01*
X150485000Y-111770000D02*
X148600000Y-111770000D01*
X131212500Y-113030000D02*
X133752500Y-110490000D01*
X137795000Y-111125000D02*
X137795000Y-113665000D01*
X133752500Y-110490000D02*
X137160000Y-110490000D01*
X137160000Y-110490000D02*
X137795000Y-111125000D01*
X137795000Y-113665000D02*
X137160000Y-114300000D01*
X137160000Y-114300000D02*
X135905000Y-114300000D01*
X121455000Y-113165000D02*
X121455000Y-115105000D01*
X121455000Y-115105000D02*
X121920000Y-115570000D01*
X121920000Y-115570000D02*
X131506587Y-115570000D01*
X131506587Y-115570000D02*
X135316587Y-111760000D01*
X135316587Y-111760000D02*
X135905000Y-111760000D01*
D27*
X135905000Y-114300000D02*
X133985000Y-114300000D01*
X133985000Y-114300000D02*
X132080000Y-116205000D01*
X132080000Y-116205000D02*
X118745000Y-116205000D01*
X118745000Y-116205000D02*
X117475000Y-114935000D01*
X117475000Y-114935000D02*
X117475000Y-113030000D01*
D26*
X127000000Y-114389500D02*
X127000000Y-114070000D01*
X127000000Y-114070000D02*
X126095000Y-113165000D01*
D27*
X125730000Y-91655000D02*
X129120000Y-91655000D01*
X118270000Y-91655000D02*
X125730000Y-91655000D01*
X117475000Y-113030000D02*
X117260000Y-112815000D01*
X117260000Y-112815000D02*
X117260000Y-111407918D01*
X117475000Y-111192918D02*
X117475000Y-106680000D01*
X117260000Y-111407918D02*
X117475000Y-111192918D01*
D26*
X118110000Y-111760000D02*
X118320000Y-111760000D01*
X118320000Y-111760000D02*
X119455000Y-110625000D01*
D27*
X130175000Y-91440000D02*
X140970000Y-91440000D01*
X129540000Y-92075000D02*
X130175000Y-91440000D01*
X117475000Y-113030000D02*
X117610000Y-113165000D01*
X117610000Y-113165000D02*
X119455000Y-113165000D01*
X117475000Y-106680000D02*
X117475000Y-99415000D01*
X117610000Y-106815000D02*
X119285000Y-106815000D01*
X117475000Y-106680000D02*
X117610000Y-106815000D01*
X117475000Y-99415000D02*
X115710000Y-97650000D01*
X114815000Y-97650000D02*
X115710000Y-97650000D01*
X119505000Y-93855000D02*
X121920000Y-93855000D01*
X115710000Y-97650000D02*
X119505000Y-93855000D01*
X129120000Y-91655000D02*
X129540000Y-92075000D01*
X114815000Y-95110000D02*
X118270000Y-91655000D01*
X129540000Y-92075000D02*
X129540000Y-93855000D01*
D26*
X126132500Y-110625000D02*
X126132500Y-113127500D01*
X126132500Y-113127500D02*
X126095000Y-113165000D01*
X123325000Y-112395000D02*
X124095000Y-113165000D01*
X123190000Y-112395000D02*
X123325000Y-112395000D01*
X148600000Y-106690000D02*
X146685000Y-108605000D01*
X146685000Y-108605000D02*
X146685000Y-113665000D01*
X146685000Y-113665000D02*
X146050000Y-114300000D01*
X146050000Y-114300000D02*
X143525000Y-114300000D01*
X157210000Y-102235000D02*
X157210000Y-102600000D01*
X157210000Y-102600000D02*
X158750000Y-104140000D01*
X158750000Y-104140000D02*
X158750000Y-104775000D01*
D27*
X167005000Y-105330000D02*
X161925000Y-110410000D01*
X161925000Y-110410000D02*
X161925000Y-111760000D01*
X156220000Y-109230000D02*
X159375000Y-109230000D01*
X159375000Y-109230000D02*
X163195000Y-105410000D01*
X163195000Y-103505000D02*
X163830000Y-102870000D01*
X163195000Y-105410000D02*
X163195000Y-103505000D01*
X169465000Y-95330000D02*
X167005000Y-95330000D01*
X163830000Y-102870000D02*
X168910000Y-102870000D01*
X168910000Y-102870000D02*
X170180000Y-101600000D01*
X169545000Y-95250000D02*
X169465000Y-95330000D01*
X170180000Y-101600000D02*
X170180000Y-95885000D01*
X170180000Y-95885000D02*
X169545000Y-95250000D01*
X156220000Y-111770000D02*
X161915000Y-111770000D01*
D26*
X161915000Y-111770000D02*
X161925000Y-111760000D01*
X143525000Y-96520000D02*
X150060000Y-96520000D01*
X150060000Y-96520000D02*
X150495000Y-96085000D01*
X143525000Y-99060000D02*
X148590000Y-99060000D01*
X148590000Y-99060000D02*
X150495000Y-100965000D01*
X150495000Y-100965000D02*
X154305000Y-97155000D01*
X154305000Y-97155000D02*
X155172500Y-97155000D01*
X151565000Y-96085000D02*
X153035000Y-94615000D01*
X150495000Y-96085000D02*
X151565000Y-96085000D01*
X153035000Y-94615000D02*
X155172500Y-94615000D01*
X124132500Y-110625000D02*
X124132500Y-113127500D01*
X124132500Y-113127500D02*
X124095000Y-113165000D01*
X121285000Y-106815000D02*
X123950000Y-106815000D01*
X121285000Y-104140000D02*
X123950000Y-104140000D01*
G04 #@! TA.AperFunction,Conductor*
G36*
X118430703Y-113962223D02*
G01*
X118455039Y-113990840D01*
X118512069Y-114083302D01*
X118512288Y-114083656D01*
X118636344Y-114207712D01*
X118785666Y-114299814D01*
X118952203Y-114354999D01*
X119054991Y-114365500D01*
X119855008Y-114365499D01*
X119855016Y-114365498D01*
X119855019Y-114365498D01*
X119911302Y-114359748D01*
X119957797Y-114354999D01*
X120124334Y-114299814D01*
X120273656Y-114207712D01*
X120367319Y-114114049D01*
X120428642Y-114080564D01*
X120498334Y-114085548D01*
X120542681Y-114114049D01*
X120636344Y-114207712D01*
X120770597Y-114290519D01*
X120817321Y-114342465D01*
X120829500Y-114396057D01*
X120829500Y-115022255D01*
X120827775Y-115037872D01*
X120828061Y-115037899D01*
X120827326Y-115045665D01*
X120829500Y-115114814D01*
X120829500Y-115144343D01*
X120829501Y-115144360D01*
X120830368Y-115151231D01*
X120830826Y-115157050D01*
X120832290Y-115203624D01*
X120832291Y-115203627D01*
X120837880Y-115222867D01*
X120841824Y-115241911D01*
X120842895Y-115250392D01*
X120844335Y-115261790D01*
X120853467Y-115284854D01*
X120859843Y-115354433D01*
X120827589Y-115416412D01*
X120766947Y-115451116D01*
X120738174Y-115454500D01*
X119107230Y-115454500D01*
X119040191Y-115434815D01*
X119019549Y-115418181D01*
X118261819Y-114660451D01*
X118228334Y-114599128D01*
X118225500Y-114572770D01*
X118225500Y-114055936D01*
X118245185Y-113988897D01*
X118297989Y-113943142D01*
X118367147Y-113933198D01*
X118430703Y-113962223D01*
G37*
G04 #@! TD.AperFunction*
G04 #@! TA.AperFunction,Conductor*
G36*
X122730729Y-113177866D02*
G01*
X122731334Y-113176508D01*
X122737269Y-113179150D01*
X122737270Y-113179151D01*
X122737899Y-113179431D01*
X122916134Y-113258788D01*
X122915481Y-113260253D01*
X122966490Y-113295129D01*
X122993691Y-113359486D01*
X122994500Y-113373627D01*
X122994500Y-113665000D01*
X122994501Y-113665019D01*
X123005000Y-113767796D01*
X123005001Y-113767799D01*
X123047845Y-113897092D01*
X123060186Y-113934334D01*
X123152288Y-114083656D01*
X123276344Y-114207712D01*
X123425666Y-114299814D01*
X123592203Y-114354999D01*
X123694991Y-114365500D01*
X124495008Y-114365499D01*
X124495016Y-114365498D01*
X124495019Y-114365498D01*
X124551302Y-114359748D01*
X124597797Y-114354999D01*
X124764334Y-114299814D01*
X124913656Y-114207712D01*
X125007319Y-114114049D01*
X125068642Y-114080564D01*
X125138334Y-114085548D01*
X125182681Y-114114049D01*
X125276344Y-114207712D01*
X125425666Y-114299814D01*
X125592203Y-114354999D01*
X125694991Y-114365500D01*
X125980367Y-114365499D01*
X126047406Y-114385183D01*
X126093161Y-114437987D01*
X126103687Y-114476535D01*
X126114326Y-114577756D01*
X126114327Y-114577759D01*
X126172818Y-114757777D01*
X126172819Y-114757780D01*
X126172820Y-114757782D01*
X126172821Y-114757784D01*
X126173233Y-114758498D01*
X126173346Y-114758962D01*
X126175462Y-114763714D01*
X126174592Y-114764100D01*
X126189708Y-114826396D01*
X126166858Y-114892424D01*
X126111938Y-114935616D01*
X126065848Y-114944500D01*
X122230453Y-114944500D01*
X122163414Y-114924815D01*
X122142772Y-114908181D01*
X122116819Y-114882228D01*
X122083334Y-114820905D01*
X122080500Y-114794547D01*
X122080500Y-114396057D01*
X122100185Y-114329018D01*
X122139401Y-114290520D01*
X122273656Y-114207712D01*
X122397712Y-114083656D01*
X122489814Y-113934334D01*
X122544999Y-113767797D01*
X122555500Y-113665009D01*
X122555499Y-113288977D01*
X122575183Y-113221940D01*
X122627987Y-113176185D01*
X122697146Y-113166241D01*
X122730729Y-113177866D01*
G37*
G04 #@! TD.AperFunction*
G04 #@! TA.AperFunction,Conductor*
G36*
X120562540Y-94625185D02*
G01*
X120608295Y-94677989D01*
X120619501Y-94729500D01*
X120619501Y-95405018D01*
X120630000Y-95507796D01*
X120630001Y-95507799D01*
X120685185Y-95674331D01*
X120685187Y-95674336D01*
X120704349Y-95705403D01*
X120776273Y-95822011D01*
X120777289Y-95823657D01*
X120846350Y-95892718D01*
X120879835Y-95954041D01*
X120874851Y-96023733D01*
X120854210Y-96059443D01*
X120853413Y-96060405D01*
X120853413Y-96060406D01*
X120847558Y-96067483D01*
X120823709Y-96096310D01*
X120819777Y-96100631D01*
X119631208Y-97289199D01*
X119618951Y-97299020D01*
X119619134Y-97299241D01*
X119613123Y-97304213D01*
X119565772Y-97354636D01*
X119544889Y-97375519D01*
X119544877Y-97375532D01*
X119540621Y-97381017D01*
X119536837Y-97385447D01*
X119504937Y-97419418D01*
X119504936Y-97419420D01*
X119495284Y-97436976D01*
X119484610Y-97453226D01*
X119472329Y-97469061D01*
X119472324Y-97469068D01*
X119453815Y-97511838D01*
X119451245Y-97517084D01*
X119428803Y-97557906D01*
X119423822Y-97577307D01*
X119417521Y-97595710D01*
X119409562Y-97614102D01*
X119409561Y-97614105D01*
X119402271Y-97660127D01*
X119401087Y-97665846D01*
X119389501Y-97710972D01*
X119389500Y-97710982D01*
X119389500Y-97731016D01*
X119387973Y-97750415D01*
X119384840Y-97770194D01*
X119384840Y-97770195D01*
X119389225Y-97816583D01*
X119389500Y-97822421D01*
X119389500Y-102815500D01*
X119369815Y-102882539D01*
X119317011Y-102928294D01*
X119265500Y-102939500D01*
X118884998Y-102939500D01*
X118884980Y-102939501D01*
X118782203Y-102950000D01*
X118782200Y-102950001D01*
X118615668Y-103005185D01*
X118615663Y-103005187D01*
X118466342Y-103097289D01*
X118437181Y-103126451D01*
X118375858Y-103159936D01*
X118306166Y-103154952D01*
X118250233Y-103113080D01*
X118225816Y-103047616D01*
X118225500Y-103038770D01*
X118225500Y-99478705D01*
X118226809Y-99460735D01*
X118227940Y-99453014D01*
X118230289Y-99436977D01*
X118225735Y-99384931D01*
X118225500Y-99379528D01*
X118225500Y-99371297D01*
X118225500Y-99371291D01*
X118221693Y-99338724D01*
X118220842Y-99329000D01*
X118214999Y-99262201D01*
X118213539Y-99255129D01*
X118213597Y-99255116D01*
X118211965Y-99247757D01*
X118211906Y-99247772D01*
X118210242Y-99240753D01*
X118210241Y-99240745D01*
X118183974Y-99168576D01*
X118159814Y-99095666D01*
X118159809Y-99095659D01*
X118156760Y-99089118D01*
X118156815Y-99089091D01*
X118153533Y-99082313D01*
X118153480Y-99082340D01*
X118150235Y-99075880D01*
X118108028Y-99011708D01*
X118067710Y-98946342D01*
X118063234Y-98940682D01*
X118063281Y-98940644D01*
X118058519Y-98934799D01*
X118058474Y-98934838D01*
X118053834Y-98929309D01*
X118053832Y-98929307D01*
X118053830Y-98929304D01*
X118020120Y-98897500D01*
X117997965Y-98876597D01*
X116859048Y-97737680D01*
X116825563Y-97676357D01*
X116830547Y-97606665D01*
X116859046Y-97562320D01*
X119779548Y-94641819D01*
X119840871Y-94608334D01*
X119867229Y-94605500D01*
X120495501Y-94605500D01*
X120562540Y-94625185D01*
G37*
G04 #@! TD.AperFunction*
G04 #@! TA.AperFunction,Conductor*
G36*
X120562539Y-92425185D02*
G01*
X120608294Y-92477989D01*
X120619500Y-92529500D01*
X120619500Y-92980500D01*
X120599815Y-93047539D01*
X120547011Y-93093294D01*
X120495500Y-93104500D01*
X119568705Y-93104500D01*
X119550735Y-93103191D01*
X119526972Y-93099710D01*
X119481890Y-93103655D01*
X119474933Y-93104264D01*
X119469532Y-93104500D01*
X119461288Y-93104500D01*
X119428707Y-93108308D01*
X119352199Y-93115001D01*
X119345133Y-93116461D01*
X119345121Y-93116404D01*
X119337752Y-93118038D01*
X119337766Y-93118095D01*
X119330741Y-93119759D01*
X119258556Y-93146033D01*
X119185670Y-93170185D01*
X119185667Y-93170186D01*
X119185665Y-93170187D01*
X119185662Y-93170188D01*
X119179128Y-93173236D01*
X119179102Y-93173182D01*
X119172306Y-93176472D01*
X119172332Y-93176524D01*
X119165884Y-93179762D01*
X119101699Y-93221977D01*
X119036350Y-93262284D01*
X119030682Y-93266766D01*
X119030646Y-93266720D01*
X119024798Y-93271484D01*
X119024835Y-93271528D01*
X119019310Y-93276164D01*
X118966597Y-93332035D01*
X116377180Y-95921450D01*
X116315857Y-95954935D01*
X116246165Y-95949951D01*
X116190232Y-95908079D01*
X116165815Y-95842615D01*
X116165499Y-95833792D01*
X116165499Y-94872228D01*
X116185184Y-94805190D01*
X116201813Y-94784553D01*
X118544549Y-92441819D01*
X118605872Y-92408334D01*
X118632230Y-92405500D01*
X120495500Y-92405500D01*
X120562539Y-92425185D01*
G37*
G04 #@! TD.AperFunction*
G04 #@! TA.AperFunction,Conductor*
G36*
X125047539Y-92425185D02*
G01*
X125093294Y-92477989D01*
X125104500Y-92529500D01*
X125104500Y-95574547D01*
X125084815Y-95641586D01*
X125068181Y-95662228D01*
X124872228Y-95858181D01*
X124810905Y-95891666D01*
X124784547Y-95894500D01*
X123241189Y-95894500D01*
X123174150Y-95874815D01*
X123128395Y-95822011D01*
X123118451Y-95752853D01*
X123135649Y-95705405D01*
X123154814Y-95674334D01*
X123209999Y-95507797D01*
X123220500Y-95405009D01*
X123220499Y-92529499D01*
X123240184Y-92462461D01*
X123292987Y-92416706D01*
X123344499Y-92405500D01*
X124980500Y-92405500D01*
X125047539Y-92425185D01*
G37*
G04 #@! TD.AperFunction*
G04 #@! TA.AperFunction,Conductor*
G36*
X154287444Y-98159658D02*
G01*
X154331791Y-98188159D01*
X154366344Y-98222712D01*
X154515666Y-98314814D01*
X154515667Y-98314814D01*
X154521813Y-98318605D01*
X154520386Y-98320917D01*
X154563405Y-98358805D01*
X154582547Y-98426002D01*
X154562321Y-98492880D01*
X154520440Y-98529170D01*
X154521813Y-98531395D01*
X154515667Y-98535185D01*
X154515666Y-98535186D01*
X154440044Y-98581830D01*
X154366342Y-98627289D01*
X154242289Y-98751342D01*
X154150187Y-98900663D01*
X154150185Y-98900668D01*
X154135050Y-98946342D01*
X154095001Y-99067203D01*
X154095001Y-99067204D01*
X154095000Y-99067204D01*
X154084500Y-99169983D01*
X154084500Y-99847046D01*
X154064815Y-99914085D01*
X154048181Y-99934727D01*
X153286208Y-100696699D01*
X153273951Y-100706520D01*
X153274134Y-100706741D01*
X153268123Y-100711713D01*
X153220772Y-100762136D01*
X153199889Y-100783019D01*
X153199877Y-100783032D01*
X153195621Y-100788517D01*
X153191837Y-100792947D01*
X153159937Y-100826918D01*
X153159936Y-100826920D01*
X153150284Y-100844476D01*
X153139610Y-100860726D01*
X153127329Y-100876561D01*
X153127324Y-100876568D01*
X153108815Y-100919338D01*
X153106245Y-100924584D01*
X153083803Y-100965406D01*
X153078822Y-100984807D01*
X153072521Y-101003210D01*
X153064562Y-101021602D01*
X153064561Y-101021605D01*
X153057271Y-101067627D01*
X153056087Y-101073346D01*
X153044501Y-101118472D01*
X153044500Y-101118482D01*
X153044500Y-101138516D01*
X153042973Y-101157913D01*
X153039840Y-101177696D01*
X153043831Y-101219915D01*
X153044225Y-101224083D01*
X153044500Y-101229921D01*
X153044500Y-108274547D01*
X153024815Y-108341586D01*
X153008181Y-108362228D01*
X150262228Y-111108181D01*
X150200905Y-111141666D01*
X150174547Y-111144500D01*
X149814188Y-111144500D01*
X149747149Y-111124815D01*
X149712613Y-111091623D01*
X149600045Y-110930858D01*
X149439141Y-110769954D01*
X149252734Y-110639432D01*
X149252732Y-110639431D01*
X149194725Y-110612382D01*
X149194132Y-110612105D01*
X149141694Y-110565934D01*
X149122542Y-110498740D01*
X149142758Y-110431859D01*
X149194134Y-110387341D01*
X149252484Y-110360132D01*
X149438820Y-110229657D01*
X149599657Y-110068820D01*
X149730134Y-109882482D01*
X149826265Y-109676326D01*
X149826269Y-109676317D01*
X149878872Y-109480000D01*
X148915686Y-109480000D01*
X148927641Y-109468045D01*
X148985165Y-109355148D01*
X149004986Y-109230000D01*
X148985165Y-109104852D01*
X148927641Y-108991955D01*
X148915686Y-108980000D01*
X149878872Y-108980000D01*
X149878872Y-108979999D01*
X149826269Y-108783682D01*
X149826265Y-108783673D01*
X149730134Y-108577517D01*
X149599657Y-108391179D01*
X149438820Y-108230342D01*
X149413779Y-108212808D01*
X149370154Y-108158230D01*
X149362962Y-108088732D01*
X149394484Y-108026377D01*
X149454714Y-107990964D01*
X149471650Y-107987943D01*
X149507483Y-107984091D01*
X149574710Y-107959017D01*
X149642331Y-107933796D01*
X149757546Y-107847546D01*
X149843796Y-107732331D01*
X149894091Y-107597483D01*
X149900500Y-107537873D01*
X149900499Y-105842128D01*
X149894091Y-105782517D01*
X149890276Y-105772289D01*
X149843797Y-105647671D01*
X149843793Y-105647664D01*
X149757547Y-105532455D01*
X149757544Y-105532452D01*
X149642335Y-105446206D01*
X149642328Y-105446202D01*
X149507482Y-105395908D01*
X149507483Y-105395908D01*
X149447883Y-105389501D01*
X149447881Y-105389500D01*
X149447873Y-105389500D01*
X149447864Y-105389500D01*
X147752129Y-105389500D01*
X147752123Y-105389501D01*
X147692516Y-105395908D01*
X147557671Y-105446202D01*
X147557664Y-105446206D01*
X147442455Y-105532452D01*
X147442452Y-105532455D01*
X147356206Y-105647664D01*
X147356202Y-105647671D01*
X147305908Y-105782517D01*
X147301964Y-105819208D01*
X147299501Y-105842123D01*
X147299500Y-105842135D01*
X147299500Y-107054546D01*
X147279815Y-107121585D01*
X147263181Y-107142227D01*
X146301208Y-108104199D01*
X146288951Y-108114020D01*
X146289134Y-108114241D01*
X146283123Y-108119213D01*
X146235772Y-108169636D01*
X146214889Y-108190519D01*
X146214877Y-108190532D01*
X146210621Y-108196017D01*
X146206837Y-108200447D01*
X146174937Y-108234418D01*
X146174936Y-108234420D01*
X146165284Y-108251976D01*
X146154610Y-108268226D01*
X146142329Y-108284061D01*
X146142324Y-108284068D01*
X146123815Y-108326838D01*
X146121245Y-108332084D01*
X146098803Y-108372906D01*
X146093822Y-108392307D01*
X146087521Y-108410710D01*
X146079562Y-108429102D01*
X146079561Y-108429105D01*
X146072271Y-108475127D01*
X146071087Y-108480846D01*
X146059501Y-108525972D01*
X146059500Y-108525982D01*
X146059500Y-108546016D01*
X146057973Y-108565415D01*
X146054840Y-108585194D01*
X146054840Y-108585195D01*
X146059225Y-108631583D01*
X146059500Y-108637421D01*
X146059500Y-113354547D01*
X146039815Y-113421586D01*
X146023181Y-113442228D01*
X145827228Y-113638181D01*
X145765905Y-113671666D01*
X145739547Y-113674500D01*
X145349499Y-113674500D01*
X145282460Y-113654815D01*
X145236705Y-113602011D01*
X145225499Y-113550500D01*
X145225499Y-113452129D01*
X145225498Y-113452123D01*
X145225497Y-113452116D01*
X145219091Y-113392517D01*
X145218152Y-113390000D01*
X145168797Y-113257671D01*
X145168793Y-113257664D01*
X145082547Y-113142455D01*
X145082544Y-113142452D01*
X144967335Y-113056206D01*
X144967328Y-113056202D01*
X144832482Y-113005908D01*
X144832483Y-113005908D01*
X144797404Y-113002137D01*
X144732853Y-112975399D01*
X144693005Y-112918006D01*
X144690512Y-112848181D01*
X144726165Y-112788092D01*
X144739539Y-112777272D01*
X144750977Y-112769263D01*
X144764139Y-112760047D01*
X144925047Y-112599139D01*
X145055568Y-112412734D01*
X145151739Y-112206496D01*
X145210635Y-111986692D01*
X145228978Y-111777029D01*
X145230468Y-111760001D01*
X145230468Y-111759998D01*
X145220215Y-111642805D01*
X145210635Y-111533308D01*
X145156492Y-111331242D01*
X145151741Y-111313511D01*
X145151738Y-111313502D01*
X145125459Y-111257147D01*
X145055568Y-111107266D01*
X144925047Y-110920861D01*
X144925045Y-110920858D01*
X144764141Y-110759954D01*
X144577734Y-110629432D01*
X144577728Y-110629429D01*
X144541170Y-110612382D01*
X144519724Y-110602381D01*
X144467285Y-110556210D01*
X144448133Y-110489017D01*
X144468348Y-110422135D01*
X144519725Y-110377618D01*
X144577734Y-110350568D01*
X144764139Y-110220047D01*
X144925047Y-110059139D01*
X145055568Y-109872734D01*
X145151739Y-109666496D01*
X145210635Y-109446692D01*
X145230468Y-109220000D01*
X145227106Y-109181575D01*
X145220188Y-109102500D01*
X145210635Y-108993308D01*
X145154464Y-108783673D01*
X145151741Y-108773511D01*
X145151738Y-108773502D01*
X145108790Y-108681401D01*
X145055568Y-108567266D01*
X144925047Y-108380861D01*
X144925045Y-108380858D01*
X144764141Y-108219954D01*
X144577734Y-108089432D01*
X144577728Y-108089429D01*
X144519725Y-108062382D01*
X144467285Y-108016210D01*
X144448133Y-107949017D01*
X144468348Y-107882135D01*
X144519725Y-107837618D01*
X144577734Y-107810568D01*
X144764139Y-107680047D01*
X144925047Y-107519139D01*
X145055568Y-107332734D01*
X145151739Y-107126496D01*
X145210635Y-106906692D01*
X145230468Y-106680000D01*
X145228545Y-106658025D01*
X145220188Y-106562500D01*
X145210635Y-106453308D01*
X145154420Y-106243511D01*
X145151741Y-106233511D01*
X145151738Y-106233502D01*
X145118372Y-106161949D01*
X145055568Y-106027266D01*
X144925934Y-105842128D01*
X144925045Y-105840858D01*
X144764141Y-105679954D01*
X144577734Y-105549432D01*
X144577728Y-105549429D01*
X144541325Y-105532454D01*
X144519724Y-105522381D01*
X144467285Y-105476210D01*
X144448133Y-105409017D01*
X144468348Y-105342135D01*
X144519725Y-105297618D01*
X144577734Y-105270568D01*
X144764139Y-105140047D01*
X144925047Y-104979139D01*
X145055568Y-104792734D01*
X145151739Y-104586496D01*
X145210635Y-104366692D01*
X145230468Y-104140000D01*
X145229060Y-104123912D01*
X145218489Y-104003084D01*
X145210635Y-103913308D01*
X145151739Y-103693504D01*
X145055568Y-103487266D01*
X144925047Y-103300861D01*
X144925045Y-103300858D01*
X144764141Y-103139954D01*
X144577734Y-103009432D01*
X144577728Y-103009429D01*
X144519725Y-102982382D01*
X144467285Y-102936210D01*
X144448133Y-102869017D01*
X144468348Y-102802135D01*
X144519725Y-102757618D01*
X144577734Y-102730568D01*
X144764139Y-102600047D01*
X144925047Y-102439139D01*
X145055568Y-102252734D01*
X145151739Y-102046496D01*
X145210635Y-101826692D01*
X145230468Y-101600000D01*
X145229201Y-101585523D01*
X145218463Y-101462785D01*
X145210635Y-101373308D01*
X145151739Y-101153504D01*
X145055568Y-100947266D01*
X144925047Y-100760861D01*
X144925045Y-100760858D01*
X144764141Y-100599954D01*
X144577734Y-100469432D01*
X144577728Y-100469429D01*
X144519725Y-100442382D01*
X144467285Y-100396210D01*
X144448133Y-100329017D01*
X144468348Y-100262135D01*
X144519725Y-100217618D01*
X144577734Y-100190568D01*
X144764139Y-100060047D01*
X144925047Y-99899139D01*
X145037613Y-99738377D01*
X145092189Y-99694752D01*
X145139188Y-99685500D01*
X148279548Y-99685500D01*
X148346587Y-99705185D01*
X148367229Y-99721819D01*
X149236411Y-100591001D01*
X149269896Y-100652324D01*
X149268505Y-100710774D01*
X149258794Y-100747017D01*
X149258793Y-100747024D01*
X149239723Y-100964997D01*
X149239723Y-100965002D01*
X149239759Y-100965408D01*
X149256600Y-101157915D01*
X149258793Y-101182975D01*
X149258793Y-101182979D01*
X149315422Y-101394322D01*
X149315424Y-101394326D01*
X149315425Y-101394330D01*
X149351983Y-101472729D01*
X149407897Y-101592638D01*
X149413052Y-101600000D01*
X149533402Y-101771877D01*
X149688123Y-101926598D01*
X149867361Y-102052102D01*
X150065670Y-102144575D01*
X150277023Y-102201207D01*
X150459926Y-102217208D01*
X150494998Y-102220277D01*
X150495000Y-102220277D01*
X150495002Y-102220277D01*
X150523254Y-102217805D01*
X150712977Y-102201207D01*
X150924330Y-102144575D01*
X151122639Y-102052102D01*
X151301877Y-101926598D01*
X151456598Y-101771877D01*
X151582102Y-101592639D01*
X151674575Y-101394330D01*
X151731207Y-101182977D01*
X151750241Y-100965408D01*
X151750277Y-100965002D01*
X151750277Y-100964997D01*
X151738197Y-100826918D01*
X151731207Y-100747023D01*
X151721494Y-100710774D01*
X151723157Y-100640925D01*
X151753586Y-100591002D01*
X154156433Y-98188156D01*
X154217752Y-98154674D01*
X154287444Y-98159658D01*
G37*
G04 #@! TD.AperFunction*
G04 #@! TA.AperFunction,Conductor*
G36*
X165766273Y-103640185D02*
G01*
X165812028Y-103692989D01*
X165821972Y-103762147D01*
X165792947Y-103825703D01*
X165734169Y-103863477D01*
X165729674Y-103864706D01*
X165529376Y-103915428D01*
X165303172Y-104014650D01*
X165096382Y-104149752D01*
X164914642Y-104317055D01*
X164914639Y-104317058D01*
X164762932Y-104511971D01*
X164762928Y-104511977D01*
X164645362Y-104729219D01*
X164645359Y-104729228D01*
X164565157Y-104962846D01*
X164533335Y-105153549D01*
X164524500Y-105206494D01*
X164524500Y-105453506D01*
X164533160Y-105505403D01*
X164565157Y-105697153D01*
X164645359Y-105930771D01*
X164645362Y-105930780D01*
X164697578Y-106027265D01*
X164762927Y-106148020D01*
X164812960Y-106212302D01*
X164854407Y-106265554D01*
X164880049Y-106330548D01*
X164866482Y-106399088D01*
X164844234Y-106429397D01*
X161439358Y-109834272D01*
X161425729Y-109846051D01*
X161406468Y-109860390D01*
X161372898Y-109900397D01*
X161369253Y-109904376D01*
X161363409Y-109910222D01*
X161343059Y-109935959D01*
X161293695Y-109994789D01*
X161289729Y-110000819D01*
X161289682Y-110000788D01*
X161285630Y-110007147D01*
X161285679Y-110007177D01*
X161281889Y-110013321D01*
X161249424Y-110082941D01*
X161214960Y-110151566D01*
X161212488Y-110158357D01*
X161212432Y-110158336D01*
X161209960Y-110165450D01*
X161210015Y-110165469D01*
X161207742Y-110172327D01*
X161192207Y-110247566D01*
X161176438Y-110314098D01*
X161141823Y-110374790D01*
X161079890Y-110407134D01*
X161055785Y-110409500D01*
X161027131Y-110409500D01*
X161027123Y-110409501D01*
X160967516Y-110415908D01*
X160832671Y-110466202D01*
X160832664Y-110466206D01*
X160717455Y-110552452D01*
X160717452Y-110552455D01*
X160631206Y-110667664D01*
X160631202Y-110667671D01*
X160580908Y-110802517D01*
X160576781Y-110840908D01*
X160574501Y-110862123D01*
X160574500Y-110862135D01*
X160574500Y-110895500D01*
X160554815Y-110962539D01*
X160502011Y-111008294D01*
X160450500Y-111019500D01*
X157346663Y-111019500D01*
X157279624Y-110999815D01*
X157245088Y-110966623D01*
X157220045Y-110930858D01*
X157059141Y-110769954D01*
X156872734Y-110639432D01*
X156872728Y-110639429D01*
X156814725Y-110612382D01*
X156762285Y-110566210D01*
X156743133Y-110499017D01*
X156763348Y-110432135D01*
X156814725Y-110387618D01*
X156815319Y-110387341D01*
X156872734Y-110360568D01*
X157059139Y-110230047D01*
X157220047Y-110069139D01*
X157245088Y-110033377D01*
X157299665Y-109989752D01*
X157346663Y-109980500D01*
X159311295Y-109980500D01*
X159329265Y-109981809D01*
X159353023Y-109985289D01*
X159405068Y-109980735D01*
X159410470Y-109980500D01*
X159418704Y-109980500D01*
X159418709Y-109980500D01*
X159440856Y-109977911D01*
X159451276Y-109976693D01*
X159464028Y-109975577D01*
X159527797Y-109969999D01*
X159527805Y-109969996D01*
X159534866Y-109968539D01*
X159534878Y-109968598D01*
X159542243Y-109966965D01*
X159542229Y-109966906D01*
X159549246Y-109965241D01*
X159549255Y-109965241D01*
X159621423Y-109938974D01*
X159694334Y-109914814D01*
X159694343Y-109914807D01*
X159700882Y-109911760D01*
X159700908Y-109911816D01*
X159707690Y-109908532D01*
X159707663Y-109908478D01*
X159714106Y-109905240D01*
X159714117Y-109905237D01*
X159778283Y-109863034D01*
X159843656Y-109822712D01*
X159843662Y-109822705D01*
X159849325Y-109818229D01*
X159849363Y-109818277D01*
X159855200Y-109813522D01*
X159855161Y-109813475D01*
X159860696Y-109808830D01*
X159913385Y-109752983D01*
X162727770Y-106938597D01*
X163680642Y-105985724D01*
X163694271Y-105973947D01*
X163713530Y-105959610D01*
X163737721Y-105930780D01*
X163747101Y-105919601D01*
X163750761Y-105915606D01*
X163756590Y-105909778D01*
X163762485Y-105902323D01*
X163776940Y-105884040D01*
X163826302Y-105825214D01*
X163826306Y-105825205D01*
X163830274Y-105819175D01*
X163830325Y-105819208D01*
X163834372Y-105812856D01*
X163834320Y-105812824D01*
X163838112Y-105806675D01*
X163870575Y-105737058D01*
X163890617Y-105697150D01*
X163905040Y-105668433D01*
X163905042Y-105668421D01*
X163907509Y-105661646D01*
X163907567Y-105661667D01*
X163910043Y-105654546D01*
X163909986Y-105654528D01*
X163912257Y-105647673D01*
X163927792Y-105572434D01*
X163933244Y-105549429D01*
X163945500Y-105497721D01*
X163945500Y-105497710D01*
X163946338Y-105490548D01*
X163946398Y-105490555D01*
X163947164Y-105483055D01*
X163947105Y-105483050D01*
X163947734Y-105475860D01*
X163947367Y-105463261D01*
X163945500Y-105399082D01*
X163945500Y-103867229D01*
X163965185Y-103800190D01*
X163981819Y-103779548D01*
X164104548Y-103656819D01*
X164165871Y-103623334D01*
X164192229Y-103620500D01*
X165699234Y-103620500D01*
X165766273Y-103640185D01*
G37*
G04 #@! TD.AperFunction*
G04 #@! TA.AperFunction,Conductor*
G36*
X154071738Y-95260185D02*
G01*
X154117493Y-95312989D01*
X154122405Y-95325496D01*
X154150185Y-95409331D01*
X154150187Y-95409336D01*
X154154510Y-95416345D01*
X154242288Y-95558656D01*
X154366344Y-95682712D01*
X154515666Y-95774814D01*
X154515667Y-95774814D01*
X154521813Y-95778605D01*
X154520386Y-95780917D01*
X154563405Y-95818805D01*
X154582547Y-95886002D01*
X154562321Y-95952880D01*
X154520440Y-95989170D01*
X154521813Y-95991395D01*
X154515667Y-95995185D01*
X154515666Y-95995186D01*
X154472469Y-96021830D01*
X154366342Y-96087289D01*
X154242289Y-96211342D01*
X154150187Y-96360663D01*
X154150186Y-96360666D01*
X154099186Y-96514573D01*
X154059413Y-96572017D01*
X154044603Y-96582299D01*
X154037373Y-96586575D01*
X154019905Y-96595133D01*
X154001274Y-96602510D01*
X154001262Y-96602517D01*
X153963570Y-96629902D01*
X153958687Y-96633109D01*
X153918580Y-96656829D01*
X153904414Y-96670995D01*
X153889624Y-96683627D01*
X153873414Y-96695404D01*
X153873411Y-96695407D01*
X153843710Y-96731309D01*
X153839777Y-96735631D01*
X150868996Y-99706411D01*
X150807673Y-99739896D01*
X150749222Y-99738505D01*
X150712977Y-99728793D01*
X150603988Y-99719258D01*
X150495002Y-99709723D01*
X150494998Y-99709723D01*
X150356738Y-99721819D01*
X150277023Y-99728793D01*
X150277021Y-99728793D01*
X150277017Y-99728794D01*
X150240774Y-99738505D01*
X150170924Y-99736841D01*
X150121001Y-99706411D01*
X149619590Y-99205000D01*
X149090803Y-98676212D01*
X149080980Y-98663950D01*
X149080759Y-98664134D01*
X149075786Y-98658123D01*
X149043372Y-98627684D01*
X149025364Y-98610773D01*
X149014919Y-98600328D01*
X149004475Y-98589883D01*
X148998986Y-98585625D01*
X148994561Y-98581847D01*
X148960582Y-98549938D01*
X148960580Y-98549936D01*
X148960577Y-98549935D01*
X148943029Y-98540288D01*
X148926763Y-98529604D01*
X148910936Y-98517327D01*
X148910935Y-98517326D01*
X148910933Y-98517325D01*
X148868168Y-98498818D01*
X148862922Y-98496248D01*
X148822093Y-98473803D01*
X148822092Y-98473802D01*
X148802693Y-98468822D01*
X148784281Y-98462518D01*
X148765898Y-98454562D01*
X148765892Y-98454560D01*
X148719874Y-98447272D01*
X148714152Y-98446087D01*
X148669021Y-98434500D01*
X148669019Y-98434500D01*
X148648984Y-98434500D01*
X148629586Y-98432973D01*
X148622162Y-98431797D01*
X148609805Y-98429840D01*
X148609804Y-98429840D01*
X148563416Y-98434225D01*
X148557578Y-98434500D01*
X145139188Y-98434500D01*
X145072149Y-98414815D01*
X145037613Y-98381623D01*
X144925045Y-98220858D01*
X144764141Y-98059954D01*
X144577734Y-97929432D01*
X144577728Y-97929429D01*
X144550038Y-97916517D01*
X144519724Y-97902381D01*
X144467285Y-97856210D01*
X144448133Y-97789017D01*
X144468348Y-97722135D01*
X144519725Y-97677618D01*
X144577734Y-97650568D01*
X144764139Y-97520047D01*
X144925047Y-97359139D01*
X145008469Y-97239999D01*
X145037613Y-97198377D01*
X145092189Y-97154752D01*
X145139188Y-97145500D01*
X149790273Y-97145500D01*
X149857312Y-97165185D01*
X149861374Y-97167910D01*
X149867361Y-97172102D01*
X150065670Y-97264575D01*
X150065676Y-97264576D01*
X150065677Y-97264577D01*
X150088316Y-97270643D01*
X150277023Y-97321207D01*
X150459926Y-97337208D01*
X150494998Y-97340277D01*
X150495000Y-97340277D01*
X150495002Y-97340277D01*
X150523254Y-97337805D01*
X150712977Y-97321207D01*
X150924330Y-97264575D01*
X151122639Y-97172102D01*
X151301877Y-97046598D01*
X151456598Y-96891877D01*
X151548182Y-96761081D01*
X151602757Y-96717458D01*
X151645861Y-96708267D01*
X151663627Y-96707709D01*
X151682869Y-96702117D01*
X151701912Y-96698174D01*
X151721792Y-96695664D01*
X151765122Y-96678507D01*
X151770646Y-96676617D01*
X151774396Y-96675527D01*
X151815390Y-96663618D01*
X151832629Y-96653422D01*
X151850103Y-96644862D01*
X151868727Y-96637488D01*
X151868727Y-96637487D01*
X151868732Y-96637486D01*
X151906449Y-96610082D01*
X151911305Y-96606892D01*
X151951420Y-96583170D01*
X151965589Y-96568999D01*
X151980379Y-96556368D01*
X151996587Y-96544594D01*
X152026299Y-96508676D01*
X152030212Y-96504376D01*
X153257772Y-95276819D01*
X153319095Y-95243334D01*
X153345453Y-95240500D01*
X154004699Y-95240500D01*
X154071738Y-95260185D01*
G37*
G04 #@! TD.AperFunction*
G04 #@! TA.AperFunction,Conductor*
G36*
X172663039Y-90189685D02*
G01*
X172708794Y-90242489D01*
X172720000Y-90294000D01*
X172720000Y-117351000D01*
X172700315Y-117418039D01*
X172647511Y-117463794D01*
X172596000Y-117475000D01*
X111884000Y-117475000D01*
X111816961Y-117455315D01*
X111771206Y-117402511D01*
X111760000Y-117351000D01*
X111760000Y-110350000D01*
X113459341Y-110350000D01*
X113479936Y-110585403D01*
X113479938Y-110585413D01*
X113541094Y-110813655D01*
X113541096Y-110813659D01*
X113541097Y-110813663D01*
X113633229Y-111011241D01*
X113640965Y-111027830D01*
X113640967Y-111027834D01*
X113776501Y-111221395D01*
X113776506Y-111221402D01*
X113943597Y-111388493D01*
X113943603Y-111388498D01*
X113996849Y-111425781D01*
X114119148Y-111511416D01*
X114129594Y-111518730D01*
X114173219Y-111573307D01*
X114180413Y-111642805D01*
X114148890Y-111705160D01*
X114129595Y-111721880D01*
X113943922Y-111851890D01*
X113943920Y-111851891D01*
X113776891Y-112018920D01*
X113776886Y-112018926D01*
X113641400Y-112212420D01*
X113641399Y-112212422D01*
X113541570Y-112426507D01*
X113541567Y-112426513D01*
X113484364Y-112639999D01*
X113484364Y-112640000D01*
X114381314Y-112640000D01*
X114355507Y-112680156D01*
X114315000Y-112818111D01*
X114315000Y-112961889D01*
X114355507Y-113099844D01*
X114381314Y-113140000D01*
X113484364Y-113140000D01*
X113541567Y-113353486D01*
X113541570Y-113353492D01*
X113641399Y-113567578D01*
X113776894Y-113761082D01*
X113943917Y-113928105D01*
X114137421Y-114063600D01*
X114351507Y-114163429D01*
X114351516Y-114163433D01*
X114565000Y-114220634D01*
X114565000Y-113325501D01*
X114672685Y-113374680D01*
X114779237Y-113390000D01*
X114850763Y-113390000D01*
X114957315Y-113374680D01*
X115065000Y-113325501D01*
X115065000Y-114220633D01*
X115278483Y-114163433D01*
X115278492Y-114163429D01*
X115492578Y-114063600D01*
X115686082Y-113928105D01*
X115853105Y-113761082D01*
X115988600Y-113567578D01*
X116088429Y-113353492D01*
X116088432Y-113353486D01*
X116145636Y-113140000D01*
X115248686Y-113140000D01*
X115274493Y-113099844D01*
X115315000Y-112961889D01*
X115315000Y-112818111D01*
X115274493Y-112680156D01*
X115248686Y-112640000D01*
X116145636Y-112640000D01*
X116145635Y-112639999D01*
X116088432Y-112426513D01*
X116088429Y-112426507D01*
X115988600Y-112212422D01*
X115988599Y-112212420D01*
X115853113Y-112018926D01*
X115853108Y-112018920D01*
X115686078Y-111851890D01*
X115500405Y-111721879D01*
X115456780Y-111667302D01*
X115449588Y-111597804D01*
X115481110Y-111535449D01*
X115500406Y-111518730D01*
X115510846Y-111511420D01*
X115686401Y-111388495D01*
X115853495Y-111221401D01*
X115989035Y-111027830D01*
X116088903Y-110813663D01*
X116150063Y-110585408D01*
X116170659Y-110350000D01*
X116150063Y-110114592D01*
X116093967Y-109905237D01*
X116088905Y-109886344D01*
X116088904Y-109886343D01*
X116088903Y-109886337D01*
X115989035Y-109672171D01*
X115988755Y-109671770D01*
X115853494Y-109478597D01*
X115686402Y-109311506D01*
X115686396Y-109311501D01*
X115500842Y-109181575D01*
X115457217Y-109126998D01*
X115450023Y-109057500D01*
X115481546Y-108995145D01*
X115500842Y-108978425D01*
X115609475Y-108902359D01*
X115686401Y-108848495D01*
X115853495Y-108681401D01*
X115989035Y-108487830D01*
X116088903Y-108273663D01*
X116150063Y-108045408D01*
X116170659Y-107810000D01*
X116150063Y-107574592D01*
X116088903Y-107346337D01*
X115989035Y-107132171D01*
X115985062Y-107126496D01*
X115853494Y-106938597D01*
X115686402Y-106771506D01*
X115686396Y-106771501D01*
X115500842Y-106641575D01*
X115457217Y-106586998D01*
X115450023Y-106517500D01*
X115481546Y-106455145D01*
X115500842Y-106438425D01*
X115637197Y-106342948D01*
X115686401Y-106308495D01*
X115853495Y-106141401D01*
X115989035Y-105947830D01*
X116088903Y-105733663D01*
X116150063Y-105505408D01*
X116170659Y-105270000D01*
X116150063Y-105034592D01*
X116088903Y-104806337D01*
X115989035Y-104592171D01*
X115985233Y-104586740D01*
X115853494Y-104398597D01*
X115686402Y-104231506D01*
X115686396Y-104231501D01*
X115500842Y-104101575D01*
X115457217Y-104046998D01*
X115450023Y-103977500D01*
X115481546Y-103915145D01*
X115500842Y-103898425D01*
X115545394Y-103867229D01*
X115686401Y-103768495D01*
X115853495Y-103601401D01*
X115989035Y-103407830D01*
X116088903Y-103193663D01*
X116150063Y-102965408D01*
X116170659Y-102730000D01*
X116150063Y-102494592D01*
X116091837Y-102277288D01*
X116088905Y-102266344D01*
X116088904Y-102266343D01*
X116088903Y-102266337D01*
X115989035Y-102052171D01*
X115985062Y-102046496D01*
X115853494Y-101858597D01*
X115686402Y-101691506D01*
X115686396Y-101691501D01*
X115500842Y-101561575D01*
X115457217Y-101506998D01*
X115450023Y-101437500D01*
X115481546Y-101375145D01*
X115500842Y-101358425D01*
X115560940Y-101316344D01*
X115686401Y-101228495D01*
X115853495Y-101061401D01*
X115989035Y-100867830D01*
X116088903Y-100653663D01*
X116150063Y-100425408D01*
X116170659Y-100190000D01*
X116150063Y-99954592D01*
X116091718Y-99736841D01*
X116088905Y-99726344D01*
X116088904Y-99726343D01*
X116088903Y-99726337D01*
X115989035Y-99512171D01*
X115985062Y-99506496D01*
X115853494Y-99318597D01*
X115686402Y-99151506D01*
X115686396Y-99151501D01*
X115500842Y-99021575D01*
X115457217Y-98966998D01*
X115450023Y-98897500D01*
X115481546Y-98835145D01*
X115500837Y-98818428D01*
X115601599Y-98747873D01*
X115667802Y-98725548D01*
X115735570Y-98742558D01*
X115760401Y-98761769D01*
X116688181Y-99689549D01*
X116721666Y-99750872D01*
X116724500Y-99777230D01*
X116724500Y-106616294D01*
X116723191Y-106634263D01*
X116719710Y-106658025D01*
X116724264Y-106710064D01*
X116724500Y-106715470D01*
X116724500Y-110832042D01*
X116704815Y-110899081D01*
X116697768Y-110908951D01*
X116678059Y-110933876D01*
X116628695Y-110992707D01*
X116624729Y-110998737D01*
X116624682Y-110998706D01*
X116620630Y-111005065D01*
X116620679Y-111005095D01*
X116616889Y-111011239D01*
X116584424Y-111080859D01*
X116549960Y-111149484D01*
X116547488Y-111156275D01*
X116547432Y-111156254D01*
X116544960Y-111163368D01*
X116545015Y-111163387D01*
X116542742Y-111170245D01*
X116535000Y-111207742D01*
X116527207Y-111245483D01*
X116518602Y-111281791D01*
X116509498Y-111320204D01*
X116508661Y-111327372D01*
X116508601Y-111327365D01*
X116507835Y-111334863D01*
X116507895Y-111334869D01*
X116507265Y-111342058D01*
X116509500Y-111418834D01*
X116509500Y-112751294D01*
X116508191Y-112769263D01*
X116504710Y-112793025D01*
X116509264Y-112845064D01*
X116509500Y-112850470D01*
X116509500Y-112858709D01*
X116513306Y-112891274D01*
X116520000Y-112967791D01*
X116521461Y-112974867D01*
X116521403Y-112974878D01*
X116523034Y-112982237D01*
X116523092Y-112982224D01*
X116524757Y-112989250D01*
X116551025Y-113061424D01*
X116575185Y-113134331D01*
X116578236Y-113140874D01*
X116578182Y-113140898D01*
X116581470Y-113147688D01*
X116581521Y-113147663D01*
X116584761Y-113154113D01*
X116584762Y-113154114D01*
X116584763Y-113154117D01*
X116599490Y-113176508D01*
X116626965Y-113218283D01*
X116667287Y-113283655D01*
X116671766Y-113289319D01*
X116671719Y-113289355D01*
X116676483Y-113295202D01*
X116676529Y-113295164D01*
X116681165Y-113300689D01*
X116681170Y-113300696D01*
X116685591Y-113304867D01*
X116720847Y-113365186D01*
X116724500Y-113395063D01*
X116724500Y-114871294D01*
X116723191Y-114889263D01*
X116719710Y-114913025D01*
X116724264Y-114965064D01*
X116724500Y-114970470D01*
X116724500Y-114978709D01*
X116724938Y-114982461D01*
X116728306Y-115011274D01*
X116735000Y-115087791D01*
X116736461Y-115094867D01*
X116736403Y-115094878D01*
X116738034Y-115102237D01*
X116738092Y-115102224D01*
X116739757Y-115109250D01*
X116766025Y-115181424D01*
X116790185Y-115254331D01*
X116793236Y-115260874D01*
X116793182Y-115260898D01*
X116796470Y-115267688D01*
X116796521Y-115267663D01*
X116799761Y-115274113D01*
X116799762Y-115274114D01*
X116799763Y-115274117D01*
X116818816Y-115303086D01*
X116841965Y-115338283D01*
X116882287Y-115403655D01*
X116886766Y-115409319D01*
X116886719Y-115409356D01*
X116891482Y-115415202D01*
X116891528Y-115415164D01*
X116896173Y-115420700D01*
X116952018Y-115473386D01*
X118169267Y-116690634D01*
X118181048Y-116704266D01*
X118195390Y-116723530D01*
X118235420Y-116757119D01*
X118239392Y-116760759D01*
X118245223Y-116766590D01*
X118245222Y-116766590D01*
X118267027Y-116783830D01*
X118270944Y-116786927D01*
X118329786Y-116836302D01*
X118329794Y-116836306D01*
X118335824Y-116840273D01*
X118335790Y-116840323D01*
X118342137Y-116844366D01*
X118342169Y-116844316D01*
X118348318Y-116848108D01*
X118348320Y-116848109D01*
X118348323Y-116848111D01*
X118417930Y-116880569D01*
X118486567Y-116915040D01*
X118486576Y-116915042D01*
X118493355Y-116917510D01*
X118493334Y-116917567D01*
X118500451Y-116920040D01*
X118500470Y-116919984D01*
X118507330Y-116922257D01*
X118582532Y-116937784D01*
X118657279Y-116955500D01*
X118657288Y-116955500D01*
X118664452Y-116956338D01*
X118664445Y-116956397D01*
X118671946Y-116957163D01*
X118671952Y-116957104D01*
X118679140Y-116957733D01*
X118679143Y-116957732D01*
X118679144Y-116957733D01*
X118755898Y-116955500D01*
X132016295Y-116955500D01*
X132034265Y-116956809D01*
X132058023Y-116960289D01*
X132110068Y-116955735D01*
X132115470Y-116955500D01*
X132123704Y-116955500D01*
X132123709Y-116955500D01*
X132135327Y-116954141D01*
X132156276Y-116951693D01*
X132169028Y-116950577D01*
X132232797Y-116944999D01*
X132232805Y-116944996D01*
X132239866Y-116943539D01*
X132239878Y-116943598D01*
X132247243Y-116941965D01*
X132247229Y-116941906D01*
X132254246Y-116940241D01*
X132254255Y-116940241D01*
X132326423Y-116913974D01*
X132399334Y-116889814D01*
X132399343Y-116889807D01*
X132405882Y-116886760D01*
X132405908Y-116886816D01*
X132412690Y-116883532D01*
X132412663Y-116883478D01*
X132419106Y-116880240D01*
X132419117Y-116880237D01*
X132483283Y-116838034D01*
X132548656Y-116797712D01*
X132548662Y-116797705D01*
X132554325Y-116793229D01*
X132554363Y-116793277D01*
X132560200Y-116788522D01*
X132560161Y-116788475D01*
X132565696Y-116783830D01*
X132618385Y-116727982D01*
X134259549Y-115086819D01*
X134320872Y-115053334D01*
X134347230Y-115050500D01*
X134378337Y-115050500D01*
X134445376Y-115070185D01*
X134479912Y-115103377D01*
X134504954Y-115139141D01*
X134665858Y-115300045D01*
X134665861Y-115300047D01*
X134852266Y-115430568D01*
X135058504Y-115526739D01*
X135278308Y-115585635D01*
X135448216Y-115600500D01*
X136361784Y-115600500D01*
X136531692Y-115585635D01*
X136751496Y-115526739D01*
X136957734Y-115430568D01*
X137144139Y-115300047D01*
X137305047Y-115139139D01*
X137435568Y-114952734D01*
X137476654Y-114864623D01*
X137522826Y-114812184D01*
X137525917Y-114810295D01*
X137546420Y-114798170D01*
X137560589Y-114783999D01*
X137575379Y-114771368D01*
X137591587Y-114759594D01*
X137621299Y-114723676D01*
X137625212Y-114719376D01*
X138178786Y-114165802D01*
X138191048Y-114155980D01*
X138190865Y-114155759D01*
X138196867Y-114150792D01*
X138196877Y-114150786D01*
X138244241Y-114100348D01*
X138265120Y-114079470D01*
X138269373Y-114073986D01*
X138273150Y-114069563D01*
X138305062Y-114035582D01*
X138314714Y-114018023D01*
X138325389Y-114001772D01*
X138337674Y-113985936D01*
X138356186Y-113943152D01*
X138358742Y-113937935D01*
X138381197Y-113897092D01*
X138386180Y-113877680D01*
X138392477Y-113859291D01*
X138400438Y-113840895D01*
X138407729Y-113794853D01*
X138408908Y-113789162D01*
X138420500Y-113744019D01*
X138420500Y-113723983D01*
X138422027Y-113704582D01*
X138425160Y-113684804D01*
X138420775Y-113638415D01*
X138420500Y-113632577D01*
X138420500Y-111760001D01*
X141819532Y-111760001D01*
X141839364Y-111986686D01*
X141839366Y-111986697D01*
X141898258Y-112206488D01*
X141898261Y-112206497D01*
X141994431Y-112412732D01*
X141994432Y-112412734D01*
X142124954Y-112599141D01*
X142285858Y-112760045D01*
X142310462Y-112777273D01*
X142354087Y-112831849D01*
X142361281Y-112901348D01*
X142329758Y-112963703D01*
X142269529Y-112999117D01*
X142252593Y-113002138D01*
X142217516Y-113005908D01*
X142082671Y-113056202D01*
X142082664Y-113056206D01*
X141967455Y-113142452D01*
X141967452Y-113142455D01*
X141881206Y-113257664D01*
X141881202Y-113257671D01*
X141830908Y-113392517D01*
X141825564Y-113442228D01*
X141824501Y-113452123D01*
X141824500Y-113452135D01*
X141824500Y-115147870D01*
X141824501Y-115147876D01*
X141830908Y-115207483D01*
X141881202Y-115342328D01*
X141881206Y-115342335D01*
X141967452Y-115457544D01*
X141967455Y-115457547D01*
X142082664Y-115543793D01*
X142082671Y-115543797D01*
X142217517Y-115594091D01*
X142217516Y-115594091D01*
X142224444Y-115594835D01*
X142277127Y-115600500D01*
X144772872Y-115600499D01*
X144832483Y-115594091D01*
X144967331Y-115543796D01*
X145082546Y-115457546D01*
X145168796Y-115342331D01*
X145219091Y-115207483D01*
X145225500Y-115147873D01*
X145225500Y-115049500D01*
X145245185Y-114982461D01*
X145297989Y-114936706D01*
X145349500Y-114925500D01*
X145967257Y-114925500D01*
X145982877Y-114927224D01*
X145982904Y-114926939D01*
X145990660Y-114927671D01*
X145990667Y-114927673D01*
X146059814Y-114925500D01*
X146089350Y-114925500D01*
X146096228Y-114924630D01*
X146102041Y-114924172D01*
X146148627Y-114922709D01*
X146167869Y-114917117D01*
X146186912Y-114913174D01*
X146206792Y-114910664D01*
X146250122Y-114893507D01*
X146255646Y-114891617D01*
X146259396Y-114890527D01*
X146300390Y-114878618D01*
X146317629Y-114868422D01*
X146335103Y-114859862D01*
X146353727Y-114852488D01*
X146353727Y-114852487D01*
X146353732Y-114852486D01*
X146391449Y-114825082D01*
X146396305Y-114821892D01*
X146436420Y-114798170D01*
X146450589Y-114783999D01*
X146465379Y-114771368D01*
X146481587Y-114759594D01*
X146511299Y-114723676D01*
X146515212Y-114719376D01*
X147068786Y-114165802D01*
X147081048Y-114155980D01*
X147080865Y-114155759D01*
X147092891Y-114145811D01*
X147093902Y-114147033D01*
X147146323Y-114116226D01*
X147216138Y-114119011D01*
X147273363Y-114159098D01*
X147299832Y-114223760D01*
X147300016Y-114247307D01*
X147294532Y-114309996D01*
X147294532Y-114310001D01*
X147314364Y-114536686D01*
X147314366Y-114536697D01*
X147373258Y-114756488D01*
X147373261Y-114756497D01*
X147469431Y-114962732D01*
X147469432Y-114962734D01*
X147599954Y-115149141D01*
X147760858Y-115310045D01*
X147760861Y-115310047D01*
X147947266Y-115440568D01*
X148153504Y-115536739D01*
X148153509Y-115536740D01*
X148153511Y-115536741D01*
X148206415Y-115550916D01*
X148373308Y-115595635D01*
X148535230Y-115609801D01*
X148599998Y-115615468D01*
X148600000Y-115615468D01*
X148600002Y-115615468D01*
X148656673Y-115610509D01*
X148826692Y-115595635D01*
X149046496Y-115536739D01*
X149252734Y-115440568D01*
X149439139Y-115310047D01*
X149600047Y-115149139D01*
X149730568Y-114962734D01*
X149826739Y-114756496D01*
X149885635Y-114536692D01*
X149905468Y-114310000D01*
X149885635Y-114083308D01*
X149826739Y-113863504D01*
X149730568Y-113657266D01*
X149600047Y-113470861D01*
X149600045Y-113470858D01*
X149439141Y-113309954D01*
X149252734Y-113179432D01*
X149252728Y-113179429D01*
X149198446Y-113154117D01*
X149194724Y-113152381D01*
X149142285Y-113106210D01*
X149123133Y-113039017D01*
X149143348Y-112972135D01*
X149194725Y-112927618D01*
X149252734Y-112900568D01*
X149439139Y-112770047D01*
X149600047Y-112609139D01*
X149712613Y-112448377D01*
X149767189Y-112404752D01*
X149814188Y-112395500D01*
X150402257Y-112395500D01*
X150417877Y-112397224D01*
X150417904Y-112396939D01*
X150425660Y-112397671D01*
X150425667Y-112397673D01*
X150494814Y-112395500D01*
X150524350Y-112395500D01*
X150531228Y-112394630D01*
X150537041Y-112394172D01*
X150583627Y-112392709D01*
X150602869Y-112387117D01*
X150621912Y-112383174D01*
X150641792Y-112380664D01*
X150685122Y-112363507D01*
X150690646Y-112361617D01*
X150694396Y-112360527D01*
X150735390Y-112348618D01*
X150752629Y-112338422D01*
X150770103Y-112329862D01*
X150788727Y-112322488D01*
X150788727Y-112322487D01*
X150788732Y-112322486D01*
X150826449Y-112295082D01*
X150831305Y-112291892D01*
X150871420Y-112268170D01*
X150885589Y-112253999D01*
X150900379Y-112241368D01*
X150916587Y-112229594D01*
X150946299Y-112193676D01*
X150950212Y-112189376D01*
X153467821Y-109671768D01*
X153529142Y-109638285D01*
X153598834Y-109643269D01*
X153654767Y-109685141D01*
X153679184Y-109750605D01*
X153679500Y-109759451D01*
X153679500Y-111042255D01*
X153677775Y-111057872D01*
X153678061Y-111057899D01*
X153677326Y-111065665D01*
X153679500Y-111134814D01*
X153679500Y-111164343D01*
X153679501Y-111164360D01*
X153680368Y-111171231D01*
X153680826Y-111177050D01*
X153682290Y-111223624D01*
X153682291Y-111223627D01*
X153687880Y-111242867D01*
X153691824Y-111261911D01*
X153694336Y-111281792D01*
X153711490Y-111325119D01*
X153713382Y-111330647D01*
X153726381Y-111375388D01*
X153736580Y-111392634D01*
X153745138Y-111410103D01*
X153752514Y-111428732D01*
X153779898Y-111466423D01*
X153783106Y-111471307D01*
X153806827Y-111511416D01*
X153806833Y-111511424D01*
X153820990Y-111525580D01*
X153833628Y-111540376D01*
X153845405Y-111556586D01*
X153845406Y-111556587D01*
X153881309Y-111586288D01*
X153885620Y-111590210D01*
X154176727Y-111881317D01*
X154449194Y-112153784D01*
X154459019Y-112166048D01*
X154459240Y-112165866D01*
X154464210Y-112171873D01*
X154464213Y-112171876D01*
X154464214Y-112171877D01*
X154514651Y-112219241D01*
X154535530Y-112240120D01*
X154541004Y-112244366D01*
X154545442Y-112248156D01*
X154579418Y-112280062D01*
X154579422Y-112280064D01*
X154596973Y-112289713D01*
X154613231Y-112300392D01*
X154629064Y-112312674D01*
X154651015Y-112322172D01*
X154671837Y-112331183D01*
X154677081Y-112333752D01*
X154717908Y-112356197D01*
X154737312Y-112361179D01*
X154755710Y-112367478D01*
X154774105Y-112375438D01*
X154820129Y-112382726D01*
X154825832Y-112383907D01*
X154870981Y-112395500D01*
X154891016Y-112395500D01*
X154910413Y-112397026D01*
X154930196Y-112400160D01*
X154976584Y-112395775D01*
X154982422Y-112395500D01*
X155005812Y-112395500D01*
X155072851Y-112415185D01*
X155107387Y-112448377D01*
X155219954Y-112609141D01*
X155380858Y-112770045D01*
X155380861Y-112770047D01*
X155567266Y-112900568D01*
X155604662Y-112918006D01*
X155625275Y-112927618D01*
X155677714Y-112973791D01*
X155696866Y-113040984D01*
X155676650Y-113107865D01*
X155625275Y-113152381D01*
X155621554Y-113154117D01*
X155567267Y-113179431D01*
X155567265Y-113179432D01*
X155380858Y-113309954D01*
X155219954Y-113470858D01*
X155089432Y-113657265D01*
X155089431Y-113657267D01*
X154993261Y-113863502D01*
X154993258Y-113863511D01*
X154934366Y-114083302D01*
X154934364Y-114083313D01*
X154914532Y-114309998D01*
X154914532Y-114310001D01*
X154934364Y-114536686D01*
X154934366Y-114536697D01*
X154993258Y-114756488D01*
X154993261Y-114756497D01*
X155089431Y-114962732D01*
X155089432Y-114962734D01*
X155219954Y-115149141D01*
X155380858Y-115310045D01*
X155380861Y-115310047D01*
X155567266Y-115440568D01*
X155773504Y-115536739D01*
X155773509Y-115536740D01*
X155773511Y-115536741D01*
X155826415Y-115550916D01*
X155993308Y-115595635D01*
X156155230Y-115609801D01*
X156219998Y-115615468D01*
X156220000Y-115615468D01*
X156220002Y-115615468D01*
X156276673Y-115610509D01*
X156446692Y-115595635D01*
X156666496Y-115536739D01*
X156872734Y-115440568D01*
X157059139Y-115310047D01*
X157220047Y-115149139D01*
X157350568Y-114962734D01*
X157446739Y-114756496D01*
X157505635Y-114536692D01*
X157525468Y-114310000D01*
X157505635Y-114083308D01*
X157446739Y-113863504D01*
X157350568Y-113657266D01*
X157220047Y-113470861D01*
X157220045Y-113470858D01*
X157059141Y-113309954D01*
X156872734Y-113179432D01*
X156872728Y-113179429D01*
X156818446Y-113154117D01*
X156814724Y-113152381D01*
X156762285Y-113106210D01*
X156743133Y-113039017D01*
X156763348Y-112972135D01*
X156814725Y-112927618D01*
X156872734Y-112900568D01*
X157059139Y-112770047D01*
X157220047Y-112609139D01*
X157245088Y-112573377D01*
X157299665Y-112529752D01*
X157346663Y-112520500D01*
X160450501Y-112520500D01*
X160517540Y-112540185D01*
X160563295Y-112592989D01*
X160574501Y-112644500D01*
X160574501Y-112657876D01*
X160580908Y-112717483D01*
X160631202Y-112852328D01*
X160631206Y-112852335D01*
X160717452Y-112967544D01*
X160717455Y-112967547D01*
X160832664Y-113053793D01*
X160832671Y-113053797D01*
X160964081Y-113102810D01*
X161020015Y-113144681D01*
X161044432Y-113210145D01*
X161029580Y-113278418D01*
X161008430Y-113306673D01*
X160886503Y-113428600D01*
X160750965Y-113622169D01*
X160750964Y-113622171D01*
X160651098Y-113836335D01*
X160651094Y-113836344D01*
X160589938Y-114064586D01*
X160589936Y-114064596D01*
X160569341Y-114299999D01*
X160569341Y-114300000D01*
X160589936Y-114535403D01*
X160589938Y-114535413D01*
X160651094Y-114763655D01*
X160651096Y-114763659D01*
X160651097Y-114763663D01*
X160711144Y-114892433D01*
X160750965Y-114977830D01*
X160750967Y-114977834D01*
X160827965Y-115087797D01*
X160886505Y-115171401D01*
X161053599Y-115338495D01*
X161076361Y-115354433D01*
X161247165Y-115474032D01*
X161247167Y-115474033D01*
X161247170Y-115474035D01*
X161461337Y-115573903D01*
X161689592Y-115635063D01*
X161877918Y-115651539D01*
X161924999Y-115655659D01*
X161925000Y-115655659D01*
X161925001Y-115655659D01*
X161964234Y-115652226D01*
X162160408Y-115635063D01*
X162388663Y-115573903D01*
X162602830Y-115474035D01*
X162796401Y-115338495D01*
X162963495Y-115171401D01*
X163099035Y-114977830D01*
X163198903Y-114763663D01*
X163260063Y-114535408D01*
X163280659Y-114300000D01*
X163260063Y-114064592D01*
X163198903Y-113836337D01*
X163099035Y-113622171D01*
X163087256Y-113605349D01*
X162963496Y-113428600D01*
X162908523Y-113373627D01*
X162841567Y-113306671D01*
X162808084Y-113245351D01*
X162813068Y-113175659D01*
X162854939Y-113119725D01*
X162885915Y-113102810D01*
X163017331Y-113053796D01*
X163049116Y-113030002D01*
X165604652Y-113030002D01*
X165609017Y-113110500D01*
X165617056Y-113258788D01*
X165624028Y-113387368D01*
X165624029Y-113387385D01*
X165681926Y-113740539D01*
X165681932Y-113740565D01*
X165777672Y-114085392D01*
X165777674Y-114085399D01*
X165910142Y-114417870D01*
X165910151Y-114417888D01*
X166077784Y-114734077D01*
X166077787Y-114734082D01*
X166077789Y-114734085D01*
X166265728Y-115011275D01*
X166278634Y-115030309D01*
X166278641Y-115030319D01*
X166510331Y-115303085D01*
X166510332Y-115303086D01*
X166770163Y-115549211D01*
X167055081Y-115765800D01*
X167361747Y-115950315D01*
X167361749Y-115950316D01*
X167361751Y-115950317D01*
X167361755Y-115950319D01*
X167686552Y-116100585D01*
X167686565Y-116100591D01*
X168025726Y-116214868D01*
X168375254Y-116291805D01*
X168731052Y-116330500D01*
X168731058Y-116330500D01*
X169088942Y-116330500D01*
X169088948Y-116330500D01*
X169444746Y-116291805D01*
X169794274Y-116214868D01*
X170133435Y-116100591D01*
X170458253Y-115950315D01*
X170764919Y-115765800D01*
X171049837Y-115549211D01*
X171309668Y-115303086D01*
X171541365Y-115030311D01*
X171742211Y-114734085D01*
X171909853Y-114417880D01*
X172042324Y-114085403D01*
X172138071Y-113740552D01*
X172160784Y-113602011D01*
X172195970Y-113387385D01*
X172195970Y-113387382D01*
X172195972Y-113387371D01*
X172214058Y-113053793D01*
X172215348Y-113030002D01*
X172215348Y-113029997D01*
X172209276Y-112918006D01*
X172195972Y-112672629D01*
X172194718Y-112664981D01*
X172138073Y-112319460D01*
X172138072Y-112319459D01*
X172138071Y-112319448D01*
X172090358Y-112147602D01*
X172042327Y-111974607D01*
X172042325Y-111974600D01*
X172037419Y-111962288D01*
X171968153Y-111788442D01*
X171909857Y-111642129D01*
X171909848Y-111642111D01*
X171893273Y-111610848D01*
X171835807Y-111502456D01*
X171742215Y-111325922D01*
X171742213Y-111325919D01*
X171742211Y-111325915D01*
X171541365Y-111029689D01*
X171541361Y-111029684D01*
X171541358Y-111029680D01*
X171309668Y-110756914D01*
X171242631Y-110693413D01*
X171049837Y-110510789D01*
X171049830Y-110510783D01*
X171049827Y-110510781D01*
X170935393Y-110423791D01*
X170764919Y-110294200D01*
X170458253Y-110109685D01*
X170458252Y-110109684D01*
X170458248Y-110109682D01*
X170458244Y-110109680D01*
X170133447Y-109959414D01*
X170133441Y-109959411D01*
X170133435Y-109959409D01*
X169946699Y-109896490D01*
X169794273Y-109845131D01*
X169444744Y-109768194D01*
X169088949Y-109729500D01*
X169088948Y-109729500D01*
X168731052Y-109729500D01*
X168731050Y-109729500D01*
X168375255Y-109768194D01*
X168025726Y-109845131D01*
X167780798Y-109927658D01*
X167686565Y-109959409D01*
X167686563Y-109959410D01*
X167686552Y-109959414D01*
X167361755Y-110109680D01*
X167361751Y-110109682D01*
X167269033Y-110165469D01*
X167055081Y-110294200D01*
X166980930Y-110350568D01*
X166770172Y-110510781D01*
X166770163Y-110510789D01*
X166510331Y-110756914D01*
X166278641Y-111029680D01*
X166278634Y-111029690D01*
X166077790Y-111325913D01*
X166077784Y-111325922D01*
X165910151Y-111642111D01*
X165910142Y-111642129D01*
X165777674Y-111974600D01*
X165777672Y-111974607D01*
X165681932Y-112319434D01*
X165681926Y-112319460D01*
X165624029Y-112672614D01*
X165624028Y-112672627D01*
X165624028Y-112672629D01*
X165619288Y-112760046D01*
X165604652Y-113029997D01*
X165604652Y-113030002D01*
X163049116Y-113030002D01*
X163132546Y-112967546D01*
X163218796Y-112852331D01*
X163269091Y-112717483D01*
X163275500Y-112657873D01*
X163275499Y-110862128D01*
X163269091Y-110802517D01*
X163262025Y-110783573D01*
X163218797Y-110667671D01*
X163218793Y-110667664D01*
X163157215Y-110585408D01*
X163132546Y-110552454D01*
X163082038Y-110514643D01*
X163040168Y-110458711D01*
X163035184Y-110389019D01*
X163068667Y-110327699D01*
X166539549Y-106856819D01*
X166600872Y-106823334D01*
X166627230Y-106820500D01*
X168056643Y-106820500D01*
X168056645Y-106820500D01*
X168241169Y-106805210D01*
X168480623Y-106744572D01*
X168706831Y-106645348D01*
X168913621Y-106510245D01*
X169095355Y-106342948D01*
X169247073Y-106148020D01*
X169364638Y-105930779D01*
X169444843Y-105697150D01*
X169485500Y-105453506D01*
X169485500Y-105206494D01*
X169444843Y-104962850D01*
X169364638Y-104729221D01*
X169247073Y-104511980D01*
X169247071Y-104511977D01*
X169247067Y-104511971D01*
X169095360Y-104317058D01*
X169095357Y-104317055D01*
X169095355Y-104317052D01*
X168913621Y-104149755D01*
X168913618Y-104149753D01*
X168913617Y-104149752D01*
X168831289Y-104095965D01*
X168706831Y-104014652D01*
X168706828Y-104014650D01*
X168706827Y-104014650D01*
X168480623Y-103915428D01*
X168378654Y-103889606D01*
X168280325Y-103864705D01*
X168220170Y-103829166D01*
X168188778Y-103766746D01*
X168196116Y-103697263D01*
X168239855Y-103642777D01*
X168306107Y-103620588D01*
X168310766Y-103620500D01*
X168846295Y-103620500D01*
X168864265Y-103621809D01*
X168888023Y-103625289D01*
X168940068Y-103620735D01*
X168945470Y-103620500D01*
X168953704Y-103620500D01*
X168953709Y-103620500D01*
X168965327Y-103619141D01*
X168986276Y-103616693D01*
X168999028Y-103615577D01*
X169062797Y-103609999D01*
X169062805Y-103609996D01*
X169069866Y-103608539D01*
X169069878Y-103608598D01*
X169077243Y-103606965D01*
X169077229Y-103606906D01*
X169084246Y-103605241D01*
X169084255Y-103605241D01*
X169156423Y-103578974D01*
X169229334Y-103554814D01*
X169229343Y-103554807D01*
X169235882Y-103551760D01*
X169235908Y-103551816D01*
X169242690Y-103548532D01*
X169242663Y-103548478D01*
X169249106Y-103545240D01*
X169249117Y-103545237D01*
X169313283Y-103503034D01*
X169378656Y-103462712D01*
X169378662Y-103462705D01*
X169384325Y-103458229D01*
X169384362Y-103458277D01*
X169390204Y-103453518D01*
X169390164Y-103453471D01*
X169395686Y-103448836D01*
X169395696Y-103448830D01*
X169425456Y-103417286D01*
X169448386Y-103392982D01*
X170402227Y-102439139D01*
X170665638Y-102175727D01*
X170679267Y-102163950D01*
X170683196Y-102161025D01*
X170698530Y-102149610D01*
X170698532Y-102149606D01*
X170698534Y-102149606D01*
X170724893Y-102118191D01*
X170732113Y-102109585D01*
X170735767Y-102105599D01*
X170741589Y-102099778D01*
X170761928Y-102074054D01*
X170780348Y-102052102D01*
X170811302Y-102015214D01*
X170811304Y-102015209D01*
X170815272Y-102009179D01*
X170815323Y-102009212D01*
X170819369Y-102002860D01*
X170819317Y-102002828D01*
X170823109Y-101996679D01*
X170823111Y-101996677D01*
X170855569Y-101927069D01*
X170890040Y-101858433D01*
X170890043Y-101858417D01*
X170892510Y-101851644D01*
X170892568Y-101851665D01*
X170895043Y-101844546D01*
X170894985Y-101844527D01*
X170897256Y-101837672D01*
X170899525Y-101826686D01*
X170912784Y-101762467D01*
X170930500Y-101687721D01*
X170930500Y-101687720D01*
X170931339Y-101680548D01*
X170931397Y-101680554D01*
X170932164Y-101673056D01*
X170932104Y-101673051D01*
X170932733Y-101665860D01*
X170932123Y-101644907D01*
X170930500Y-101589102D01*
X170930500Y-95948705D01*
X170931809Y-95930735D01*
X170933169Y-95921450D01*
X170935289Y-95906977D01*
X170934197Y-95894500D01*
X170930736Y-95854934D01*
X170930500Y-95849528D01*
X170930500Y-95841297D01*
X170930500Y-95841291D01*
X170926693Y-95808724D01*
X170926157Y-95802593D01*
X170919999Y-95732201D01*
X170918539Y-95725129D01*
X170918597Y-95725116D01*
X170916965Y-95717757D01*
X170916906Y-95717772D01*
X170915242Y-95710753D01*
X170915241Y-95710745D01*
X170888974Y-95638576D01*
X170864814Y-95565666D01*
X170864809Y-95565659D01*
X170861760Y-95559118D01*
X170861815Y-95559091D01*
X170858533Y-95552313D01*
X170858480Y-95552340D01*
X170855235Y-95545880D01*
X170813028Y-95481708D01*
X170772710Y-95416342D01*
X170768234Y-95410682D01*
X170768281Y-95410644D01*
X170763519Y-95404799D01*
X170763473Y-95404838D01*
X170758833Y-95399308D01*
X170758830Y-95399304D01*
X170702966Y-95346598D01*
X170092385Y-94736017D01*
X170089927Y-94733411D01*
X170047327Y-94685541D01*
X170047325Y-94685540D01*
X170029793Y-94673264D01*
X169994825Y-94648779D01*
X169991959Y-94646646D01*
X169941677Y-94606889D01*
X169941676Y-94606888D01*
X169931509Y-94602147D01*
X169912799Y-94591344D01*
X169903616Y-94584915D01*
X169903610Y-94584911D01*
X169844058Y-94561252D01*
X169840747Y-94559823D01*
X169782673Y-94532742D01*
X169771686Y-94530474D01*
X169750983Y-94524275D01*
X169740572Y-94520139D01*
X169740568Y-94520138D01*
X169740567Y-94520138D01*
X169716386Y-94516596D01*
X169677167Y-94510851D01*
X169673624Y-94510226D01*
X169647119Y-94504753D01*
X169610858Y-94497266D01*
X169603662Y-94496637D01*
X169603825Y-94494770D01*
X169545507Y-94479465D01*
X169498243Y-94428008D01*
X169485499Y-94373253D01*
X169485499Y-94292129D01*
X169485498Y-94292123D01*
X169485497Y-94292116D01*
X169479091Y-94232517D01*
X169478152Y-94230000D01*
X169428797Y-94097671D01*
X169428793Y-94097664D01*
X169342547Y-93982455D01*
X169342544Y-93982452D01*
X169227335Y-93896206D01*
X169227328Y-93896202D01*
X169092482Y-93845908D01*
X169092483Y-93845908D01*
X169032883Y-93839501D01*
X169032881Y-93839500D01*
X169032873Y-93839500D01*
X169032864Y-93839500D01*
X164977129Y-93839500D01*
X164977123Y-93839501D01*
X164917516Y-93845908D01*
X164782671Y-93896202D01*
X164782664Y-93896206D01*
X164667455Y-93982452D01*
X164667452Y-93982455D01*
X164581206Y-94097664D01*
X164581202Y-94097671D01*
X164530908Y-94232517D01*
X164524501Y-94292116D01*
X164524501Y-94292123D01*
X164524500Y-94292135D01*
X164524500Y-96367870D01*
X164524501Y-96367876D01*
X164530908Y-96427483D01*
X164581202Y-96562328D01*
X164581206Y-96562335D01*
X164667452Y-96677544D01*
X164667455Y-96677547D01*
X164782664Y-96763793D01*
X164782671Y-96763797D01*
X164917517Y-96814091D01*
X164917516Y-96814091D01*
X164924444Y-96814835D01*
X164977127Y-96820500D01*
X169032872Y-96820499D01*
X169092483Y-96814091D01*
X169227331Y-96763796D01*
X169231185Y-96760910D01*
X169296647Y-96736490D01*
X169364921Y-96751339D01*
X169414329Y-96800741D01*
X169429500Y-96860174D01*
X169429500Y-99385975D01*
X169409815Y-99453014D01*
X169357011Y-99498769D01*
X169287853Y-99508713D01*
X169224297Y-99479688D01*
X169207647Y-99462138D01*
X169094987Y-99317394D01*
X168913311Y-99150148D01*
X168706591Y-99015092D01*
X168480460Y-98915901D01*
X168241090Y-98855284D01*
X168056631Y-98840000D01*
X167255000Y-98840000D01*
X167255000Y-99718942D01*
X167164108Y-99684472D01*
X167044919Y-99670000D01*
X166965081Y-99670000D01*
X166845892Y-99684472D01*
X166755000Y-99718942D01*
X166755000Y-98840000D01*
X165953369Y-98840000D01*
X165768909Y-98855284D01*
X165529539Y-98915901D01*
X165303408Y-99015092D01*
X165096688Y-99150148D01*
X164915011Y-99317394D01*
X164915008Y-99317398D01*
X164763352Y-99512245D01*
X164763348Y-99512251D01*
X164645821Y-99729421D01*
X164645818Y-99729429D01*
X164565643Y-99962970D01*
X164546114Y-100079999D01*
X164546116Y-100080000D01*
X166390832Y-100080000D01*
X166383357Y-100094242D01*
X166345000Y-100249862D01*
X166345000Y-100410138D01*
X166383357Y-100565758D01*
X166390832Y-100580000D01*
X164546115Y-100580000D01*
X164565643Y-100697029D01*
X164645818Y-100930570D01*
X164645821Y-100930578D01*
X164763348Y-101147748D01*
X164763352Y-101147754D01*
X164915008Y-101342601D01*
X164915011Y-101342605D01*
X165096688Y-101509851D01*
X165303408Y-101644907D01*
X165529539Y-101744098D01*
X165768909Y-101804715D01*
X165953369Y-101820000D01*
X166755000Y-101820000D01*
X166755000Y-100941057D01*
X166845892Y-100975528D01*
X166965081Y-100990000D01*
X167044919Y-100990000D01*
X167164108Y-100975528D01*
X167255000Y-100941057D01*
X167255000Y-101820000D01*
X168056631Y-101820000D01*
X168241090Y-101804715D01*
X168480460Y-101744098D01*
X168706593Y-101644906D01*
X168764688Y-101606951D01*
X168831577Y-101586763D01*
X168898763Y-101605942D01*
X168944914Y-101658401D01*
X168955377Y-101727482D01*
X168926831Y-101791255D01*
X168920191Y-101798440D01*
X168635451Y-102083181D01*
X168574128Y-102116666D01*
X168547770Y-102119500D01*
X163893705Y-102119500D01*
X163875735Y-102118191D01*
X163851972Y-102114710D01*
X163806533Y-102118686D01*
X163799931Y-102119264D01*
X163794530Y-102119500D01*
X163786289Y-102119500D01*
X163764579Y-102122037D01*
X163753724Y-102123306D01*
X163738419Y-102124645D01*
X163677199Y-102130001D01*
X163670132Y-102131460D01*
X163670120Y-102131404D01*
X163662763Y-102133035D01*
X163662777Y-102133092D01*
X163655743Y-102134759D01*
X163583575Y-102161025D01*
X163510675Y-102185181D01*
X163504126Y-102188236D01*
X163504101Y-102188183D01*
X163497308Y-102191471D01*
X163497334Y-102191523D01*
X163490880Y-102194764D01*
X163426708Y-102236971D01*
X163361347Y-102277285D01*
X163355683Y-102281765D01*
X163355647Y-102281719D01*
X163349797Y-102286485D01*
X163349834Y-102286529D01*
X163344305Y-102291168D01*
X163291598Y-102347033D01*
X162709358Y-102929272D01*
X162695729Y-102941051D01*
X162676468Y-102955390D01*
X162642898Y-102995397D01*
X162639253Y-102999376D01*
X162633409Y-103005222D01*
X162613059Y-103030959D01*
X162563695Y-103089789D01*
X162559729Y-103095819D01*
X162559682Y-103095788D01*
X162555630Y-103102147D01*
X162555679Y-103102177D01*
X162551889Y-103108321D01*
X162519424Y-103177941D01*
X162484960Y-103246566D01*
X162482488Y-103253357D01*
X162482432Y-103253336D01*
X162479960Y-103260450D01*
X162480015Y-103260469D01*
X162477742Y-103267327D01*
X162469975Y-103304946D01*
X162462207Y-103342565D01*
X162450259Y-103392981D01*
X162444498Y-103417286D01*
X162443661Y-103424454D01*
X162443601Y-103424447D01*
X162442835Y-103431945D01*
X162442895Y-103431951D01*
X162442265Y-103439140D01*
X162444500Y-103515916D01*
X162444500Y-105047770D01*
X162424815Y-105114809D01*
X162408181Y-105135451D01*
X159100451Y-108443181D01*
X159039128Y-108476666D01*
X159012770Y-108479500D01*
X157346663Y-108479500D01*
X157279624Y-108459815D01*
X157245088Y-108426623D01*
X157220045Y-108390858D01*
X157059141Y-108229954D01*
X156872734Y-108099432D01*
X156872728Y-108099429D01*
X156814725Y-108072382D01*
X156762285Y-108026210D01*
X156743133Y-107959017D01*
X156763348Y-107892135D01*
X156814725Y-107847618D01*
X156872734Y-107820568D01*
X157059139Y-107690047D01*
X157220047Y-107529139D01*
X157350568Y-107342734D01*
X157446739Y-107136496D01*
X157505635Y-106916692D01*
X157525468Y-106690000D01*
X157521561Y-106645348D01*
X157519020Y-106616294D01*
X157505635Y-106463308D01*
X157446739Y-106243504D01*
X157350568Y-106037266D01*
X157220047Y-105850861D01*
X157220045Y-105850858D01*
X157059141Y-105689954D01*
X156872734Y-105559432D01*
X156872732Y-105559431D01*
X156666497Y-105463261D01*
X156666488Y-105463258D01*
X156446697Y-105404366D01*
X156446693Y-105404365D01*
X156446692Y-105404365D01*
X156446691Y-105404364D01*
X156446686Y-105404364D01*
X156220002Y-105384532D01*
X156219998Y-105384532D01*
X155993313Y-105404364D01*
X155993302Y-105404366D01*
X155773511Y-105463258D01*
X155773502Y-105463261D01*
X155567267Y-105559431D01*
X155567265Y-105559432D01*
X155380858Y-105689954D01*
X155219954Y-105850858D01*
X155156075Y-105942089D01*
X155101499Y-105985714D01*
X155032000Y-105992908D01*
X154969645Y-105961386D01*
X154934231Y-105901156D01*
X154930500Y-105870966D01*
X154930500Y-103815452D01*
X154950185Y-103748413D01*
X154966819Y-103727771D01*
X155222772Y-103471818D01*
X155284095Y-103438333D01*
X155310453Y-103435499D01*
X155610002Y-103435499D01*
X155610008Y-103435499D01*
X155712797Y-103424999D01*
X155879334Y-103369814D01*
X156028656Y-103277712D01*
X156122319Y-103184049D01*
X156183642Y-103150564D01*
X156253334Y-103155548D01*
X156297681Y-103184049D01*
X156391344Y-103277712D01*
X156540666Y-103369814D01*
X156707203Y-103424999D01*
X156809991Y-103435500D01*
X157109547Y-103435499D01*
X157176586Y-103455183D01*
X157197228Y-103471818D01*
X157932151Y-104206742D01*
X157965636Y-104268065D01*
X157960652Y-104337757D01*
X157951857Y-104356423D01*
X157922821Y-104406714D01*
X157864406Y-104586497D01*
X157864326Y-104586744D01*
X157844540Y-104775000D01*
X157864326Y-104963256D01*
X157864327Y-104963259D01*
X157922818Y-105143277D01*
X157922821Y-105143284D01*
X158017467Y-105307216D01*
X158142611Y-105446202D01*
X158144129Y-105447888D01*
X158297265Y-105559148D01*
X158297270Y-105559151D01*
X158470192Y-105636142D01*
X158470197Y-105636144D01*
X158655354Y-105675500D01*
X158655355Y-105675500D01*
X158844644Y-105675500D01*
X158844646Y-105675500D01*
X159029803Y-105636144D01*
X159202730Y-105559151D01*
X159355871Y-105447888D01*
X159482533Y-105307216D01*
X159577179Y-105143284D01*
X159635674Y-104963256D01*
X159655460Y-104775000D01*
X159635674Y-104586744D01*
X159577179Y-104406716D01*
X159482533Y-104242784D01*
X159450081Y-104206742D01*
X159405659Y-104157406D01*
X159375429Y-104094414D01*
X159373870Y-104078328D01*
X159372709Y-104041373D01*
X159367122Y-104022144D01*
X159363174Y-104003084D01*
X159360664Y-103983208D01*
X159360663Y-103983206D01*
X159360663Y-103983204D01*
X159343512Y-103939887D01*
X159341619Y-103934358D01*
X159328618Y-103889609D01*
X159328616Y-103889606D01*
X159318423Y-103872371D01*
X159309861Y-103854894D01*
X159302487Y-103836270D01*
X159302486Y-103836268D01*
X159275079Y-103798545D01*
X159271888Y-103793686D01*
X159248172Y-103753583D01*
X159248165Y-103753574D01*
X159234006Y-103739415D01*
X159221368Y-103724619D01*
X159209594Y-103708413D01*
X159191580Y-103693511D01*
X159173688Y-103678709D01*
X159169376Y-103674786D01*
X158344666Y-102850075D01*
X158311181Y-102788752D01*
X158308990Y-102749785D01*
X158310499Y-102735020D01*
X158310499Y-102735018D01*
X158310500Y-102735009D01*
X158310499Y-101734992D01*
X158304937Y-101680548D01*
X158299999Y-101632203D01*
X158299998Y-101632200D01*
X158285717Y-101589102D01*
X158244814Y-101465666D01*
X158152712Y-101316344D01*
X158028656Y-101192288D01*
X157908981Y-101118472D01*
X157879336Y-101100187D01*
X157879331Y-101100185D01*
X157879289Y-101100171D01*
X157876008Y-101099084D01*
X157874028Y-101097712D01*
X157872791Y-101097136D01*
X157872889Y-101096924D01*
X157818565Y-101059312D01*
X157791742Y-100994796D01*
X157804057Y-100926021D01*
X157851600Y-100874821D01*
X157876010Y-100863673D01*
X157904119Y-100854358D01*
X157904124Y-100854356D01*
X158053345Y-100762315D01*
X158177315Y-100638345D01*
X158269356Y-100489124D01*
X158269358Y-100489119D01*
X158324505Y-100322697D01*
X158324506Y-100322690D01*
X158334999Y-100219986D01*
X158335000Y-100219973D01*
X158335000Y-99945000D01*
X157121500Y-99945000D01*
X157054461Y-99925315D01*
X157008706Y-99872511D01*
X156997500Y-99821000D01*
X156997500Y-99569000D01*
X157017185Y-99501961D01*
X157069989Y-99456206D01*
X157121500Y-99445000D01*
X158334999Y-99445000D01*
X158334999Y-99170028D01*
X158334998Y-99170013D01*
X158324505Y-99067302D01*
X158269358Y-98900880D01*
X158269356Y-98900875D01*
X158177315Y-98751654D01*
X158053345Y-98627684D01*
X157897975Y-98531851D01*
X157899241Y-98529797D01*
X157855418Y-98491216D01*
X157836262Y-98424023D01*
X157856474Y-98357141D01*
X157899193Y-98320124D01*
X157897975Y-98318149D01*
X158053345Y-98222315D01*
X158177315Y-98098345D01*
X158269356Y-97949124D01*
X158269358Y-97949119D01*
X158324505Y-97782697D01*
X158324506Y-97782690D01*
X158334999Y-97679986D01*
X158335000Y-97679973D01*
X158335000Y-97405000D01*
X157121500Y-97405000D01*
X157054461Y-97385315D01*
X157008706Y-97332511D01*
X156997500Y-97281000D01*
X156997500Y-97029000D01*
X157017185Y-96961961D01*
X157069989Y-96916206D01*
X157121500Y-96905000D01*
X158334999Y-96905000D01*
X158334999Y-96630028D01*
X158334998Y-96630013D01*
X158324505Y-96527302D01*
X158269358Y-96360880D01*
X158269356Y-96360875D01*
X158177315Y-96211654D01*
X158053345Y-96087684D01*
X157897975Y-95991851D01*
X157899241Y-95989797D01*
X157855418Y-95951216D01*
X157836262Y-95884023D01*
X157856474Y-95817141D01*
X157899193Y-95780124D01*
X157897975Y-95778149D01*
X158053345Y-95682315D01*
X158177315Y-95558345D01*
X158269356Y-95409124D01*
X158269358Y-95409119D01*
X158324505Y-95242697D01*
X158324506Y-95242690D01*
X158334999Y-95139986D01*
X158335000Y-95139973D01*
X158335000Y-94865000D01*
X157121500Y-94865000D01*
X157054461Y-94845315D01*
X157008706Y-94792511D01*
X156997500Y-94741000D01*
X156997500Y-93390000D01*
X157497500Y-93390000D01*
X157497500Y-94365000D01*
X158334999Y-94365000D01*
X158334999Y-94090028D01*
X158334998Y-94090013D01*
X158324505Y-93987302D01*
X158269358Y-93820880D01*
X158269356Y-93820875D01*
X158177315Y-93671654D01*
X158053345Y-93547684D01*
X157904124Y-93455643D01*
X157904119Y-93455641D01*
X157737697Y-93400494D01*
X157737690Y-93400493D01*
X157634986Y-93390000D01*
X157497500Y-93390000D01*
X156997500Y-93390000D01*
X156860027Y-93390000D01*
X156860012Y-93390001D01*
X156757302Y-93400494D01*
X156590880Y-93455641D01*
X156590875Y-93455643D01*
X156441654Y-93547684D01*
X156317683Y-93671655D01*
X156317679Y-93671660D01*
X156315826Y-93674665D01*
X156314018Y-93676290D01*
X156313202Y-93677323D01*
X156313025Y-93677183D01*
X156263874Y-93721385D01*
X156194911Y-93732601D01*
X156130831Y-93704752D01*
X156104753Y-93674653D01*
X156104737Y-93674628D01*
X156102712Y-93671344D01*
X155978656Y-93547288D01*
X155829334Y-93455186D01*
X155662797Y-93400001D01*
X155662795Y-93400000D01*
X155560010Y-93389500D01*
X154784998Y-93389500D01*
X154784980Y-93389501D01*
X154682203Y-93400000D01*
X154682200Y-93400001D01*
X154515668Y-93455185D01*
X154515663Y-93455187D01*
X154366342Y-93547289D01*
X154242289Y-93671342D01*
X154150187Y-93820663D01*
X154150185Y-93820668D01*
X154141821Y-93845909D01*
X154125155Y-93896206D01*
X154122405Y-93904504D01*
X154082632Y-93961949D01*
X154018116Y-93988772D01*
X154004699Y-93989500D01*
X153117743Y-93989500D01*
X153102122Y-93987775D01*
X153102096Y-93988061D01*
X153094334Y-93987327D01*
X153094333Y-93987327D01*
X153025186Y-93989500D01*
X152995649Y-93989500D01*
X152988766Y-93990369D01*
X152982949Y-93990826D01*
X152936373Y-93992290D01*
X152917129Y-93997881D01*
X152898079Y-94001825D01*
X152878211Y-94004334D01*
X152834884Y-94021488D01*
X152829358Y-94023379D01*
X152784614Y-94036379D01*
X152784610Y-94036381D01*
X152767366Y-94046579D01*
X152749905Y-94055133D01*
X152731274Y-94062510D01*
X152731262Y-94062517D01*
X152693570Y-94089902D01*
X152688687Y-94093109D01*
X152648580Y-94116829D01*
X152634414Y-94130995D01*
X152619624Y-94143627D01*
X152603414Y-94155404D01*
X152603411Y-94155407D01*
X152573710Y-94191309D01*
X152569777Y-94195631D01*
X151559622Y-95205785D01*
X151498299Y-95239270D01*
X151428607Y-95234286D01*
X151384260Y-95205785D01*
X151301881Y-95123406D01*
X151301877Y-95123402D01*
X151122639Y-94997898D01*
X151122640Y-94997898D01*
X151122638Y-94997897D01*
X151023484Y-94951661D01*
X150924330Y-94905425D01*
X150924326Y-94905424D01*
X150924322Y-94905422D01*
X150712977Y-94848793D01*
X150495002Y-94829723D01*
X150494998Y-94829723D01*
X150349682Y-94842436D01*
X150277023Y-94848793D01*
X150277020Y-94848793D01*
X150065677Y-94905422D01*
X150065668Y-94905426D01*
X149867361Y-94997898D01*
X149867357Y-94997900D01*
X149688121Y-95123402D01*
X149533402Y-95278121D01*
X149407900Y-95457357D01*
X149407898Y-95457361D01*
X149315426Y-95655668D01*
X149315422Y-95655677D01*
X149276057Y-95802593D01*
X149239692Y-95862254D01*
X149176845Y-95892783D01*
X149156282Y-95894500D01*
X145139188Y-95894500D01*
X145072149Y-95874815D01*
X145037613Y-95841623D01*
X144925045Y-95680858D01*
X144764141Y-95519954D01*
X144577734Y-95389432D01*
X144577732Y-95389431D01*
X144519725Y-95362382D01*
X144519132Y-95362105D01*
X144466694Y-95315934D01*
X144447542Y-95248740D01*
X144467758Y-95181859D01*
X144519134Y-95137341D01*
X144577484Y-95110132D01*
X144763820Y-94979657D01*
X144924657Y-94818820D01*
X145055134Y-94632482D01*
X145151265Y-94426326D01*
X145151269Y-94426317D01*
X145203872Y-94230000D01*
X143840686Y-94230000D01*
X143852641Y-94218045D01*
X143910165Y-94105148D01*
X143929986Y-93980000D01*
X143910165Y-93854852D01*
X143852641Y-93741955D01*
X143840686Y-93730000D01*
X145203872Y-93730000D01*
X145203872Y-93729999D01*
X145151269Y-93533682D01*
X145151265Y-93533673D01*
X145055134Y-93327517D01*
X144924657Y-93141179D01*
X144763820Y-92980342D01*
X144577482Y-92849865D01*
X144371326Y-92753734D01*
X144371317Y-92753730D01*
X144151610Y-92694860D01*
X144151599Y-92694858D01*
X143981763Y-92680000D01*
X143775000Y-92680000D01*
X143775000Y-93664314D01*
X143763045Y-93652359D01*
X143650148Y-93594835D01*
X143556481Y-93580000D01*
X143493519Y-93580000D01*
X143399852Y-93594835D01*
X143286955Y-93652359D01*
X143275000Y-93664314D01*
X143275000Y-92680000D01*
X143068237Y-92680000D01*
X142898400Y-92694858D01*
X142898389Y-92694860D01*
X142678682Y-92753730D01*
X142678673Y-92753734D01*
X142472517Y-92849865D01*
X142286179Y-92980342D01*
X142125342Y-93141179D01*
X141994865Y-93327517D01*
X141898734Y-93533673D01*
X141898730Y-93533682D01*
X141846127Y-93729999D01*
X141846128Y-93730000D01*
X143209314Y-93730000D01*
X143197359Y-93741955D01*
X143139835Y-93854852D01*
X143120014Y-93980000D01*
X143139835Y-94105148D01*
X143197359Y-94218045D01*
X143209314Y-94230000D01*
X141846128Y-94230000D01*
X141898730Y-94426317D01*
X141898734Y-94426326D01*
X141994865Y-94632482D01*
X142125342Y-94818820D01*
X142286179Y-94979657D01*
X142472518Y-95110134D01*
X142472520Y-95110135D01*
X142530865Y-95137342D01*
X142583305Y-95183514D01*
X142602457Y-95250707D01*
X142582242Y-95317589D01*
X142530867Y-95362105D01*
X142472268Y-95389431D01*
X142472264Y-95389433D01*
X142285858Y-95519954D01*
X142124954Y-95680858D01*
X141994432Y-95867265D01*
X141994431Y-95867267D01*
X141898261Y-96073502D01*
X141898258Y-96073511D01*
X141839366Y-96293302D01*
X141839364Y-96293313D01*
X141819532Y-96519998D01*
X141819532Y-96520001D01*
X141839364Y-96746686D01*
X141839366Y-96746697D01*
X141898258Y-96966488D01*
X141898261Y-96966497D01*
X141994431Y-97172732D01*
X141994432Y-97172734D01*
X142124954Y-97359141D01*
X142285858Y-97520045D01*
X142285861Y-97520047D01*
X142472266Y-97650568D01*
X142530275Y-97677618D01*
X142582714Y-97723791D01*
X142601866Y-97790984D01*
X142581650Y-97857865D01*
X142530275Y-97902381D01*
X142513272Y-97910310D01*
X142472267Y-97929431D01*
X142472265Y-97929432D01*
X142285858Y-98059954D01*
X142124954Y-98220858D01*
X141994432Y-98407265D01*
X141994431Y-98407267D01*
X141898261Y-98613502D01*
X141898258Y-98613511D01*
X141839366Y-98833302D01*
X141839364Y-98833313D01*
X141819532Y-99059995D01*
X141819532Y-99060001D01*
X141839364Y-99286686D01*
X141839366Y-99286697D01*
X141898258Y-99506488D01*
X141898261Y-99506497D01*
X141994431Y-99712732D01*
X141994432Y-99712734D01*
X142124954Y-99899141D01*
X142285858Y-100060045D01*
X142285861Y-100060047D01*
X142472266Y-100190568D01*
X142530275Y-100217618D01*
X142582714Y-100263791D01*
X142601866Y-100330984D01*
X142581650Y-100397865D01*
X142530275Y-100442382D01*
X142472267Y-100469431D01*
X142472265Y-100469432D01*
X142285858Y-100599954D01*
X142124954Y-100760858D01*
X141994432Y-100947265D01*
X141994431Y-100947267D01*
X141898261Y-101153502D01*
X141898258Y-101153511D01*
X141839366Y-101373302D01*
X141839364Y-101373313D01*
X141819532Y-101599995D01*
X141819532Y-101600001D01*
X141839364Y-101826686D01*
X141839366Y-101826697D01*
X141898258Y-102046488D01*
X141898261Y-102046497D01*
X141994431Y-102252732D01*
X141994432Y-102252734D01*
X142124954Y-102439141D01*
X142285858Y-102600045D01*
X142285861Y-102600047D01*
X142472266Y-102730568D01*
X142513477Y-102749785D01*
X142530275Y-102757618D01*
X142582714Y-102803791D01*
X142601866Y-102870984D01*
X142581650Y-102937865D01*
X142530275Y-102982382D01*
X142472267Y-103009431D01*
X142472265Y-103009432D01*
X142285858Y-103139954D01*
X142124954Y-103300858D01*
X141994432Y-103487265D01*
X141994431Y-103487267D01*
X141898261Y-103693502D01*
X141898258Y-103693511D01*
X141839366Y-103913302D01*
X141839364Y-103913313D01*
X141819532Y-104139995D01*
X141819532Y-104140001D01*
X141839364Y-104366686D01*
X141839366Y-104366697D01*
X141898258Y-104586488D01*
X141898261Y-104586497D01*
X141994431Y-104792732D01*
X141994432Y-104792734D01*
X142124954Y-104979141D01*
X142285858Y-105140045D01*
X142285861Y-105140047D01*
X142472266Y-105270568D01*
X142481372Y-105274814D01*
X142530275Y-105297618D01*
X142582714Y-105343791D01*
X142601866Y-105410984D01*
X142581650Y-105477865D01*
X142530275Y-105522382D01*
X142472267Y-105549431D01*
X142472265Y-105549432D01*
X142285858Y-105679954D01*
X142124954Y-105840858D01*
X141994432Y-106027265D01*
X141994431Y-106027267D01*
X141898261Y-106233502D01*
X141898258Y-106233511D01*
X141839366Y-106453302D01*
X141839364Y-106453313D01*
X141819532Y-106679995D01*
X141819532Y-106680001D01*
X141839364Y-106906686D01*
X141839366Y-106906697D01*
X141898258Y-107126488D01*
X141898261Y-107126497D01*
X141994431Y-107332732D01*
X141994432Y-107332734D01*
X142124954Y-107519141D01*
X142285858Y-107680045D01*
X142285861Y-107680047D01*
X142472266Y-107810568D01*
X142530275Y-107837618D01*
X142582714Y-107883791D01*
X142601866Y-107950984D01*
X142581650Y-108017865D01*
X142530275Y-108062382D01*
X142472267Y-108089431D01*
X142472265Y-108089432D01*
X142285858Y-108219954D01*
X142124954Y-108380858D01*
X141994432Y-108567265D01*
X141994431Y-108567267D01*
X141898261Y-108773502D01*
X141898258Y-108773511D01*
X141839366Y-108993302D01*
X141839364Y-108993313D01*
X141819532Y-109219995D01*
X141819532Y-109220001D01*
X141839364Y-109446686D01*
X141839366Y-109446697D01*
X141898258Y-109666488D01*
X141898261Y-109666497D01*
X141994431Y-109872732D01*
X141994432Y-109872734D01*
X142124954Y-110059141D01*
X142285858Y-110220045D01*
X142285861Y-110220047D01*
X142472266Y-110350568D01*
X142530275Y-110377618D01*
X142582714Y-110423791D01*
X142601866Y-110490984D01*
X142581650Y-110557865D01*
X142530275Y-110602382D01*
X142472267Y-110629431D01*
X142472265Y-110629432D01*
X142285858Y-110759954D01*
X142124954Y-110920858D01*
X141994432Y-111107265D01*
X141994431Y-111107267D01*
X141898261Y-111313502D01*
X141898258Y-111313511D01*
X141839366Y-111533302D01*
X141839364Y-111533313D01*
X141819532Y-111759998D01*
X141819532Y-111760001D01*
X138420500Y-111760001D01*
X138420500Y-111207742D01*
X138422224Y-111192122D01*
X138421939Y-111192095D01*
X138422673Y-111184333D01*
X138420500Y-111115172D01*
X138420500Y-111085656D01*
X138420500Y-111085650D01*
X138419631Y-111078779D01*
X138419173Y-111072952D01*
X138418944Y-111065665D01*
X138417710Y-111026373D01*
X138412119Y-111007130D01*
X138408173Y-110988078D01*
X138405664Y-110968208D01*
X138388504Y-110924867D01*
X138386624Y-110919379D01*
X138373618Y-110874610D01*
X138363422Y-110857370D01*
X138354861Y-110839894D01*
X138347487Y-110821270D01*
X138347486Y-110821268D01*
X138320079Y-110783545D01*
X138316888Y-110778686D01*
X138293172Y-110738583D01*
X138293165Y-110738574D01*
X138279006Y-110724415D01*
X138266368Y-110709619D01*
X138254594Y-110693413D01*
X138218688Y-110663709D01*
X138214376Y-110659786D01*
X137660803Y-110106212D01*
X137650980Y-110093950D01*
X137650759Y-110094134D01*
X137645786Y-110088123D01*
X137627159Y-110070631D01*
X137595364Y-110040773D01*
X137584919Y-110030328D01*
X137574475Y-110019883D01*
X137568986Y-110015625D01*
X137564561Y-110011847D01*
X137531432Y-109980736D01*
X137530580Y-109979936D01*
X137516849Y-109972388D01*
X137467585Y-109922841D01*
X137452929Y-109854526D01*
X137464204Y-109811323D01*
X137531739Y-109666496D01*
X137590635Y-109446692D01*
X137610468Y-109220000D01*
X137607106Y-109181575D01*
X137600188Y-109102500D01*
X137590635Y-108993308D01*
X137534464Y-108783673D01*
X137531741Y-108773511D01*
X137531738Y-108773502D01*
X137488790Y-108681401D01*
X137435568Y-108567266D01*
X137305047Y-108380861D01*
X137305045Y-108380858D01*
X137144141Y-108219954D01*
X136957734Y-108089432D01*
X136957728Y-108089429D01*
X136899725Y-108062382D01*
X136847285Y-108016210D01*
X136828133Y-107949017D01*
X136848348Y-107882135D01*
X136899725Y-107837618D01*
X136957734Y-107810568D01*
X137144139Y-107680047D01*
X137305047Y-107519139D01*
X137435568Y-107332734D01*
X137531739Y-107126496D01*
X137590635Y-106906692D01*
X137610468Y-106680000D01*
X137608545Y-106658025D01*
X137600188Y-106562500D01*
X137590635Y-106453308D01*
X137534420Y-106243511D01*
X137531741Y-106233511D01*
X137531738Y-106233502D01*
X137498372Y-106161949D01*
X137435568Y-106027266D01*
X137305934Y-105842128D01*
X137305045Y-105840858D01*
X137144141Y-105679954D01*
X136957734Y-105549432D01*
X136957728Y-105549429D01*
X136921325Y-105532454D01*
X136899724Y-105522381D01*
X136847285Y-105476210D01*
X136828133Y-105409017D01*
X136848348Y-105342135D01*
X136899725Y-105297618D01*
X136957734Y-105270568D01*
X137144139Y-105140047D01*
X137305047Y-104979139D01*
X137435568Y-104792734D01*
X137531739Y-104586496D01*
X137590635Y-104366692D01*
X137610468Y-104140000D01*
X137609060Y-104123912D01*
X137598489Y-104003084D01*
X137590635Y-103913308D01*
X137531739Y-103693504D01*
X137435568Y-103487266D01*
X137305047Y-103300861D01*
X137305045Y-103300858D01*
X137144141Y-103139954D01*
X136957734Y-103009432D01*
X136957728Y-103009429D01*
X136899725Y-102982382D01*
X136847285Y-102936210D01*
X136828133Y-102869017D01*
X136848348Y-102802135D01*
X136899725Y-102757618D01*
X136957734Y-102730568D01*
X137144139Y-102600047D01*
X137305047Y-102439139D01*
X137435568Y-102252734D01*
X137531739Y-102046496D01*
X137590635Y-101826692D01*
X137610468Y-101600000D01*
X137609201Y-101585523D01*
X137598463Y-101462785D01*
X137590635Y-101373308D01*
X137531739Y-101153504D01*
X137435568Y-100947266D01*
X137305047Y-100760861D01*
X137305045Y-100760858D01*
X137144141Y-100599954D01*
X136957734Y-100469432D01*
X136957728Y-100469429D01*
X136899725Y-100442382D01*
X136847285Y-100396210D01*
X136828133Y-100329017D01*
X136848348Y-100262135D01*
X136899725Y-100217618D01*
X136957734Y-100190568D01*
X137144139Y-100060047D01*
X137305047Y-99899139D01*
X137435568Y-99712734D01*
X137531739Y-99506496D01*
X137590635Y-99286692D01*
X137610468Y-99060000D01*
X137607106Y-99021575D01*
X137599034Y-98929304D01*
X137590635Y-98833308D01*
X137543695Y-98658123D01*
X137531741Y-98613511D01*
X137531738Y-98613502D01*
X137435568Y-98407266D01*
X137305047Y-98220861D01*
X137305045Y-98220858D01*
X137144141Y-98059954D01*
X136957734Y-97929432D01*
X136957728Y-97929429D01*
X136930038Y-97916517D01*
X136899724Y-97902381D01*
X136847285Y-97856210D01*
X136828133Y-97789017D01*
X136848348Y-97722135D01*
X136899725Y-97677618D01*
X136957734Y-97650568D01*
X137144139Y-97520047D01*
X137305047Y-97359139D01*
X137435568Y-97172734D01*
X137531739Y-96966496D01*
X137590635Y-96746692D01*
X137610468Y-96520000D01*
X137609478Y-96508689D01*
X137600952Y-96411228D01*
X137590635Y-96293308D01*
X137535687Y-96088239D01*
X137531741Y-96073511D01*
X137531738Y-96073502D01*
X137525182Y-96059443D01*
X137435568Y-95867266D01*
X137305047Y-95680861D01*
X137305045Y-95680858D01*
X137144141Y-95519954D01*
X136957734Y-95389432D01*
X136957728Y-95389429D01*
X136899725Y-95362382D01*
X136847285Y-95316210D01*
X136828133Y-95249017D01*
X136848348Y-95182135D01*
X136899725Y-95137618D01*
X136900319Y-95137341D01*
X136957734Y-95110568D01*
X137144139Y-94980047D01*
X137305047Y-94819139D01*
X137435568Y-94632734D01*
X137531739Y-94426496D01*
X137590635Y-94206692D01*
X137610253Y-93982454D01*
X137610468Y-93980001D01*
X137610468Y-93979998D01*
X137599519Y-93854852D01*
X137590635Y-93753308D01*
X137544198Y-93580000D01*
X137531741Y-93533511D01*
X137531738Y-93533502D01*
X137435568Y-93327266D01*
X137325580Y-93170185D01*
X137305045Y-93140858D01*
X137144141Y-92979954D01*
X136957734Y-92849432D01*
X136957732Y-92849431D01*
X136751497Y-92753261D01*
X136751488Y-92753258D01*
X136531697Y-92694366D01*
X136531687Y-92694364D01*
X136361784Y-92679500D01*
X135448216Y-92679500D01*
X135278312Y-92694364D01*
X135278302Y-92694366D01*
X135058511Y-92753258D01*
X135058502Y-92753261D01*
X134852267Y-92849431D01*
X134852265Y-92849432D01*
X134665858Y-92979954D01*
X134504954Y-93140858D01*
X134374432Y-93327265D01*
X134374431Y-93327267D01*
X134278261Y-93533502D01*
X134278258Y-93533511D01*
X134219366Y-93753302D01*
X134219364Y-93753313D01*
X134199532Y-93979998D01*
X134199532Y-93980001D01*
X134219364Y-94206686D01*
X134219366Y-94206697D01*
X134278258Y-94426488D01*
X134278261Y-94426497D01*
X134374431Y-94632732D01*
X134374432Y-94632734D01*
X134504954Y-94819141D01*
X134665858Y-94980045D01*
X134665861Y-94980047D01*
X134852266Y-95110568D01*
X134909681Y-95137341D01*
X134910275Y-95137618D01*
X134962714Y-95183791D01*
X134981866Y-95250984D01*
X134961650Y-95317865D01*
X134910275Y-95362382D01*
X134852267Y-95389431D01*
X134852265Y-95389432D01*
X134665858Y-95519954D01*
X134504954Y-95680858D01*
X134374432Y-95867265D01*
X134374431Y-95867267D01*
X134278261Y-96073502D01*
X134278258Y-96073511D01*
X134219366Y-96293302D01*
X134219364Y-96293313D01*
X134199532Y-96519998D01*
X134199532Y-96520001D01*
X134219364Y-96746686D01*
X134219366Y-96746697D01*
X134278258Y-96966488D01*
X134278261Y-96966497D01*
X134374431Y-97172732D01*
X134374432Y-97172734D01*
X134504954Y-97359141D01*
X134665858Y-97520045D01*
X134665861Y-97520047D01*
X134852266Y-97650568D01*
X134910275Y-97677618D01*
X134962714Y-97723791D01*
X134981866Y-97790984D01*
X134961650Y-97857865D01*
X134910275Y-97902381D01*
X134893272Y-97910310D01*
X134852267Y-97929431D01*
X134852265Y-97929432D01*
X134665858Y-98059954D01*
X134504954Y-98220858D01*
X134374432Y-98407265D01*
X134374431Y-98407267D01*
X134278261Y-98613502D01*
X134278258Y-98613511D01*
X134219366Y-98833302D01*
X134219364Y-98833313D01*
X134199532Y-99059995D01*
X134199532Y-99060001D01*
X134219364Y-99286686D01*
X134219366Y-99286697D01*
X134278258Y-99506488D01*
X134278261Y-99506497D01*
X134374431Y-99712732D01*
X134374432Y-99712734D01*
X134504954Y-99899141D01*
X134665858Y-100060045D01*
X134665861Y-100060047D01*
X134852266Y-100190568D01*
X134910275Y-100217618D01*
X134962714Y-100263791D01*
X134981866Y-100330984D01*
X134961650Y-100397865D01*
X134910275Y-100442382D01*
X134852267Y-100469431D01*
X134852265Y-100469432D01*
X134665858Y-100599954D01*
X134504954Y-100760858D01*
X134374432Y-100947265D01*
X134374431Y-100947267D01*
X134278261Y-101153502D01*
X134278258Y-101153511D01*
X134219366Y-101373302D01*
X134219364Y-101373313D01*
X134199532Y-101599995D01*
X134199532Y-101600001D01*
X134219364Y-101826686D01*
X134219366Y-101826697D01*
X134278258Y-102046488D01*
X134278261Y-102046497D01*
X134374431Y-102252732D01*
X134374432Y-102252734D01*
X134504954Y-102439141D01*
X134665858Y-102600045D01*
X134665861Y-102600047D01*
X134852266Y-102730568D01*
X134893477Y-102749785D01*
X134910275Y-102757618D01*
X134962714Y-102803791D01*
X134981866Y-102870984D01*
X134961650Y-102937865D01*
X134910275Y-102982382D01*
X134852267Y-103009431D01*
X134852265Y-103009432D01*
X134665858Y-103139954D01*
X134504954Y-103300858D01*
X134374432Y-103487265D01*
X134374431Y-103487267D01*
X134278261Y-103693502D01*
X134278258Y-103693511D01*
X134219366Y-103913302D01*
X134219364Y-103913313D01*
X134199532Y-104139995D01*
X134199532Y-104140001D01*
X134219364Y-104366686D01*
X134219366Y-104366697D01*
X134278258Y-104586488D01*
X134278261Y-104586497D01*
X134374431Y-104792732D01*
X134374432Y-104792734D01*
X134504954Y-104979141D01*
X134665858Y-105140045D01*
X134665861Y-105140047D01*
X134852266Y-105270568D01*
X134861372Y-105274814D01*
X134910275Y-105297618D01*
X134962714Y-105343791D01*
X134981866Y-105410984D01*
X134961650Y-105477865D01*
X134910275Y-105522382D01*
X134852267Y-105549431D01*
X134852265Y-105549432D01*
X134665858Y-105679954D01*
X134504954Y-105840858D01*
X134374432Y-106027265D01*
X134374431Y-106027267D01*
X134278261Y-106233502D01*
X134278258Y-106233511D01*
X134219366Y-106453302D01*
X134219364Y-106453313D01*
X134199532Y-106679995D01*
X134199532Y-106680001D01*
X134219364Y-106906686D01*
X134219366Y-106906697D01*
X134278258Y-107126488D01*
X134278261Y-107126497D01*
X134374431Y-107332732D01*
X134374432Y-107332734D01*
X134504954Y-107519141D01*
X134665858Y-107680045D01*
X134665861Y-107680047D01*
X134852266Y-107810568D01*
X134910275Y-107837618D01*
X134962714Y-107883791D01*
X134981866Y-107950984D01*
X134961650Y-108017865D01*
X134910275Y-108062382D01*
X134852267Y-108089431D01*
X134852265Y-108089432D01*
X134665858Y-108219954D01*
X134504954Y-108380858D01*
X134374432Y-108567265D01*
X134374431Y-108567267D01*
X134278261Y-108773502D01*
X134278258Y-108773511D01*
X134219366Y-108993302D01*
X134219364Y-108993313D01*
X134199532Y-109219995D01*
X134199532Y-109220001D01*
X134219364Y-109446686D01*
X134219366Y-109446697D01*
X134278258Y-109666488D01*
X134278260Y-109666492D01*
X134278261Y-109666496D01*
X134288333Y-109688095D01*
X134298825Y-109757173D01*
X134270305Y-109820957D01*
X134211829Y-109859196D01*
X134175951Y-109864500D01*
X133835237Y-109864500D01*
X133819620Y-109862776D01*
X133819593Y-109863062D01*
X133811831Y-109862327D01*
X133742703Y-109864500D01*
X133713150Y-109864500D01*
X133712429Y-109864590D01*
X133706257Y-109865369D01*
X133700445Y-109865826D01*
X133653872Y-109867290D01*
X133653869Y-109867291D01*
X133634626Y-109872881D01*
X133615583Y-109876825D01*
X133595704Y-109879336D01*
X133595703Y-109879337D01*
X133552378Y-109896490D01*
X133546852Y-109898382D01*
X133502108Y-109911383D01*
X133502104Y-109911385D01*
X133484865Y-109921580D01*
X133467398Y-109930137D01*
X133448769Y-109937512D01*
X133448767Y-109937513D01*
X133411064Y-109964906D01*
X133406182Y-109968112D01*
X133366080Y-109991828D01*
X133351908Y-110006000D01*
X133337123Y-110018628D01*
X133320912Y-110030407D01*
X133291209Y-110066310D01*
X133287277Y-110070631D01*
X131589726Y-111768181D01*
X131528403Y-111801666D01*
X131502045Y-111804500D01*
X130824998Y-111804500D01*
X130824980Y-111804501D01*
X130722203Y-111815000D01*
X130722200Y-111815001D01*
X130555668Y-111870185D01*
X130555663Y-111870187D01*
X130406342Y-111962289D01*
X130282288Y-112086343D01*
X130282283Y-112086349D01*
X130280241Y-112089661D01*
X130278247Y-112091453D01*
X130277807Y-112092011D01*
X130277711Y-112091935D01*
X130228291Y-112136383D01*
X130159328Y-112147602D01*
X130095247Y-112119755D01*
X130069168Y-112089656D01*
X130067319Y-112086659D01*
X130067316Y-112086655D01*
X129943345Y-111962684D01*
X129794124Y-111870643D01*
X129794119Y-111870641D01*
X129627697Y-111815494D01*
X129627690Y-111815493D01*
X129524986Y-111805000D01*
X129387500Y-111805000D01*
X129387500Y-114254999D01*
X129524972Y-114254999D01*
X129524986Y-114254998D01*
X129627697Y-114244505D01*
X129794119Y-114189358D01*
X129794124Y-114189356D01*
X129943345Y-114097315D01*
X130067318Y-113973342D01*
X130069165Y-113970348D01*
X130070969Y-113968724D01*
X130071798Y-113967677D01*
X130071976Y-113967818D01*
X130121110Y-113923621D01*
X130190073Y-113912396D01*
X130254156Y-113940236D01*
X130280243Y-113970341D01*
X130282288Y-113973656D01*
X130406344Y-114097712D01*
X130555666Y-114189814D01*
X130722203Y-114244999D01*
X130824991Y-114255500D01*
X131600008Y-114255499D01*
X131628039Y-114252635D01*
X131696729Y-114265403D01*
X131747614Y-114313283D01*
X131764536Y-114381072D01*
X131742122Y-114447249D01*
X131728321Y-114463674D01*
X131283815Y-114908181D01*
X131222492Y-114941666D01*
X131196134Y-114944500D01*
X127934152Y-114944500D01*
X127867113Y-114924815D01*
X127821358Y-114872011D01*
X127811414Y-114802853D01*
X127824904Y-114763877D01*
X127824538Y-114763714D01*
X127826436Y-114759449D01*
X127826765Y-114758500D01*
X127827179Y-114757784D01*
X127885674Y-114577756D01*
X127905460Y-114389500D01*
X127885674Y-114201244D01*
X127827179Y-114021216D01*
X127732533Y-113857284D01*
X127605871Y-113716612D01*
X127602587Y-113714226D01*
X127452732Y-113605349D01*
X127414616Y-113588379D01*
X127377372Y-113562781D01*
X127231818Y-113417227D01*
X127198333Y-113355904D01*
X127195499Y-113329546D01*
X127195499Y-113280000D01*
X128050001Y-113280000D01*
X128050001Y-113554986D01*
X128060494Y-113657697D01*
X128115641Y-113824119D01*
X128115643Y-113824124D01*
X128207684Y-113973345D01*
X128331654Y-114097315D01*
X128480875Y-114189356D01*
X128480880Y-114189358D01*
X128647302Y-114244505D01*
X128647309Y-114244506D01*
X128750019Y-114254999D01*
X128887499Y-114254999D01*
X128887500Y-114254998D01*
X128887500Y-113280000D01*
X128050001Y-113280000D01*
X127195499Y-113280000D01*
X127195499Y-112780000D01*
X128050000Y-112780000D01*
X128887500Y-112780000D01*
X128887500Y-111805000D01*
X128750027Y-111805000D01*
X128750012Y-111805001D01*
X128647302Y-111815494D01*
X128480880Y-111870641D01*
X128480875Y-111870643D01*
X128331654Y-111962684D01*
X128207684Y-112086654D01*
X128115643Y-112235875D01*
X128115641Y-112235880D01*
X128060494Y-112402302D01*
X128060493Y-112402309D01*
X128050000Y-112505013D01*
X128050000Y-112780000D01*
X127195499Y-112780000D01*
X127195499Y-112664998D01*
X127195498Y-112664981D01*
X127184999Y-112562203D01*
X127184998Y-112562200D01*
X127152805Y-112465048D01*
X127129814Y-112395666D01*
X127037712Y-112246344D01*
X126913656Y-112122288D01*
X126816902Y-112062610D01*
X126770179Y-112010663D01*
X126758000Y-111957072D01*
X126758000Y-111856057D01*
X126777685Y-111789018D01*
X126816901Y-111750520D01*
X126951156Y-111667712D01*
X127075212Y-111543656D01*
X127167314Y-111394334D01*
X127222499Y-111227797D01*
X127233000Y-111125009D01*
X127232999Y-110124992D01*
X127231435Y-110109685D01*
X127222499Y-110022203D01*
X127222498Y-110022200D01*
X127210267Y-109985289D01*
X127167314Y-109855666D01*
X127075212Y-109706344D01*
X126951156Y-109582288D01*
X126801834Y-109490186D01*
X126635297Y-109435001D01*
X126635295Y-109435000D01*
X126532510Y-109424500D01*
X125732498Y-109424500D01*
X125732480Y-109424501D01*
X125629703Y-109435000D01*
X125629700Y-109435001D01*
X125463168Y-109490185D01*
X125463163Y-109490187D01*
X125313842Y-109582289D01*
X125220181Y-109675951D01*
X125158858Y-109709436D01*
X125089166Y-109704452D01*
X125044819Y-109675951D01*
X124951157Y-109582289D01*
X124951156Y-109582288D01*
X124801834Y-109490186D01*
X124635297Y-109435001D01*
X124635295Y-109435000D01*
X124532510Y-109424500D01*
X123732498Y-109424500D01*
X123732480Y-109424501D01*
X123629703Y-109435000D01*
X123629700Y-109435001D01*
X123463168Y-109490185D01*
X123463163Y-109490187D01*
X123313842Y-109582289D01*
X123189789Y-109706342D01*
X123097687Y-109855663D01*
X123097685Y-109855668D01*
X123078086Y-109914814D01*
X123042501Y-110022203D01*
X123042501Y-110022204D01*
X123042500Y-110022204D01*
X123032000Y-110124983D01*
X123032000Y-111125001D01*
X123032001Y-111125019D01*
X123042500Y-111227796D01*
X123042501Y-111227799D01*
X123084967Y-111355952D01*
X123087369Y-111425781D01*
X123051637Y-111485822D01*
X122993043Y-111516246D01*
X122910196Y-111533856D01*
X122910192Y-111533857D01*
X122737270Y-111610848D01*
X122737265Y-111610851D01*
X122584129Y-111722111D01*
X122457465Y-111862785D01*
X122362547Y-112027189D01*
X122311980Y-112075405D01*
X122243373Y-112088627D01*
X122190064Y-112070728D01*
X122124340Y-112030189D01*
X122124336Y-112030187D01*
X122124334Y-112030186D01*
X122070785Y-112012441D01*
X122013341Y-111972668D01*
X121986519Y-111908152D01*
X121998835Y-111839377D01*
X122046378Y-111788177D01*
X122070789Y-111777029D01*
X122124122Y-111759356D01*
X122124124Y-111759356D01*
X122273345Y-111667315D01*
X122397315Y-111543345D01*
X122489356Y-111394124D01*
X122489358Y-111394119D01*
X122544505Y-111227697D01*
X122544506Y-111227690D01*
X122554999Y-111124986D01*
X122555000Y-111124973D01*
X122555000Y-110875000D01*
X121329000Y-110875000D01*
X121261961Y-110855315D01*
X121216206Y-110802511D01*
X121205000Y-110751000D01*
X121205000Y-109425000D01*
X121705000Y-109425000D01*
X121705000Y-110375000D01*
X122554999Y-110375000D01*
X122554999Y-110125028D01*
X122554998Y-110125013D01*
X122544505Y-110022302D01*
X122489358Y-109855880D01*
X122489356Y-109855875D01*
X122397315Y-109706654D01*
X122273345Y-109582684D01*
X122124124Y-109490643D01*
X122124119Y-109490641D01*
X121957697Y-109435494D01*
X121957690Y-109435493D01*
X121854986Y-109425000D01*
X121705000Y-109425000D01*
X121205000Y-109425000D01*
X121055027Y-109425000D01*
X121055012Y-109425001D01*
X120952302Y-109435494D01*
X120785880Y-109490641D01*
X120785875Y-109490643D01*
X120636657Y-109582682D01*
X120543034Y-109676305D01*
X120481710Y-109709789D01*
X120412019Y-109704805D01*
X120367672Y-109676304D01*
X120273657Y-109582289D01*
X120273656Y-109582288D01*
X120124334Y-109490186D01*
X119957797Y-109435001D01*
X119957795Y-109435000D01*
X119855010Y-109424500D01*
X119054998Y-109424500D01*
X119054980Y-109424501D01*
X118952203Y-109435000D01*
X118952200Y-109435001D01*
X118785668Y-109490185D01*
X118785663Y-109490187D01*
X118636342Y-109582289D01*
X118512289Y-109706342D01*
X118455039Y-109799160D01*
X118403091Y-109845884D01*
X118334128Y-109857107D01*
X118270046Y-109829263D01*
X118231190Y-109771194D01*
X118225500Y-109734063D01*
X118225500Y-107916230D01*
X118245185Y-107849191D01*
X118297989Y-107803436D01*
X118367147Y-107793492D01*
X118430703Y-107822517D01*
X118437181Y-107828549D01*
X118466344Y-107857712D01*
X118615666Y-107949814D01*
X118782203Y-108004999D01*
X118884991Y-108015500D01*
X119685008Y-108015499D01*
X119685016Y-108015498D01*
X119685019Y-108015498D01*
X119741302Y-108009748D01*
X119787797Y-108004999D01*
X119954334Y-107949814D01*
X120103656Y-107857712D01*
X120197319Y-107764049D01*
X120258642Y-107730564D01*
X120328334Y-107735548D01*
X120372681Y-107764049D01*
X120466344Y-107857712D01*
X120615666Y-107949814D01*
X120782203Y-108004999D01*
X120884991Y-108015500D01*
X121685008Y-108015499D01*
X121685016Y-108015498D01*
X121685019Y-108015498D01*
X121741302Y-108009748D01*
X121787797Y-108004999D01*
X121954334Y-107949814D01*
X122103656Y-107857712D01*
X122227712Y-107733656D01*
X122319814Y-107584334D01*
X122339311Y-107525493D01*
X122379084Y-107468051D01*
X122443600Y-107441228D01*
X122457017Y-107440500D01*
X122802983Y-107440500D01*
X122870022Y-107460185D01*
X122915777Y-107512989D01*
X122920686Y-107525489D01*
X122940186Y-107584334D01*
X123032288Y-107733656D01*
X123156344Y-107857712D01*
X123305666Y-107949814D01*
X123472203Y-108004999D01*
X123574991Y-108015500D01*
X124325008Y-108015499D01*
X124325016Y-108015498D01*
X124325019Y-108015498D01*
X124381302Y-108009748D01*
X124427797Y-108004999D01*
X124594334Y-107949814D01*
X124743656Y-107857712D01*
X124867712Y-107733656D01*
X124869752Y-107730347D01*
X124871745Y-107728555D01*
X124872193Y-107727989D01*
X124872289Y-107728065D01*
X124921694Y-107683623D01*
X124990656Y-107672395D01*
X125054740Y-107700234D01*
X125080829Y-107730339D01*
X125082681Y-107733341D01*
X125082683Y-107733344D01*
X125206654Y-107857315D01*
X125355875Y-107949356D01*
X125355880Y-107949358D01*
X125522302Y-108004505D01*
X125522309Y-108004506D01*
X125625019Y-108014999D01*
X125749999Y-108014999D01*
X125750000Y-108014998D01*
X125750000Y-107065000D01*
X126250000Y-107065000D01*
X126250000Y-108014999D01*
X126374972Y-108014999D01*
X126374986Y-108014998D01*
X126477697Y-108004505D01*
X126644119Y-107949358D01*
X126644124Y-107949356D01*
X126793345Y-107857315D01*
X126917315Y-107733345D01*
X127009356Y-107584124D01*
X127009358Y-107584119D01*
X127064505Y-107417697D01*
X127064506Y-107417690D01*
X127074999Y-107314986D01*
X127075000Y-107314973D01*
X127075000Y-107065000D01*
X126250000Y-107065000D01*
X125750000Y-107065000D01*
X125750000Y-105615000D01*
X126250000Y-105615000D01*
X126250000Y-106565000D01*
X127074999Y-106565000D01*
X127074999Y-106315028D01*
X127074998Y-106315013D01*
X127064505Y-106212302D01*
X127009358Y-106045880D01*
X127009356Y-106045875D01*
X126917315Y-105896654D01*
X126793345Y-105772684D01*
X126644124Y-105680643D01*
X126644119Y-105680641D01*
X126477697Y-105625494D01*
X126477690Y-105625493D01*
X126374986Y-105615000D01*
X126250000Y-105615000D01*
X125750000Y-105615000D01*
X125625027Y-105615000D01*
X125625012Y-105615001D01*
X125522302Y-105625494D01*
X125355880Y-105680641D01*
X125355875Y-105680643D01*
X125206654Y-105772684D01*
X125082683Y-105896655D01*
X125082679Y-105896660D01*
X125080826Y-105899665D01*
X125079018Y-105901290D01*
X125078202Y-105902323D01*
X125078025Y-105902183D01*
X125028874Y-105946385D01*
X124959911Y-105957601D01*
X124895831Y-105929752D01*
X124869753Y-105899653D01*
X124869619Y-105899436D01*
X124867712Y-105896344D01*
X124743656Y-105772288D01*
X124594334Y-105680186D01*
X124427797Y-105625001D01*
X124427795Y-105625000D01*
X124325010Y-105614500D01*
X123574998Y-105614500D01*
X123574980Y-105614501D01*
X123472203Y-105625000D01*
X123472200Y-105625001D01*
X123305668Y-105680185D01*
X123305663Y-105680187D01*
X123156342Y-105772289D01*
X123032289Y-105896342D01*
X122940187Y-106045663D01*
X122940186Y-106045666D01*
X122920689Y-106104505D01*
X122880916Y-106161949D01*
X122816400Y-106188772D01*
X122802983Y-106189500D01*
X122457017Y-106189500D01*
X122389978Y-106169815D01*
X122344223Y-106117011D01*
X122339311Y-106104505D01*
X122319814Y-106045666D01*
X122227712Y-105896344D01*
X122103656Y-105772288D01*
X121954334Y-105680186D01*
X121787797Y-105625001D01*
X121787795Y-105625000D01*
X121685010Y-105614500D01*
X120884998Y-105614500D01*
X120884980Y-105614501D01*
X120782203Y-105625000D01*
X120782200Y-105625001D01*
X120615668Y-105680185D01*
X120615663Y-105680187D01*
X120466342Y-105772289D01*
X120372681Y-105865951D01*
X120311358Y-105899436D01*
X120241666Y-105894452D01*
X120197319Y-105865951D01*
X120103657Y-105772289D01*
X120103656Y-105772288D01*
X119954334Y-105680186D01*
X119787797Y-105625001D01*
X119787795Y-105625000D01*
X119685010Y-105614500D01*
X118884998Y-105614500D01*
X118884980Y-105614501D01*
X118782203Y-105625000D01*
X118782200Y-105625001D01*
X118615668Y-105680185D01*
X118615663Y-105680187D01*
X118466342Y-105772289D01*
X118437181Y-105801451D01*
X118375858Y-105834936D01*
X118306166Y-105829952D01*
X118250233Y-105788080D01*
X118225816Y-105722616D01*
X118225500Y-105713770D01*
X118225500Y-105241230D01*
X118245185Y-105174191D01*
X118297989Y-105128436D01*
X118367147Y-105118492D01*
X118430703Y-105147517D01*
X118437181Y-105153549D01*
X118466344Y-105182712D01*
X118615666Y-105274814D01*
X118782203Y-105329999D01*
X118884991Y-105340500D01*
X119685008Y-105340499D01*
X119685016Y-105340498D01*
X119685019Y-105340498D01*
X119741302Y-105334748D01*
X119787797Y-105329999D01*
X119954334Y-105274814D01*
X120103656Y-105182712D01*
X120197319Y-105089049D01*
X120258642Y-105055564D01*
X120328334Y-105060548D01*
X120372681Y-105089049D01*
X120466344Y-105182712D01*
X120615666Y-105274814D01*
X120782203Y-105329999D01*
X120884991Y-105340500D01*
X121685008Y-105340499D01*
X121685016Y-105340498D01*
X121685019Y-105340498D01*
X121741302Y-105334748D01*
X121787797Y-105329999D01*
X121954334Y-105274814D01*
X122103656Y-105182712D01*
X122227712Y-105058656D01*
X122319814Y-104909334D01*
X122339311Y-104850493D01*
X122379084Y-104793051D01*
X122443600Y-104766228D01*
X122457017Y-104765500D01*
X122802983Y-104765500D01*
X122870022Y-104785185D01*
X122915777Y-104837989D01*
X122920686Y-104850489D01*
X122940186Y-104909334D01*
X123032288Y-105058656D01*
X123156344Y-105182712D01*
X123305666Y-105274814D01*
X123472203Y-105329999D01*
X123574991Y-105340500D01*
X124325008Y-105340499D01*
X124325016Y-105340498D01*
X124325019Y-105340498D01*
X124381302Y-105334748D01*
X124427797Y-105329999D01*
X124594334Y-105274814D01*
X124743656Y-105182712D01*
X124867712Y-105058656D01*
X124869752Y-105055347D01*
X124871745Y-105053555D01*
X124872193Y-105052989D01*
X124872289Y-105053065D01*
X124921694Y-105008623D01*
X124990656Y-104997395D01*
X125054740Y-105025234D01*
X125080829Y-105055339D01*
X125082681Y-105058341D01*
X125082683Y-105058344D01*
X125206654Y-105182315D01*
X125355875Y-105274356D01*
X125355880Y-105274358D01*
X125522302Y-105329505D01*
X125522309Y-105329506D01*
X125625019Y-105339999D01*
X125749999Y-105339999D01*
X125750000Y-105339998D01*
X125750000Y-104390000D01*
X126250000Y-104390000D01*
X126250000Y-105339999D01*
X126374972Y-105339999D01*
X126374986Y-105339998D01*
X126477697Y-105329505D01*
X126644119Y-105274358D01*
X126644124Y-105274356D01*
X126793345Y-105182315D01*
X126917315Y-105058345D01*
X127009356Y-104909124D01*
X127009358Y-104909119D01*
X127064505Y-104742697D01*
X127064506Y-104742690D01*
X127074999Y-104639986D01*
X127075000Y-104639973D01*
X127075000Y-104390000D01*
X126250000Y-104390000D01*
X125750000Y-104390000D01*
X125750000Y-102940000D01*
X126250000Y-102940000D01*
X126250000Y-103890000D01*
X127074999Y-103890000D01*
X127074999Y-103640028D01*
X127074998Y-103640013D01*
X127064505Y-103537302D01*
X127009358Y-103370880D01*
X127009356Y-103370875D01*
X126917315Y-103221654D01*
X126793345Y-103097684D01*
X126644124Y-103005643D01*
X126644119Y-103005641D01*
X126477697Y-102950494D01*
X126477690Y-102950493D01*
X126374986Y-102940000D01*
X126250000Y-102940000D01*
X125750000Y-102940000D01*
X125625027Y-102940000D01*
X125625012Y-102940001D01*
X125522302Y-102950494D01*
X125355880Y-103005641D01*
X125355875Y-103005643D01*
X125206654Y-103097684D01*
X125082683Y-103221655D01*
X125082679Y-103221660D01*
X125080826Y-103224665D01*
X125079018Y-103226290D01*
X125078202Y-103227323D01*
X125078025Y-103227183D01*
X125028874Y-103271385D01*
X124959911Y-103282601D01*
X124895831Y-103254752D01*
X124869753Y-103224653D01*
X124869737Y-103224628D01*
X124867712Y-103221344D01*
X124743656Y-103097288D01*
X124601218Y-103009432D01*
X124594336Y-103005187D01*
X124594331Y-103005185D01*
X124592862Y-103004698D01*
X124427797Y-102950001D01*
X124427795Y-102950000D01*
X124325010Y-102939500D01*
X123574998Y-102939500D01*
X123574980Y-102939501D01*
X123472203Y-102950000D01*
X123472200Y-102950001D01*
X123305668Y-103005185D01*
X123305663Y-103005187D01*
X123156342Y-103097289D01*
X123032289Y-103221342D01*
X122940187Y-103370663D01*
X122940186Y-103370666D01*
X122922363Y-103424454D01*
X122920689Y-103429505D01*
X122880916Y-103486949D01*
X122816400Y-103513772D01*
X122802983Y-103514500D01*
X122457017Y-103514500D01*
X122389978Y-103494815D01*
X122344223Y-103442011D01*
X122339311Y-103429505D01*
X122337818Y-103424999D01*
X122319814Y-103370666D01*
X122227712Y-103221344D01*
X122103656Y-103097288D01*
X121961218Y-103009432D01*
X121954336Y-103005187D01*
X121954331Y-103005185D01*
X121952862Y-103004698D01*
X121787797Y-102950001D01*
X121787795Y-102950000D01*
X121685010Y-102939500D01*
X120884998Y-102939500D01*
X120884980Y-102939501D01*
X120777101Y-102950522D01*
X120708408Y-102937752D01*
X120657524Y-102889871D01*
X120640500Y-102827164D01*
X120640500Y-101585523D01*
X120660185Y-101518484D01*
X120712989Y-101472729D01*
X120782147Y-101462785D01*
X120845703Y-101491810D01*
X120852181Y-101497842D01*
X120901654Y-101547315D01*
X121050875Y-101639356D01*
X121050880Y-101639358D01*
X121217302Y-101694505D01*
X121217309Y-101694506D01*
X121320019Y-101704999D01*
X121669999Y-101704999D01*
X121670000Y-101704998D01*
X121670000Y-99705000D01*
X122170000Y-99705000D01*
X122170000Y-101704999D01*
X122519972Y-101704999D01*
X122519986Y-101704998D01*
X122622697Y-101694505D01*
X122789119Y-101639358D01*
X122789124Y-101639356D01*
X122938345Y-101547315D01*
X123062315Y-101423345D01*
X123154356Y-101274124D01*
X123154358Y-101274119D01*
X123209505Y-101107697D01*
X123209506Y-101107690D01*
X123219999Y-101004986D01*
X123220000Y-101004973D01*
X123220000Y-99705000D01*
X128240001Y-99705000D01*
X128240001Y-101004986D01*
X128250494Y-101107697D01*
X128305641Y-101274119D01*
X128305643Y-101274124D01*
X128397684Y-101423345D01*
X128521654Y-101547315D01*
X128670875Y-101639356D01*
X128670880Y-101639358D01*
X128837302Y-101694505D01*
X128837309Y-101694506D01*
X128940019Y-101704999D01*
X129289999Y-101704999D01*
X129290000Y-101704998D01*
X129290000Y-99705000D01*
X129790000Y-99705000D01*
X129790000Y-101704999D01*
X130139972Y-101704999D01*
X130139986Y-101704998D01*
X130242697Y-101694505D01*
X130409119Y-101639358D01*
X130409124Y-101639356D01*
X130558345Y-101547315D01*
X130682315Y-101423345D01*
X130774356Y-101274124D01*
X130774358Y-101274119D01*
X130829505Y-101107697D01*
X130829506Y-101107690D01*
X130839999Y-101004986D01*
X130840000Y-101004973D01*
X130840000Y-99705000D01*
X129790000Y-99705000D01*
X129290000Y-99705000D01*
X128240001Y-99705000D01*
X123220000Y-99705000D01*
X122170000Y-99705000D01*
X121670000Y-99705000D01*
X121670000Y-99329000D01*
X121689685Y-99261961D01*
X121742489Y-99216206D01*
X121794000Y-99205000D01*
X123219999Y-99205000D01*
X128240000Y-99205000D01*
X129290000Y-99205000D01*
X129290000Y-97205000D01*
X129790000Y-97205000D01*
X129790000Y-99205000D01*
X130839999Y-99205000D01*
X130839999Y-97905028D01*
X130839998Y-97905013D01*
X130829505Y-97802302D01*
X130774358Y-97635880D01*
X130774356Y-97635875D01*
X130682315Y-97486654D01*
X130558345Y-97362684D01*
X130409124Y-97270643D01*
X130409119Y-97270641D01*
X130242697Y-97215494D01*
X130242690Y-97215493D01*
X130139986Y-97205000D01*
X129790000Y-97205000D01*
X129290000Y-97205000D01*
X128940028Y-97205000D01*
X128940012Y-97205001D01*
X128837302Y-97215494D01*
X128670880Y-97270641D01*
X128670875Y-97270643D01*
X128521654Y-97362684D01*
X128397684Y-97486654D01*
X128305643Y-97635875D01*
X128305641Y-97635880D01*
X128250494Y-97802302D01*
X128250493Y-97802309D01*
X128240000Y-97905013D01*
X128240000Y-99205000D01*
X123219999Y-99205000D01*
X123219999Y-97905028D01*
X123219998Y-97905013D01*
X123209505Y-97802302D01*
X123154358Y-97635880D01*
X123154356Y-97635875D01*
X123062315Y-97486654D01*
X122933237Y-97357576D01*
X122935446Y-97355366D01*
X122903148Y-97309797D01*
X122899978Y-97239999D01*
X122935047Y-97179568D01*
X122997221Y-97147689D01*
X123020418Y-97145500D01*
X125012257Y-97145500D01*
X125027877Y-97147224D01*
X125027904Y-97146939D01*
X125035660Y-97147671D01*
X125035667Y-97147673D01*
X125104814Y-97145500D01*
X125134350Y-97145500D01*
X125141228Y-97144630D01*
X125147041Y-97144172D01*
X125193627Y-97142709D01*
X125212869Y-97137117D01*
X125231912Y-97133174D01*
X125251792Y-97130664D01*
X125295122Y-97113507D01*
X125300646Y-97111617D01*
X125304396Y-97110527D01*
X125345390Y-97098618D01*
X125362629Y-97088422D01*
X125380103Y-97079862D01*
X125398727Y-97072488D01*
X125398727Y-97072487D01*
X125398732Y-97072486D01*
X125436449Y-97045082D01*
X125441305Y-97041892D01*
X125481420Y-97018170D01*
X125495589Y-97003999D01*
X125510379Y-96991368D01*
X125526587Y-96979594D01*
X125556299Y-96943676D01*
X125560212Y-96939376D01*
X126113786Y-96385802D01*
X126126048Y-96375980D01*
X126125865Y-96375759D01*
X126131867Y-96370792D01*
X126131877Y-96370786D01*
X126179241Y-96320348D01*
X126200120Y-96299470D01*
X126204373Y-96293986D01*
X126208150Y-96289563D01*
X126240062Y-96255582D01*
X126249714Y-96238023D01*
X126260389Y-96221772D01*
X126272674Y-96205936D01*
X126291186Y-96163152D01*
X126293742Y-96157935D01*
X126316197Y-96117092D01*
X126321180Y-96097680D01*
X126327477Y-96079291D01*
X126335438Y-96060895D01*
X126342729Y-96014853D01*
X126343908Y-96009162D01*
X126355500Y-95964019D01*
X126355500Y-95943983D01*
X126357027Y-95924582D01*
X126360160Y-95904804D01*
X126355775Y-95858415D01*
X126355500Y-95852577D01*
X126355500Y-92529500D01*
X126375185Y-92462461D01*
X126427989Y-92416706D01*
X126479500Y-92405500D01*
X128115500Y-92405500D01*
X128182539Y-92425185D01*
X128228294Y-92477989D01*
X128239500Y-92529500D01*
X128239500Y-95405001D01*
X128239501Y-95405018D01*
X128250000Y-95507796D01*
X128250001Y-95507799D01*
X128305185Y-95674331D01*
X128305187Y-95674336D01*
X128324349Y-95705403D01*
X128397288Y-95823656D01*
X128521344Y-95947712D01*
X128670666Y-96039814D01*
X128837203Y-96094999D01*
X128939991Y-96105500D01*
X130140008Y-96105499D01*
X130242797Y-96094999D01*
X130409334Y-96039814D01*
X130558656Y-95947712D01*
X130682712Y-95823656D01*
X130774814Y-95674334D01*
X130829999Y-95507797D01*
X130840500Y-95405009D01*
X130840499Y-92314499D01*
X130860184Y-92247461D01*
X130912988Y-92201706D01*
X130964499Y-92190500D01*
X140430663Y-92190500D01*
X140497702Y-92210185D01*
X140503548Y-92214182D01*
X140517265Y-92224148D01*
X140517270Y-92224151D01*
X140690192Y-92301142D01*
X140690197Y-92301144D01*
X140875354Y-92340500D01*
X140875355Y-92340500D01*
X141064644Y-92340500D01*
X141064646Y-92340500D01*
X141249803Y-92301144D01*
X141422730Y-92224151D01*
X141575871Y-92112888D01*
X141702533Y-91972216D01*
X141797179Y-91808284D01*
X141855674Y-91628256D01*
X141875460Y-91440000D01*
X141855674Y-91251744D01*
X141797179Y-91071716D01*
X141702533Y-90907784D01*
X141575871Y-90767112D01*
X141575870Y-90767111D01*
X141422734Y-90655851D01*
X141422729Y-90655848D01*
X141249807Y-90578857D01*
X141249802Y-90578855D01*
X141104001Y-90547865D01*
X141064646Y-90539500D01*
X140875354Y-90539500D01*
X140842897Y-90546398D01*
X140690197Y-90578855D01*
X140690192Y-90578857D01*
X140517270Y-90655848D01*
X140517265Y-90655851D01*
X140503548Y-90665818D01*
X140437742Y-90689298D01*
X140430663Y-90689500D01*
X130238705Y-90689500D01*
X130220735Y-90688191D01*
X130196972Y-90684710D01*
X130151533Y-90688686D01*
X130144931Y-90689264D01*
X130139530Y-90689500D01*
X130131289Y-90689500D01*
X130109579Y-90692037D01*
X130098724Y-90693306D01*
X130083419Y-90694645D01*
X130022199Y-90700001D01*
X130015132Y-90701460D01*
X130015120Y-90701404D01*
X130007763Y-90703035D01*
X130007777Y-90703092D01*
X130000743Y-90704759D01*
X129928575Y-90731025D01*
X129855675Y-90755181D01*
X129849126Y-90758236D01*
X129849101Y-90758183D01*
X129842308Y-90761471D01*
X129842334Y-90761523D01*
X129835880Y-90764764D01*
X129771708Y-90806971D01*
X129706347Y-90847285D01*
X129700683Y-90851765D01*
X129700647Y-90851719D01*
X129694797Y-90856485D01*
X129694834Y-90856529D01*
X129689305Y-90861168D01*
X129636597Y-90917034D01*
X129595165Y-90958465D01*
X129533842Y-90991950D01*
X129464150Y-90986964D01*
X129455077Y-90983164D01*
X129447057Y-90979423D01*
X129378431Y-90944959D01*
X129371645Y-90942489D01*
X129371665Y-90942433D01*
X129364549Y-90939959D01*
X129364531Y-90940015D01*
X129357671Y-90937742D01*
X129329841Y-90931996D01*
X129282434Y-90922207D01*
X129233472Y-90910603D01*
X129207719Y-90904499D01*
X129200547Y-90903661D01*
X129200553Y-90903601D01*
X129193055Y-90902835D01*
X129193050Y-90902895D01*
X129185860Y-90902265D01*
X129109083Y-90904500D01*
X118333705Y-90904500D01*
X118315735Y-90903191D01*
X118291972Y-90899710D01*
X118247512Y-90903601D01*
X118239931Y-90904264D01*
X118234530Y-90904500D01*
X118226289Y-90904500D01*
X118204579Y-90907037D01*
X118193724Y-90908306D01*
X118178419Y-90909645D01*
X118117199Y-90915001D01*
X118110132Y-90916460D01*
X118110120Y-90916404D01*
X118102763Y-90918035D01*
X118102777Y-90918092D01*
X118095743Y-90919759D01*
X118023575Y-90946025D01*
X117950675Y-90970181D01*
X117944126Y-90973236D01*
X117944101Y-90973183D01*
X117937308Y-90976471D01*
X117937334Y-90976523D01*
X117930880Y-90979764D01*
X117866708Y-91021971D01*
X117801347Y-91062285D01*
X117795683Y-91066765D01*
X117795647Y-91066719D01*
X117789798Y-91071484D01*
X117789835Y-91071528D01*
X117784310Y-91076164D01*
X117731597Y-91132035D01*
X115140449Y-93723181D01*
X115079126Y-93756666D01*
X115052768Y-93759500D01*
X113917129Y-93759500D01*
X113917123Y-93759501D01*
X113857516Y-93765908D01*
X113722671Y-93816202D01*
X113722664Y-93816206D01*
X113607455Y-93902452D01*
X113607452Y-93902455D01*
X113521206Y-94017664D01*
X113521202Y-94017671D01*
X113470908Y-94152517D01*
X113464501Y-94212116D01*
X113464500Y-94212135D01*
X113464500Y-96007870D01*
X113464501Y-96007876D01*
X113470908Y-96067483D01*
X113521202Y-96202328D01*
X113521206Y-96202335D01*
X113607452Y-96317544D01*
X113607455Y-96317547D01*
X113722664Y-96403793D01*
X113722671Y-96403797D01*
X113854081Y-96452810D01*
X113910015Y-96494681D01*
X113934432Y-96560145D01*
X113919580Y-96628418D01*
X113898430Y-96656673D01*
X113776503Y-96778600D01*
X113640965Y-96972169D01*
X113640964Y-96972171D01*
X113541098Y-97186335D01*
X113541094Y-97186344D01*
X113479938Y-97414586D01*
X113479936Y-97414596D01*
X113459341Y-97649999D01*
X113459341Y-97650000D01*
X113479936Y-97885403D01*
X113479938Y-97885413D01*
X113541094Y-98113655D01*
X113541096Y-98113659D01*
X113541097Y-98113663D01*
X113591947Y-98222710D01*
X113640965Y-98327830D01*
X113640967Y-98327834D01*
X113724599Y-98447272D01*
X113773652Y-98517327D01*
X113776501Y-98521395D01*
X113776506Y-98521402D01*
X113943597Y-98688493D01*
X113943603Y-98688498D01*
X114129158Y-98818425D01*
X114172783Y-98873002D01*
X114179977Y-98942500D01*
X114148454Y-99004855D01*
X114129158Y-99021575D01*
X113943597Y-99151505D01*
X113776505Y-99318597D01*
X113640965Y-99512169D01*
X113640964Y-99512171D01*
X113541098Y-99726335D01*
X113541094Y-99726344D01*
X113479938Y-99954586D01*
X113479936Y-99954596D01*
X113459341Y-100189999D01*
X113459341Y-100190000D01*
X113479936Y-100425403D01*
X113479938Y-100425413D01*
X113541094Y-100653655D01*
X113541096Y-100653659D01*
X113541097Y-100653663D01*
X113621887Y-100826918D01*
X113640965Y-100867830D01*
X113640967Y-100867834D01*
X113776501Y-101061395D01*
X113776506Y-101061402D01*
X113943597Y-101228493D01*
X113943603Y-101228498D01*
X114129158Y-101358425D01*
X114172783Y-101413002D01*
X114179977Y-101482500D01*
X114148454Y-101544855D01*
X114129158Y-101561575D01*
X113943597Y-101691505D01*
X113776505Y-101858597D01*
X113640965Y-102052169D01*
X113640964Y-102052171D01*
X113541098Y-102266335D01*
X113541094Y-102266344D01*
X113479938Y-102494586D01*
X113479936Y-102494596D01*
X113459341Y-102729999D01*
X113459341Y-102730000D01*
X113479936Y-102965403D01*
X113479938Y-102965413D01*
X113541094Y-103193655D01*
X113541096Y-103193659D01*
X113541097Y-103193663D01*
X113623237Y-103369812D01*
X113640965Y-103407830D01*
X113640967Y-103407834D01*
X113739448Y-103548478D01*
X113760801Y-103578974D01*
X113776501Y-103601395D01*
X113776506Y-103601402D01*
X113943597Y-103768493D01*
X113943603Y-103768498D01*
X114129158Y-103898425D01*
X114172783Y-103953002D01*
X114179977Y-104022500D01*
X114148454Y-104084855D01*
X114129158Y-104101575D01*
X113943597Y-104231505D01*
X113776505Y-104398597D01*
X113640965Y-104592169D01*
X113640964Y-104592171D01*
X113541098Y-104806335D01*
X113541094Y-104806344D01*
X113479938Y-105034586D01*
X113479936Y-105034596D01*
X113459341Y-105269999D01*
X113459341Y-105270000D01*
X113479936Y-105505403D01*
X113479938Y-105505413D01*
X113541094Y-105733655D01*
X113541096Y-105733659D01*
X113541097Y-105733663D01*
X113619745Y-105902323D01*
X113640965Y-105947830D01*
X113640967Y-105947834D01*
X113776501Y-106141395D01*
X113776506Y-106141402D01*
X113943597Y-106308493D01*
X113943603Y-106308498D01*
X114129158Y-106438425D01*
X114172783Y-106493002D01*
X114179977Y-106562500D01*
X114148454Y-106624855D01*
X114129158Y-106641575D01*
X113943597Y-106771505D01*
X113776505Y-106938597D01*
X113640965Y-107132169D01*
X113640964Y-107132171D01*
X113541098Y-107346335D01*
X113541094Y-107346344D01*
X113479938Y-107574586D01*
X113479936Y-107574596D01*
X113459341Y-107809999D01*
X113459341Y-107810000D01*
X113479936Y-108045403D01*
X113479938Y-108045413D01*
X113541094Y-108273655D01*
X113541096Y-108273659D01*
X113541097Y-108273663D01*
X113635759Y-108476666D01*
X113640965Y-108487830D01*
X113640967Y-108487834D01*
X113776501Y-108681395D01*
X113776506Y-108681402D01*
X113943597Y-108848493D01*
X113943603Y-108848498D01*
X114129158Y-108978425D01*
X114172783Y-109033002D01*
X114179977Y-109102500D01*
X114148454Y-109164855D01*
X114129158Y-109181575D01*
X113943597Y-109311505D01*
X113776505Y-109478597D01*
X113640965Y-109672169D01*
X113640964Y-109672171D01*
X113541098Y-109886335D01*
X113541094Y-109886344D01*
X113479938Y-110114586D01*
X113479936Y-110114596D01*
X113459341Y-110349999D01*
X113459341Y-110350000D01*
X111760000Y-110350000D01*
X111760000Y-90294000D01*
X111779685Y-90226961D01*
X111832489Y-90181206D01*
X111884000Y-90170000D01*
X172596000Y-90170000D01*
X172663039Y-90189685D01*
G37*
G04 #@! TD.AperFunction*
M02*
