M48
; DRILL file {KiCad 7.0.8} date 2024 January 10, Wednesday 12:44:40
; FORMAT={-:-/ absolute / metric / decimal}
; #@! TF.CreationDate,2024-01-10T12:44:40+01:00
; #@! TF.GenerationSoftware,Kicad,Pcbnew,7.0.8
; #@! TF.FileFunction,Plated,1,2,PTH
FMAT,2
METRIC
; #@! TA.AperFunction,Plated,PTH,ViaDrill
T1C0.400
; #@! TA.AperFunction,Plated,PTH,ComponentDrill
T2C0.800
; #@! TA.AperFunction,Plated,PTH,ComponentDrill
T3C1.000
; #@! TA.AperFunction,Plated,PTH,ComponentDrill
T4C1.320
; #@! TA.AperFunction,Plated,PTH,ComponentDrill
T5C3.200
%
G90
G05
T1
X113.665Y-91.44
X113.665Y-116.205
X117.475Y-93.98
X118.11Y-111.76
X118.745Y-102.235
X119.38Y-114.935
X120.015Y-95.25
X122.555Y-102.235
X122.555Y-105.41
X122.555Y-107.95
X122.555Y-114.935
X123.19Y-112.395
X123.825Y-95.25
X127.0Y-95.25
X127.0Y-114.389
X128.27Y-105.41
X132.08Y-95.25
X132.715Y-113.03
X138.43Y-104.775
X139.065Y-95.25
X139.065Y-98.425
X139.7Y-109.855
X140.97Y-91.44
X140.97Y-114.935
X146.05Y-97.79
X146.05Y-104.775
X147.32Y-91.44
X152.4Y-107.95
X152.4Y-111.76
X152.4Y-115.57
X154.94Y-91.44
X158.75Y-104.775
X158.75Y-115.57
X161.925Y-91.44
X161.925Y-97.79
X161.925Y-102.87
X162.56Y-107.95
X165.1Y-115.57
X167.64Y-91.44
X170.815Y-107.315
T2
X135.905Y-93.98
X135.905Y-96.52
X135.905Y-99.06
X135.905Y-101.6
X135.905Y-104.14
X135.905Y-106.68
X135.905Y-109.22
X135.905Y-111.76
X135.905Y-114.3
X143.525Y-93.98
X143.525Y-96.52
X143.525Y-99.06
X143.525Y-101.6
X143.525Y-104.14
X143.525Y-106.68
X143.525Y-109.22
X143.525Y-111.76
X143.525Y-114.3
X148.6Y-106.69
X148.6Y-109.23
X148.6Y-111.77
X148.6Y-114.31
X150.495Y-96.085
X150.495Y-100.965
X156.22Y-106.69
X156.22Y-109.23
X156.22Y-111.77
X156.22Y-114.31
T3
X114.815Y-95.11
X114.815Y-97.65
X114.815Y-100.19
X114.815Y-102.73
X114.815Y-105.27
X114.815Y-107.81
X114.815Y-110.35
X114.815Y-112.89
X161.925Y-111.76
X161.925Y-114.3
T4
X167.005Y-95.33
X167.005Y-100.33
X167.005Y-105.33
T5
X168.91Y-113.03
T0
M30
